G04*
G04 #@! TF.GenerationSoftware,Altium Limited,Altium Designer,24.9.1 (31)*
G04*
G04 Layer_Color=16711935*
%FSLAX44Y44*%
%MOMM*%
G71*
G04*
G04 #@! TF.SameCoordinates,615AE811-4124-4B85-86CB-A8D5F2F7F980*
G04*
G04*
G04 #@! TF.FilePolarity,Positive*
G04*
G01*
G75*
%ADD11C,0.2000*%
G36*
X127784Y83886D02*
X127858Y83877D01*
X127950Y83868D01*
X128052Y83849D01*
X128154Y83831D01*
X128394Y83766D01*
X128635Y83674D01*
X128755Y83618D01*
X128875Y83553D01*
X128986Y83470D01*
X129088Y83378D01*
X129097Y83369D01*
X129115Y83359D01*
X129134Y83322D01*
X129171Y83285D01*
X129217Y83239D01*
X129263Y83174D01*
X129310Y83110D01*
X129365Y83027D01*
X129458Y82851D01*
X129550Y82629D01*
X129587Y82518D01*
X129606Y82388D01*
X129624Y82259D01*
X129633Y82120D01*
Y82102D01*
Y82056D01*
X129624Y81982D01*
X129615Y81880D01*
X129596Y81769D01*
X129559Y81640D01*
X129522Y81501D01*
X129467Y81362D01*
X129458Y81344D01*
X129439Y81298D01*
X129402Y81224D01*
X129347Y81122D01*
X129273Y81011D01*
X129180Y80872D01*
X129069Y80734D01*
X128940Y80576D01*
X128921Y80558D01*
X128875Y80502D01*
X128829Y80456D01*
X128783Y80410D01*
X128727Y80354D01*
X128653Y80281D01*
X128579Y80207D01*
X128487Y80123D01*
X128394Y80031D01*
X128283Y79929D01*
X128163Y79827D01*
X128034Y79707D01*
X127886Y79587D01*
X127738Y79458D01*
X127729Y79448D01*
X127710Y79430D01*
X127673Y79402D01*
X127627Y79365D01*
X127571Y79310D01*
X127507Y79254D01*
X127359Y79134D01*
X127202Y78995D01*
X127054Y78857D01*
X126924Y78737D01*
X126869Y78690D01*
X126823Y78644D01*
X126813Y78635D01*
X126786Y78607D01*
X126749Y78570D01*
X126702Y78515D01*
X126656Y78450D01*
X126601Y78385D01*
X126490Y78228D01*
X129642D01*
Y77470D01*
X125399D01*
Y77479D01*
Y77516D01*
Y77572D01*
X125408Y77646D01*
X125417Y77729D01*
X125436Y77821D01*
X125454Y77914D01*
X125491Y78015D01*
Y78025D01*
X125500Y78034D01*
X125519Y78089D01*
X125556Y78172D01*
X125611Y78284D01*
X125685Y78413D01*
X125778Y78561D01*
X125879Y78709D01*
X126009Y78866D01*
Y78875D01*
X126027Y78884D01*
X126074Y78940D01*
X126157Y79023D01*
X126277Y79143D01*
X126416Y79282D01*
X126591Y79448D01*
X126804Y79633D01*
X127035Y79827D01*
X127044Y79837D01*
X127081Y79865D01*
X127137Y79911D01*
X127202Y79966D01*
X127285Y80040D01*
X127387Y80123D01*
X127488Y80216D01*
X127608Y80317D01*
X127840Y80539D01*
X128071Y80761D01*
X128182Y80872D01*
X128283Y80983D01*
X128376Y81085D01*
X128450Y81187D01*
Y81196D01*
X128468Y81205D01*
X128487Y81233D01*
X128505Y81270D01*
X128570Y81371D01*
X128644Y81492D01*
X128709Y81640D01*
X128773Y81797D01*
X128810Y81973D01*
X128829Y82139D01*
Y82148D01*
Y82157D01*
X128820Y82213D01*
X128810Y82305D01*
X128783Y82407D01*
X128746Y82536D01*
X128681Y82666D01*
X128598Y82795D01*
X128487Y82925D01*
X128468Y82943D01*
X128422Y82980D01*
X128357Y83027D01*
X128256Y83091D01*
X128126Y83147D01*
X127978Y83202D01*
X127803Y83239D01*
X127608Y83248D01*
X127553D01*
X127516Y83239D01*
X127405Y83230D01*
X127276Y83202D01*
X127137Y83165D01*
X126980Y83100D01*
X126832Y83017D01*
X126693Y82906D01*
X126675Y82888D01*
X126638Y82842D01*
X126582Y82768D01*
X126527Y82657D01*
X126462Y82527D01*
X126406Y82361D01*
X126369Y82176D01*
X126351Y81963D01*
X125547Y82046D01*
Y82056D01*
X125556Y82083D01*
Y82130D01*
X125565Y82194D01*
X125584Y82268D01*
X125602Y82352D01*
X125630Y82453D01*
X125658Y82555D01*
X125732Y82777D01*
X125843Y82999D01*
X125907Y83110D01*
X125990Y83221D01*
X126074Y83322D01*
X126166Y83415D01*
X126175Y83424D01*
X126194Y83433D01*
X126222Y83461D01*
X126268Y83489D01*
X126323Y83526D01*
X126388Y83563D01*
X126462Y83609D01*
X126554Y83655D01*
X126656Y83701D01*
X126767Y83748D01*
X126887Y83785D01*
X127017Y83822D01*
X127155Y83849D01*
X127303Y83877D01*
X127460Y83886D01*
X127627Y83896D01*
X127719D01*
X127784Y83886D01*
D02*
G37*
G36*
X122006Y83859D02*
X122191Y83849D01*
X122375Y83831D01*
X122560Y83803D01*
X122718Y83775D01*
X122727D01*
X122745Y83766D01*
X122773D01*
X122810Y83748D01*
X122912Y83720D01*
X123041Y83674D01*
X123189Y83609D01*
X123346Y83526D01*
X123503Y83433D01*
X123651Y83313D01*
X123661Y83304D01*
X123670Y83295D01*
X123698Y83267D01*
X123735Y83239D01*
X123827Y83147D01*
X123938Y83017D01*
X124058Y82860D01*
X124188Y82675D01*
X124308Y82463D01*
X124410Y82222D01*
Y82213D01*
X124419Y82194D01*
X124437Y82157D01*
X124446Y82102D01*
X124474Y82037D01*
X124493Y81963D01*
X124511Y81880D01*
X124539Y81778D01*
X124567Y81677D01*
X124585Y81556D01*
X124631Y81298D01*
X124659Y81011D01*
X124668Y80697D01*
Y80687D01*
Y80669D01*
Y80623D01*
Y80576D01*
X124659Y80512D01*
Y80438D01*
X124650Y80262D01*
X124622Y80059D01*
X124594Y79846D01*
X124548Y79624D01*
X124493Y79402D01*
Y79393D01*
X124483Y79374D01*
X124474Y79347D01*
X124465Y79310D01*
X124428Y79208D01*
X124373Y79079D01*
X124317Y78931D01*
X124243Y78783D01*
X124151Y78626D01*
X124058Y78478D01*
X124049Y78459D01*
X124012Y78413D01*
X123956Y78348D01*
X123883Y78265D01*
X123799Y78172D01*
X123698Y78080D01*
X123596Y77978D01*
X123476Y77895D01*
X123457Y77886D01*
X123420Y77858D01*
X123356Y77821D01*
X123263Y77775D01*
X123152Y77719D01*
X123023Y77673D01*
X122875Y77618D01*
X122708Y77572D01*
X122690D01*
X122662Y77562D01*
X122634Y77553D01*
X122542Y77544D01*
X122412Y77525D01*
X122264Y77507D01*
X122089Y77488D01*
X121895Y77479D01*
X121682Y77470D01*
X119380D01*
Y83868D01*
X121839D01*
X122006Y83859D01*
D02*
G37*
G36*
X232410Y72342D02*
X229951D01*
X229784Y72351D01*
X229599Y72361D01*
X229415Y72379D01*
X229230Y72407D01*
X229072Y72435D01*
X229063D01*
X229045Y72444D01*
X229017D01*
X228980Y72462D01*
X228878Y72490D01*
X228749Y72536D01*
X228601Y72601D01*
X228444Y72684D01*
X228286Y72777D01*
X228139Y72897D01*
X228129Y72906D01*
X228120Y72915D01*
X228092Y72943D01*
X228055Y72971D01*
X227963Y73063D01*
X227852Y73193D01*
X227732Y73350D01*
X227602Y73535D01*
X227482Y73748D01*
X227381Y73988D01*
Y73997D01*
X227371Y74016D01*
X227353Y74053D01*
X227344Y74108D01*
X227316Y74173D01*
X227297Y74247D01*
X227279Y74330D01*
X227251Y74432D01*
X227223Y74533D01*
X227205Y74654D01*
X227159Y74912D01*
X227131Y75199D01*
X227122Y75513D01*
Y75523D01*
Y75541D01*
Y75587D01*
Y75634D01*
X227131Y75698D01*
Y75772D01*
X227140Y75948D01*
X227168Y76151D01*
X227196Y76364D01*
X227242Y76586D01*
X227297Y76808D01*
Y76817D01*
X227306Y76835D01*
X227316Y76863D01*
X227325Y76900D01*
X227362Y77002D01*
X227418Y77131D01*
X227473Y77279D01*
X227547Y77427D01*
X227639Y77584D01*
X227732Y77732D01*
X227741Y77751D01*
X227778Y77797D01*
X227833Y77862D01*
X227908Y77945D01*
X227991Y78037D01*
X228092Y78130D01*
X228194Y78232D01*
X228314Y78315D01*
X228333Y78324D01*
X228370Y78352D01*
X228435Y78389D01*
X228527Y78435D01*
X228638Y78490D01*
X228767Y78537D01*
X228915Y78592D01*
X229082Y78638D01*
X229100D01*
X229128Y78648D01*
X229156Y78657D01*
X229248Y78666D01*
X229377Y78685D01*
X229525Y78703D01*
X229701Y78722D01*
X229895Y78731D01*
X230108Y78740D01*
X232410D01*
Y72342D01*
D02*
G37*
G36*
X224107Y73738D02*
X224117Y73748D01*
X224163Y73784D01*
X224219Y73840D01*
X224311Y73905D01*
X224413Y73988D01*
X224542Y74080D01*
X224690Y74182D01*
X224856Y74284D01*
X224866D01*
X224875Y74293D01*
X224930Y74330D01*
X225023Y74376D01*
X225134Y74432D01*
X225263Y74496D01*
X225402Y74561D01*
X225541Y74626D01*
X225679Y74681D01*
Y73923D01*
X225670D01*
X225651Y73905D01*
X225615Y73895D01*
X225568Y73868D01*
X225513Y73840D01*
X225448Y73803D01*
X225291Y73710D01*
X225106Y73609D01*
X224921Y73479D01*
X224727Y73331D01*
X224533Y73174D01*
X224524Y73165D01*
X224514Y73156D01*
X224487Y73128D01*
X224450Y73100D01*
X224366Y73008D01*
X224256Y72897D01*
X224144Y72767D01*
X224024Y72620D01*
X223923Y72472D01*
X223830Y72314D01*
X223322D01*
Y78740D01*
X224107D01*
Y73738D01*
D02*
G37*
G36*
X180842Y123340D02*
X180925D01*
X181119Y123330D01*
X181322Y123302D01*
X181544Y123275D01*
X181748Y123229D01*
X181849Y123201D01*
X181933Y123173D01*
X181942D01*
X181951Y123164D01*
X182007Y123136D01*
X182090Y123099D01*
X182192Y123034D01*
X182302Y122951D01*
X182423Y122840D01*
X182534Y122711D01*
X182645Y122563D01*
Y122554D01*
X182654Y122544D01*
X182691Y122489D01*
X182728Y122396D01*
X182783Y122276D01*
X182829Y122138D01*
X182876Y121971D01*
X182903Y121796D01*
X182913Y121601D01*
Y121592D01*
Y121574D01*
Y121537D01*
X182903Y121490D01*
Y121426D01*
X182894Y121361D01*
X182857Y121204D01*
X182802Y121019D01*
X182728Y120825D01*
X182617Y120631D01*
X182543Y120538D01*
X182469Y120446D01*
X182460Y120436D01*
X182450Y120427D01*
X182423Y120399D01*
X182386Y120372D01*
X182339Y120335D01*
X182284Y120298D01*
X182210Y120252D01*
X182136Y120196D01*
X182044Y120150D01*
X181942Y120104D01*
X181831Y120048D01*
X181711Y120002D01*
X181572Y119965D01*
X181433Y119919D01*
X181276Y119891D01*
X181110Y119863D01*
X181128Y119854D01*
X181165Y119835D01*
X181221Y119798D01*
X181295Y119761D01*
X181461Y119660D01*
X181544Y119595D01*
X181618Y119540D01*
X181637Y119521D01*
X181683Y119475D01*
X181757Y119401D01*
X181849Y119308D01*
X181951Y119179D01*
X182071Y119040D01*
X182192Y118874D01*
X182321Y118689D01*
X183421Y116951D01*
X182367D01*
X181526Y118282D01*
Y118291D01*
X181507Y118310D01*
X181489Y118338D01*
X181461Y118375D01*
X181396Y118476D01*
X181313Y118606D01*
X181211Y118744D01*
X181110Y118892D01*
X181008Y119031D01*
X180916Y119160D01*
X180906Y119170D01*
X180879Y119207D01*
X180832Y119262D01*
X180768Y119327D01*
X180629Y119466D01*
X180555Y119530D01*
X180481Y119586D01*
X180472Y119595D01*
X180453Y119604D01*
X180416Y119623D01*
X180361Y119650D01*
X180305Y119678D01*
X180241Y119706D01*
X180093Y119752D01*
X180084D01*
X180065Y119761D01*
X180028D01*
X179982Y119771D01*
X179917Y119780D01*
X179843D01*
X179741Y119789D01*
X178650D01*
Y116951D01*
X177800D01*
Y123349D01*
X180768D01*
X180842Y123340D01*
D02*
G37*
G36*
X186139Y123367D02*
X186213Y123358D01*
X186297Y123349D01*
X186389Y123340D01*
X186481Y123312D01*
X186703Y123256D01*
X186925Y123173D01*
X187036Y123118D01*
X187147Y123053D01*
X187249Y122970D01*
X187351Y122886D01*
X187360Y122877D01*
X187369Y122868D01*
X187397Y122840D01*
X187434Y122803D01*
X187471Y122748D01*
X187517Y122692D01*
X187610Y122554D01*
X187702Y122378D01*
X187785Y122175D01*
X187850Y121943D01*
X187859Y121823D01*
X187868Y121694D01*
Y121685D01*
Y121675D01*
Y121620D01*
X187859Y121537D01*
X187841Y121435D01*
X187813Y121306D01*
X187767Y121176D01*
X187711Y121047D01*
X187628Y120917D01*
X187619Y120899D01*
X187582Y120862D01*
X187526Y120806D01*
X187452Y120732D01*
X187351Y120649D01*
X187230Y120566D01*
X187092Y120483D01*
X186925Y120409D01*
X186935D01*
X186953Y120399D01*
X186981Y120390D01*
X187018Y120372D01*
X187129Y120325D01*
X187258Y120261D01*
X187397Y120168D01*
X187545Y120067D01*
X187683Y119937D01*
X187813Y119789D01*
Y119780D01*
X187822Y119771D01*
X187859Y119715D01*
X187915Y119623D01*
X187970Y119503D01*
X188025Y119355D01*
X188081Y119179D01*
X188118Y118985D01*
X188127Y118772D01*
Y118763D01*
Y118735D01*
Y118689D01*
X188118Y118633D01*
X188109Y118569D01*
X188099Y118486D01*
X188081Y118393D01*
X188053Y118291D01*
X187988Y118079D01*
X187942Y117959D01*
X187878Y117848D01*
X187813Y117727D01*
X187739Y117617D01*
X187646Y117506D01*
X187545Y117395D01*
X187535Y117385D01*
X187517Y117367D01*
X187489Y117339D01*
X187443Y117311D01*
X187378Y117265D01*
X187314Y117219D01*
X187230Y117173D01*
X187138Y117117D01*
X187036Y117062D01*
X186916Y117015D01*
X186787Y116969D01*
X186657Y116923D01*
X186509Y116895D01*
X186352Y116868D01*
X186195Y116849D01*
X186019Y116840D01*
X185927D01*
X185862Y116849D01*
X185779Y116858D01*
X185686Y116868D01*
X185585Y116886D01*
X185474Y116914D01*
X185224Y116979D01*
X185095Y117025D01*
X184974Y117071D01*
X184845Y117136D01*
X184716Y117210D01*
X184595Y117293D01*
X184484Y117395D01*
X184475Y117404D01*
X184457Y117422D01*
X184429Y117450D01*
X184392Y117496D01*
X184355Y117552D01*
X184300Y117617D01*
X184253Y117690D01*
X184198Y117783D01*
X184142Y117875D01*
X184096Y117986D01*
X184004Y118217D01*
X183967Y118356D01*
X183939Y118495D01*
X183920Y118643D01*
X183911Y118791D01*
Y118800D01*
Y118818D01*
Y118855D01*
X183920Y118892D01*
Y118948D01*
X183930Y119013D01*
X183948Y119160D01*
X183985Y119327D01*
X184041Y119493D01*
X184124Y119669D01*
X184226Y119835D01*
Y119845D01*
X184244Y119854D01*
X184281Y119900D01*
X184355Y119974D01*
X184457Y120067D01*
X184586Y120159D01*
X184743Y120261D01*
X184919Y120344D01*
X185132Y120409D01*
X185122D01*
X185113Y120418D01*
X185085Y120427D01*
X185048Y120446D01*
X184965Y120483D01*
X184854Y120538D01*
X184734Y120612D01*
X184614Y120704D01*
X184503Y120806D01*
X184401Y120917D01*
X184392Y120936D01*
X184364Y120973D01*
X184327Y121047D01*
X184290Y121139D01*
X184244Y121259D01*
X184207Y121398D01*
X184179Y121555D01*
X184170Y121721D01*
Y121731D01*
Y121749D01*
Y121786D01*
X184179Y121842D01*
X184189Y121897D01*
X184198Y121971D01*
X184235Y122128D01*
X184290Y122313D01*
X184383Y122507D01*
X184438Y122609D01*
X184503Y122711D01*
X184586Y122803D01*
X184669Y122896D01*
X184679Y122905D01*
X184697Y122914D01*
X184725Y122942D01*
X184762Y122970D01*
X184808Y123007D01*
X184873Y123044D01*
X184947Y123090D01*
X185021Y123136D01*
X185113Y123182D01*
X185215Y123229D01*
X185326Y123266D01*
X185446Y123302D01*
X185705Y123358D01*
X185853Y123367D01*
X186001Y123377D01*
X186084D01*
X186139Y123367D01*
D02*
G37*
G36*
X176530Y185261D02*
X173562D01*
X173488Y185270D01*
X173405D01*
X173211Y185280D01*
X173008Y185307D01*
X172786Y185335D01*
X172582Y185381D01*
X172481Y185409D01*
X172397Y185437D01*
X172388D01*
X172379Y185446D01*
X172323Y185474D01*
X172240Y185511D01*
X172138Y185576D01*
X172027Y185659D01*
X171907Y185770D01*
X171796Y185899D01*
X171685Y186047D01*
Y186056D01*
X171676Y186066D01*
X171639Y186121D01*
X171602Y186213D01*
X171547Y186334D01*
X171500Y186472D01*
X171454Y186639D01*
X171427Y186814D01*
X171417Y187009D01*
Y187018D01*
Y187036D01*
Y187073D01*
X171427Y187120D01*
Y187184D01*
X171436Y187249D01*
X171473Y187406D01*
X171528Y187591D01*
X171602Y187785D01*
X171713Y187979D01*
X171787Y188072D01*
X171861Y188164D01*
X171870Y188174D01*
X171880Y188183D01*
X171907Y188211D01*
X171944Y188238D01*
X171991Y188275D01*
X172046Y188312D01*
X172120Y188358D01*
X172194Y188414D01*
X172286Y188460D01*
X172388Y188506D01*
X172499Y188562D01*
X172619Y188608D01*
X172758Y188645D01*
X172897Y188691D01*
X173054Y188719D01*
X173220Y188747D01*
X173202Y188756D01*
X173165Y188775D01*
X173109Y188811D01*
X173035Y188848D01*
X172869Y188950D01*
X172786Y189015D01*
X172712Y189070D01*
X172693Y189089D01*
X172647Y189135D01*
X172573Y189209D01*
X172481Y189301D01*
X172379Y189431D01*
X172259Y189570D01*
X172138Y189736D01*
X172009Y189921D01*
X170909Y191659D01*
X171963D01*
X172804Y190328D01*
Y190319D01*
X172823Y190300D01*
X172841Y190272D01*
X172869Y190235D01*
X172934Y190134D01*
X173017Y190004D01*
X173118Y189865D01*
X173220Y189718D01*
X173322Y189579D01*
X173414Y189449D01*
X173424Y189440D01*
X173451Y189403D01*
X173498Y189348D01*
X173562Y189283D01*
X173701Y189144D01*
X173775Y189080D01*
X173849Y189024D01*
X173858Y189015D01*
X173877Y189006D01*
X173914Y188987D01*
X173969Y188959D01*
X174025Y188932D01*
X174089Y188904D01*
X174237Y188858D01*
X174246D01*
X174265Y188848D01*
X174302D01*
X174348Y188839D01*
X174413Y188830D01*
X174487D01*
X174589Y188821D01*
X175679D01*
Y191659D01*
X176530D01*
Y185261D01*
D02*
G37*
G36*
X168320Y191761D02*
X168394D01*
X168477Y191752D01*
X168570Y191733D01*
X168681Y191705D01*
X168792Y191678D01*
X168921Y191641D01*
X169050Y191594D01*
X169180Y191539D01*
X169319Y191465D01*
X169448Y191382D01*
X169577Y191289D01*
X169707Y191178D01*
X169827Y191049D01*
X169836Y191040D01*
X169855Y191012D01*
X169883Y190975D01*
X169919Y190910D01*
X169975Y190827D01*
X170021Y190735D01*
X170077Y190614D01*
X170132Y190485D01*
X170197Y190328D01*
X170252Y190152D01*
X170299Y189958D01*
X170345Y189745D01*
X170391Y189505D01*
X170419Y189246D01*
X170437Y188969D01*
X170446Y188673D01*
Y188664D01*
Y188654D01*
Y188627D01*
Y188590D01*
X170437Y188497D01*
Y188368D01*
X170428Y188220D01*
X170410Y188044D01*
X170391Y187850D01*
X170363Y187637D01*
X170326Y187425D01*
X170280Y187194D01*
X170225Y186972D01*
X170160Y186750D01*
X170077Y186537D01*
X169984Y186334D01*
X169883Y186140D01*
X169762Y185973D01*
X169753Y185964D01*
X169735Y185945D01*
X169698Y185908D01*
X169651Y185853D01*
X169596Y185797D01*
X169522Y185742D01*
X169429Y185668D01*
X169337Y185603D01*
X169226Y185539D01*
X169106Y185465D01*
X168967Y185409D01*
X168829Y185344D01*
X168671Y185298D01*
X168505Y185261D01*
X168329Y185243D01*
X168144Y185233D01*
X168070D01*
X168015Y185243D01*
X167950D01*
X167876Y185252D01*
X167701Y185289D01*
X167506Y185335D01*
X167303Y185409D01*
X167100Y185520D01*
X166998Y185585D01*
X166905Y185659D01*
X166896Y185668D01*
X166887Y185677D01*
X166859Y185705D01*
X166831Y185733D01*
X166785Y185779D01*
X166748Y185834D01*
X166646Y185964D01*
X166545Y186130D01*
X166452Y186334D01*
X166369Y186565D01*
X166314Y186824D01*
X167100Y186888D01*
Y186879D01*
X167109Y186870D01*
X167118Y186814D01*
X167146Y186731D01*
X167183Y186630D01*
X167220Y186519D01*
X167275Y186408D01*
X167340Y186306D01*
X167405Y186223D01*
X167423Y186204D01*
X167460Y186167D01*
X167525Y186112D01*
X167617Y186047D01*
X167738Y185992D01*
X167867Y185936D01*
X168024Y185899D01*
X168190Y185881D01*
X168255D01*
X168329Y185890D01*
X168412Y185908D01*
X168523Y185936D01*
X168634Y185973D01*
X168745Y186019D01*
X168856Y186093D01*
X168875Y186103D01*
X168921Y186140D01*
X168986Y186204D01*
X169069Y186297D01*
X169161Y186408D01*
X169263Y186537D01*
X169356Y186703D01*
X169448Y186888D01*
Y186898D01*
X169457Y186916D01*
X169466Y186944D01*
X169485Y186981D01*
X169494Y187036D01*
X169513Y187101D01*
X169531Y187175D01*
X169550Y187267D01*
X169577Y187369D01*
X169596Y187480D01*
X169614Y187600D01*
X169624Y187730D01*
X169642Y187878D01*
X169651Y188026D01*
X169661Y188192D01*
Y188358D01*
X169651Y188349D01*
X169614Y188294D01*
X169550Y188220D01*
X169466Y188127D01*
X169374Y188016D01*
X169254Y187915D01*
X169124Y187813D01*
X168976Y187721D01*
X168967D01*
X168958Y187711D01*
X168902Y187684D01*
X168819Y187656D01*
X168708Y187610D01*
X168579Y187573D01*
X168431Y187545D01*
X168274Y187517D01*
X168107Y187508D01*
X168033D01*
X167978Y187517D01*
X167904Y187526D01*
X167830Y187536D01*
X167738Y187554D01*
X167645Y187582D01*
X167432Y187647D01*
X167321Y187693D01*
X167211Y187757D01*
X167100Y187822D01*
X166979Y187896D01*
X166868Y187989D01*
X166767Y188090D01*
X166758Y188100D01*
X166739Y188118D01*
X166711Y188146D01*
X166684Y188192D01*
X166637Y188257D01*
X166591Y188321D01*
X166545Y188405D01*
X166489Y188497D01*
X166434Y188599D01*
X166388Y188710D01*
X166341Y188839D01*
X166295Y188969D01*
X166268Y189107D01*
X166240Y189265D01*
X166221Y189422D01*
X166212Y189588D01*
Y189597D01*
Y189616D01*
Y189644D01*
Y189690D01*
X166221Y189745D01*
Y189801D01*
X166249Y189949D01*
X166277Y190124D01*
X166323Y190309D01*
X166388Y190513D01*
X166480Y190707D01*
Y190716D01*
X166489Y190725D01*
X166508Y190753D01*
X166526Y190790D01*
X166582Y190882D01*
X166665Y191003D01*
X166767Y191132D01*
X166887Y191262D01*
X167035Y191391D01*
X167192Y191502D01*
X167201D01*
X167211Y191511D01*
X167238Y191530D01*
X167275Y191539D01*
X167368Y191585D01*
X167488Y191631D01*
X167645Y191687D01*
X167821Y191724D01*
X168015Y191761D01*
X168228Y191770D01*
X168274D01*
X168320Y191761D01*
D02*
G37*
G36*
X186848Y159365D02*
X186839Y159356D01*
X186820Y159337D01*
X186783Y159300D01*
X186746Y159245D01*
X186691Y159180D01*
X186617Y159106D01*
X186543Y159014D01*
X186460Y158903D01*
X186376Y158792D01*
X186275Y158663D01*
X186173Y158515D01*
X186071Y158367D01*
X185960Y158200D01*
X185849Y158025D01*
X185739Y157830D01*
X185627Y157636D01*
X185618Y157627D01*
X185600Y157590D01*
X185572Y157535D01*
X185526Y157451D01*
X185480Y157350D01*
X185424Y157239D01*
X185359Y157109D01*
X185295Y156961D01*
X185221Y156795D01*
X185138Y156629D01*
X185064Y156444D01*
X184990Y156249D01*
X184842Y155852D01*
X184703Y155427D01*
Y155417D01*
X184694Y155390D01*
X184685Y155343D01*
X184666Y155288D01*
X184648Y155214D01*
X184629Y155121D01*
X184601Y155020D01*
X184583Y154909D01*
X184555Y154779D01*
X184527Y154641D01*
X184481Y154345D01*
X184435Y154021D01*
X184407Y153670D01*
X183603D01*
Y153679D01*
Y153707D01*
Y153744D01*
X183612Y153799D01*
Y153873D01*
X183621Y153966D01*
X183631Y154067D01*
X183640Y154178D01*
X183658Y154308D01*
X183677Y154437D01*
X183704Y154594D01*
X183732Y154752D01*
X183760Y154918D01*
X183797Y155103D01*
X183889Y155482D01*
Y155491D01*
X183899Y155528D01*
X183917Y155584D01*
X183945Y155667D01*
X183973Y155759D01*
X184010Y155870D01*
X184046Y156000D01*
X184102Y156138D01*
X184158Y156296D01*
X184213Y156453D01*
X184352Y156804D01*
X184518Y157174D01*
X184703Y157544D01*
X184712Y157553D01*
X184731Y157590D01*
X184758Y157636D01*
X184795Y157710D01*
X184842Y157793D01*
X184906Y157895D01*
X184971Y158006D01*
X185045Y158126D01*
X185221Y158394D01*
X185406Y158672D01*
X185618Y158958D01*
X185840Y159227D01*
X182706D01*
Y159985D01*
X186848D01*
Y159365D01*
D02*
G37*
G36*
X179572Y160059D02*
X179655D01*
X179849Y160049D01*
X180052Y160022D01*
X180274Y159994D01*
X180478Y159948D01*
X180579Y159920D01*
X180663Y159892D01*
X180672D01*
X180681Y159883D01*
X180737Y159855D01*
X180820Y159818D01*
X180921Y159754D01*
X181033Y159670D01*
X181153Y159559D01*
X181264Y159430D01*
X181375Y159282D01*
Y159273D01*
X181384Y159263D01*
X181421Y159208D01*
X181458Y159115D01*
X181513Y158995D01*
X181560Y158857D01*
X181606Y158690D01*
X181633Y158515D01*
X181643Y158320D01*
Y158311D01*
Y158293D01*
Y158256D01*
X181633Y158209D01*
Y158145D01*
X181624Y158080D01*
X181587Y157923D01*
X181532Y157738D01*
X181458Y157544D01*
X181347Y157350D01*
X181273Y157257D01*
X181199Y157165D01*
X181190Y157156D01*
X181180Y157146D01*
X181153Y157119D01*
X181116Y157091D01*
X181070Y157054D01*
X181014Y157017D01*
X180940Y156971D01*
X180866Y156915D01*
X180774Y156869D01*
X180672Y156823D01*
X180561Y156767D01*
X180441Y156721D01*
X180302Y156684D01*
X180163Y156638D01*
X180006Y156610D01*
X179840Y156582D01*
X179858Y156573D01*
X179895Y156554D01*
X179951Y156517D01*
X180025Y156481D01*
X180191Y156379D01*
X180274Y156314D01*
X180348Y156259D01*
X180367Y156240D01*
X180413Y156194D01*
X180487Y156120D01*
X180579Y156027D01*
X180681Y155898D01*
X180801Y155759D01*
X180921Y155593D01*
X181051Y155408D01*
X182151Y153670D01*
X181097D01*
X180256Y155001D01*
Y155010D01*
X180237Y155029D01*
X180219Y155057D01*
X180191Y155094D01*
X180126Y155195D01*
X180043Y155325D01*
X179942Y155463D01*
X179840Y155611D01*
X179738Y155750D01*
X179646Y155880D01*
X179636Y155889D01*
X179609Y155926D01*
X179562Y155981D01*
X179498Y156046D01*
X179359Y156185D01*
X179285Y156249D01*
X179211Y156305D01*
X179202Y156314D01*
X179183Y156323D01*
X179146Y156342D01*
X179091Y156370D01*
X179035Y156397D01*
X178971Y156425D01*
X178823Y156471D01*
X178813D01*
X178795Y156481D01*
X178758D01*
X178712Y156490D01*
X178647Y156499D01*
X178573D01*
X178471Y156508D01*
X177381D01*
Y153670D01*
X176530D01*
Y160068D01*
X179498D01*
X179572Y160059D01*
D02*
G37*
G36*
X303429Y396837D02*
X300868D01*
X300526Y395108D01*
X300535Y395117D01*
X300554Y395126D01*
X300581Y395145D01*
X300628Y395173D01*
X300683Y395200D01*
X300748Y395237D01*
X300896Y395311D01*
X301081Y395385D01*
X301284Y395450D01*
X301506Y395496D01*
X301617Y395515D01*
X301820D01*
X301876Y395505D01*
X301950Y395496D01*
X302033Y395487D01*
X302125Y395468D01*
X302227Y395441D01*
X302449Y395376D01*
X302569Y395330D01*
X302689Y395265D01*
X302810Y395200D01*
X302930Y395126D01*
X303041Y395034D01*
X303152Y394932D01*
X303161Y394923D01*
X303179Y394904D01*
X303207Y394877D01*
X303244Y394830D01*
X303290Y394766D01*
X303337Y394701D01*
X303392Y394618D01*
X303448Y394525D01*
X303494Y394424D01*
X303549Y394313D01*
X303596Y394183D01*
X303642Y394054D01*
X303679Y393915D01*
X303706Y393758D01*
X303725Y393601D01*
X303734Y393434D01*
Y393425D01*
Y393397D01*
Y393351D01*
X303725Y393286D01*
X303716Y393212D01*
X303706Y393129D01*
X303688Y393027D01*
X303669Y392926D01*
X303614Y392685D01*
X303521Y392436D01*
X303466Y392306D01*
X303392Y392186D01*
X303318Y392057D01*
X303226Y391936D01*
X303216Y391927D01*
X303198Y391899D01*
X303161Y391862D01*
X303115Y391816D01*
X303050Y391761D01*
X302976Y391687D01*
X302884Y391622D01*
X302782Y391548D01*
X302671Y391474D01*
X302542Y391409D01*
X302403Y391345D01*
X302255Y391280D01*
X302098Y391234D01*
X301922Y391197D01*
X301737Y391169D01*
X301543Y391160D01*
X301460D01*
X301395Y391169D01*
X301321Y391178D01*
X301238Y391188D01*
X301136Y391197D01*
X301035Y391225D01*
X300803Y391280D01*
X300572Y391363D01*
X300452Y391419D01*
X300332Y391483D01*
X300221Y391557D01*
X300110Y391641D01*
X300101Y391650D01*
X300082Y391659D01*
X300064Y391696D01*
X300027Y391733D01*
X299981Y391779D01*
X299934Y391835D01*
X299879Y391909D01*
X299832Y391992D01*
X299777Y392075D01*
X299722Y392177D01*
X299620Y392399D01*
X299537Y392658D01*
X299509Y392796D01*
X299491Y392944D01*
X300313Y393009D01*
Y393000D01*
Y392981D01*
X300323Y392953D01*
X300332Y392907D01*
X300359Y392806D01*
X300396Y392667D01*
X300452Y392528D01*
X300526Y392371D01*
X300618Y392232D01*
X300729Y392103D01*
X300748Y392094D01*
X300785Y392057D01*
X300859Y392010D01*
X300961Y391955D01*
X301071Y391899D01*
X301210Y391853D01*
X301367Y391816D01*
X301543Y391807D01*
X301598D01*
X301635Y391816D01*
X301746Y391826D01*
X301876Y391862D01*
X302033Y391909D01*
X302190Y391983D01*
X302357Y392094D01*
X302431Y392158D01*
X302505Y392232D01*
X302514Y392242D01*
X302523Y392251D01*
X302542Y392279D01*
X302569Y392306D01*
X302634Y392408D01*
X302708Y392537D01*
X302773Y392695D01*
X302837Y392889D01*
X302884Y393120D01*
X302902Y393240D01*
Y393370D01*
Y393379D01*
Y393397D01*
Y393434D01*
X302893Y393480D01*
Y393536D01*
X302884Y393601D01*
X302856Y393749D01*
X302810Y393924D01*
X302745Y394100D01*
X302652Y394266D01*
X302523Y394424D01*
Y394433D01*
X302505Y394442D01*
X302458Y394488D01*
X302375Y394553D01*
X302264Y394627D01*
X302116Y394692D01*
X301950Y394756D01*
X301756Y394803D01*
X301645Y394821D01*
X301469D01*
X301395Y394812D01*
X301303Y394803D01*
X301192Y394775D01*
X301081Y394747D01*
X300961Y394701D01*
X300840Y394646D01*
X300831Y394636D01*
X300794Y394618D01*
X300739Y394571D01*
X300665Y394525D01*
X300591Y394461D01*
X300517Y394377D01*
X300434Y394294D01*
X300369Y394192D01*
X299629Y394294D01*
X300249Y397586D01*
X303429D01*
Y396837D01*
D02*
G37*
G36*
X296412Y397659D02*
X296495D01*
X296689Y397650D01*
X296892Y397622D01*
X297114Y397595D01*
X297318Y397549D01*
X297419Y397521D01*
X297503Y397493D01*
X297512D01*
X297521Y397484D01*
X297577Y397456D01*
X297660Y397419D01*
X297761Y397354D01*
X297873Y397271D01*
X297993Y397160D01*
X298104Y397031D01*
X298215Y396883D01*
Y396874D01*
X298224Y396864D01*
X298261Y396809D01*
X298298Y396716D01*
X298353Y396596D01*
X298400Y396458D01*
X298446Y396291D01*
X298473Y396115D01*
X298483Y395921D01*
Y395912D01*
Y395894D01*
Y395857D01*
X298473Y395810D01*
Y395746D01*
X298464Y395681D01*
X298427Y395524D01*
X298372Y395339D01*
X298298Y395145D01*
X298187Y394951D01*
X298113Y394858D01*
X298039Y394766D01*
X298030Y394756D01*
X298020Y394747D01*
X297993Y394719D01*
X297956Y394692D01*
X297910Y394655D01*
X297854Y394618D01*
X297780Y394571D01*
X297706Y394516D01*
X297614Y394470D01*
X297512Y394424D01*
X297401Y394368D01*
X297281Y394322D01*
X297142Y394285D01*
X297003Y394239D01*
X296846Y394211D01*
X296680Y394183D01*
X296698Y394174D01*
X296735Y394155D01*
X296791Y394118D01*
X296865Y394081D01*
X297031Y393980D01*
X297114Y393915D01*
X297188Y393860D01*
X297207Y393841D01*
X297253Y393795D01*
X297327Y393721D01*
X297419Y393628D01*
X297521Y393499D01*
X297641Y393360D01*
X297761Y393194D01*
X297891Y393009D01*
X298991Y391271D01*
X297937D01*
X297096Y392602D01*
Y392611D01*
X297077Y392630D01*
X297059Y392658D01*
X297031Y392695D01*
X296966Y392796D01*
X296883Y392926D01*
X296782Y393064D01*
X296680Y393212D01*
X296578Y393351D01*
X296486Y393480D01*
X296476Y393490D01*
X296449Y393527D01*
X296402Y393582D01*
X296338Y393647D01*
X296199Y393786D01*
X296125Y393850D01*
X296051Y393906D01*
X296042Y393915D01*
X296023Y393924D01*
X295986Y393943D01*
X295931Y393970D01*
X295875Y393998D01*
X295811Y394026D01*
X295663Y394072D01*
X295653D01*
X295635Y394081D01*
X295598D01*
X295552Y394091D01*
X295487Y394100D01*
X295413D01*
X295311Y394109D01*
X294221D01*
Y391271D01*
X293370D01*
Y397669D01*
X296338D01*
X296412Y397659D01*
D02*
G37*
G36*
X280670Y617893D02*
X275668D01*
X275678Y617884D01*
X275714Y617838D01*
X275770Y617782D01*
X275835Y617690D01*
X275918Y617588D01*
X276010Y617459D01*
X276112Y617311D01*
X276214Y617144D01*
Y617135D01*
X276223Y617126D01*
X276260Y617070D01*
X276306Y616978D01*
X276362Y616867D01*
X276426Y616738D01*
X276491Y616599D01*
X276556Y616460D01*
X276611Y616321D01*
X275853D01*
Y616331D01*
X275835Y616349D01*
X275825Y616386D01*
X275798Y616432D01*
X275770Y616488D01*
X275733Y616553D01*
X275641Y616710D01*
X275539Y616895D01*
X275409Y617080D01*
X275261Y617274D01*
X275104Y617468D01*
X275095Y617477D01*
X275086Y617486D01*
X275058Y617514D01*
X275030Y617551D01*
X274938Y617634D01*
X274827Y617745D01*
X274697Y617856D01*
X274550Y617976D01*
X274402Y618078D01*
X274244Y618171D01*
Y618679D01*
X280670D01*
Y617893D01*
D02*
G37*
G36*
Y614167D02*
X279339Y613326D01*
X279329D01*
X279311Y613307D01*
X279283Y613289D01*
X279246Y613261D01*
X279145Y613196D01*
X279015Y613113D01*
X278876Y613012D01*
X278729Y612910D01*
X278590Y612808D01*
X278460Y612716D01*
X278451Y612706D01*
X278414Y612679D01*
X278359Y612632D01*
X278294Y612568D01*
X278155Y612429D01*
X278091Y612355D01*
X278035Y612281D01*
X278026Y612272D01*
X278017Y612253D01*
X277998Y612216D01*
X277970Y612161D01*
X277943Y612105D01*
X277915Y612041D01*
X277869Y611893D01*
Y611884D01*
X277859Y611865D01*
Y611828D01*
X277850Y611782D01*
X277841Y611717D01*
Y611643D01*
X277832Y611541D01*
Y610451D01*
X280670D01*
Y609600D01*
X274272D01*
Y612568D01*
X274281Y612642D01*
Y612725D01*
X274291Y612919D01*
X274318Y613122D01*
X274346Y613344D01*
X274392Y613548D01*
X274420Y613649D01*
X274448Y613733D01*
Y613742D01*
X274457Y613751D01*
X274485Y613807D01*
X274522Y613890D01*
X274587Y613992D01*
X274670Y614103D01*
X274781Y614223D01*
X274910Y614334D01*
X275058Y614445D01*
X275067D01*
X275077Y614454D01*
X275132Y614491D01*
X275224Y614528D01*
X275345Y614583D01*
X275483Y614630D01*
X275650Y614676D01*
X275825Y614703D01*
X276019Y614713D01*
X276029D01*
X276047D01*
X276084D01*
X276131Y614703D01*
X276195D01*
X276260Y614694D01*
X276417Y614657D01*
X276602Y614602D01*
X276796Y614528D01*
X276990Y614417D01*
X277083Y614343D01*
X277175Y614269D01*
X277185Y614260D01*
X277194Y614250D01*
X277222Y614223D01*
X277249Y614186D01*
X277286Y614140D01*
X277323Y614084D01*
X277369Y614010D01*
X277425Y613936D01*
X277471Y613844D01*
X277517Y613742D01*
X277573Y613631D01*
X277619Y613511D01*
X277656Y613372D01*
X277702Y613233D01*
X277730Y613076D01*
X277758Y612910D01*
X277767Y612928D01*
X277785Y612965D01*
X277822Y613021D01*
X277859Y613095D01*
X277961Y613261D01*
X278026Y613344D01*
X278081Y613418D01*
X278100Y613437D01*
X278146Y613483D01*
X278220Y613557D01*
X278312Y613649D01*
X278442Y613751D01*
X278581Y613871D01*
X278747Y613992D01*
X278932Y614121D01*
X280670Y615221D01*
Y614167D01*
D02*
G37*
G36*
X337532Y194301D02*
X337625D01*
X337717Y194292D01*
X337838Y194282D01*
X337958Y194264D01*
X338226Y194218D01*
X338522Y194153D01*
X338818Y194060D01*
X339104Y193931D01*
X339113Y193922D01*
X339141Y193913D01*
X339178Y193894D01*
X339224Y193857D01*
X339289Y193820D01*
X339363Y193774D01*
X339529Y193654D01*
X339714Y193496D01*
X339899Y193312D01*
X340084Y193099D01*
X340241Y192849D01*
X340251Y192840D01*
X340260Y192812D01*
X340278Y192775D01*
X340306Y192729D01*
X340334Y192655D01*
X340362Y192581D01*
X340399Y192489D01*
X340436Y192387D01*
X340472Y192276D01*
X340509Y192156D01*
X340565Y191897D01*
X340611Y191601D01*
X340630Y191296D01*
Y191204D01*
X340620Y191139D01*
X340611Y191056D01*
X340602Y190954D01*
X340593Y190852D01*
X340565Y190732D01*
X340509Y190482D01*
X340426Y190205D01*
X340371Y190066D01*
X340306Y189937D01*
X340223Y189807D01*
X340140Y189678D01*
X340131Y189669D01*
X340121Y189650D01*
X340093Y189613D01*
X340047Y189567D01*
X340001Y189521D01*
X339936Y189456D01*
X339862Y189391D01*
X339788Y189317D01*
X339696Y189244D01*
X339585Y189170D01*
X339474Y189086D01*
X339354Y189012D01*
X339215Y188948D01*
X339076Y188874D01*
X338928Y188818D01*
X338762Y188763D01*
X338568Y189595D01*
X338577D01*
X338596Y189604D01*
X338633Y189623D01*
X338679Y189641D01*
X338734Y189660D01*
X338808Y189687D01*
X338956Y189761D01*
X339123Y189854D01*
X339289Y189965D01*
X339446Y190103D01*
X339585Y190251D01*
X339604Y190270D01*
X339640Y190325D01*
X339687Y190418D01*
X339751Y190538D01*
X339807Y190695D01*
X339862Y190871D01*
X339899Y191083D01*
X339909Y191315D01*
Y191388D01*
X339899Y191435D01*
Y191499D01*
X339890Y191573D01*
X339862Y191749D01*
X339825Y191943D01*
X339761Y192147D01*
X339668Y192359D01*
X339548Y192553D01*
Y192563D01*
X339529Y192572D01*
X339483Y192637D01*
X339409Y192720D01*
X339298Y192822D01*
X339160Y192942D01*
X339002Y193053D01*
X338808Y193154D01*
X338596Y193247D01*
X338586D01*
X338568Y193256D01*
X338540Y193265D01*
X338494Y193275D01*
X338438Y193293D01*
X338374Y193312D01*
X338217Y193339D01*
X338032Y193376D01*
X337828Y193413D01*
X337606Y193432D01*
X337366Y193441D01*
X337357D01*
X337329D01*
X337283D01*
X337227D01*
X337163Y193432D01*
X337079D01*
X336987Y193423D01*
X336885Y193413D01*
X336663Y193386D01*
X336423Y193339D01*
X336183Y193284D01*
X335942Y193210D01*
X335933D01*
X335914Y193201D01*
X335887Y193182D01*
X335840Y193164D01*
X335730Y193108D01*
X335600Y193025D01*
X335452Y192923D01*
X335295Y192794D01*
X335156Y192646D01*
X335027Y192470D01*
Y192461D01*
X335018Y192442D01*
X334999Y192415D01*
X334981Y192378D01*
X334962Y192332D01*
X334934Y192276D01*
X334879Y192147D01*
X334823Y191980D01*
X334777Y191795D01*
X334740Y191592D01*
X334731Y191379D01*
Y191315D01*
X334740Y191259D01*
Y191194D01*
X334749Y191130D01*
X334786Y190963D01*
X334833Y190769D01*
X334907Y190575D01*
X335008Y190371D01*
X335064Y190270D01*
X335138Y190177D01*
X335147Y190168D01*
X335156Y190159D01*
X335184Y190131D01*
X335212Y190094D01*
X335258Y190057D01*
X335313Y190011D01*
X335369Y189955D01*
X335443Y189909D01*
X335526Y189854D01*
X335619Y189789D01*
X335711Y189734D01*
X335822Y189678D01*
X335942Y189632D01*
X336072Y189586D01*
X336210Y189539D01*
X336358Y189502D01*
X336146Y188652D01*
X336136D01*
X336099Y188661D01*
X336044Y188680D01*
X335970Y188707D01*
X335887Y188735D01*
X335785Y188772D01*
X335674Y188818D01*
X335554Y188874D01*
X335295Y189003D01*
X335036Y189170D01*
X334907Y189271D01*
X334777Y189373D01*
X334666Y189484D01*
X334555Y189613D01*
X334546Y189623D01*
X334528Y189641D01*
X334509Y189687D01*
X334472Y189734D01*
X334426Y189807D01*
X334380Y189881D01*
X334333Y189983D01*
X334287Y190085D01*
X334232Y190205D01*
X334185Y190334D01*
X334139Y190473D01*
X334093Y190621D01*
X334056Y190778D01*
X334038Y190945D01*
X334019Y191120D01*
X334010Y191305D01*
Y191407D01*
X334019Y191481D01*
Y191564D01*
X334028Y191666D01*
X334047Y191777D01*
X334065Y191906D01*
X334112Y192174D01*
X334185Y192452D01*
X334287Y192729D01*
X334352Y192859D01*
X334426Y192988D01*
X334435Y192997D01*
X334444Y193016D01*
X334472Y193053D01*
X334509Y193090D01*
X334546Y193145D01*
X334602Y193210D01*
X334666Y193284D01*
X334740Y193358D01*
X334823Y193432D01*
X334907Y193515D01*
X335119Y193681D01*
X335369Y193839D01*
X335646Y193977D01*
X335656D01*
X335683Y193996D01*
X335730Y194005D01*
X335785Y194033D01*
X335859Y194051D01*
X335951Y194079D01*
X336053Y194116D01*
X336164Y194144D01*
X336284Y194171D01*
X336423Y194208D01*
X336710Y194255D01*
X337033Y194292D01*
X337366Y194310D01*
X337375D01*
X337412D01*
X337468D01*
X337532Y194301D01*
D02*
G37*
G36*
X338938Y187320D02*
X338956Y187302D01*
X338965Y187265D01*
X338993Y187219D01*
X339021Y187163D01*
X339058Y187099D01*
X339150Y186941D01*
X339252Y186756D01*
X339382Y186572D01*
X339529Y186377D01*
X339687Y186183D01*
X339696Y186174D01*
X339705Y186165D01*
X339733Y186137D01*
X339761Y186100D01*
X339853Y186017D01*
X339964Y185906D01*
X340093Y185795D01*
X340241Y185675D01*
X340389Y185573D01*
X340546Y185480D01*
Y184972D01*
X334121D01*
Y185758D01*
X339123D01*
X339113Y185767D01*
X339076Y185813D01*
X339021Y185869D01*
X338956Y185961D01*
X338873Y186063D01*
X338781Y186192D01*
X338679Y186340D01*
X338577Y186507D01*
Y186516D01*
X338568Y186525D01*
X338531Y186581D01*
X338485Y186673D01*
X338429Y186784D01*
X338365Y186914D01*
X338300Y187052D01*
X338235Y187191D01*
X338180Y187330D01*
X338938D01*
Y187320D01*
D02*
G37*
G36*
X276572Y205731D02*
X276665D01*
X276757Y205722D01*
X276878Y205712D01*
X276998Y205694D01*
X277266Y205648D01*
X277562Y205583D01*
X277858Y205490D01*
X278144Y205361D01*
X278153Y205352D01*
X278181Y205343D01*
X278218Y205324D01*
X278264Y205287D01*
X278329Y205250D01*
X278403Y205204D01*
X278570Y205084D01*
X278754Y204926D01*
X278939Y204742D01*
X279124Y204529D01*
X279281Y204279D01*
X279291Y204270D01*
X279300Y204242D01*
X279318Y204205D01*
X279346Y204159D01*
X279374Y204085D01*
X279402Y204011D01*
X279439Y203919D01*
X279476Y203817D01*
X279513Y203706D01*
X279550Y203586D01*
X279605Y203327D01*
X279651Y203031D01*
X279670Y202726D01*
Y202634D01*
X279660Y202569D01*
X279651Y202486D01*
X279642Y202384D01*
X279633Y202282D01*
X279605Y202162D01*
X279550Y201912D01*
X279466Y201635D01*
X279411Y201496D01*
X279346Y201367D01*
X279263Y201238D01*
X279180Y201108D01*
X279170Y201099D01*
X279161Y201080D01*
X279133Y201043D01*
X279087Y200997D01*
X279041Y200951D01*
X278976Y200886D01*
X278902Y200821D01*
X278828Y200748D01*
X278736Y200674D01*
X278625Y200599D01*
X278514Y200516D01*
X278394Y200442D01*
X278255Y200378D01*
X278116Y200304D01*
X277969Y200248D01*
X277802Y200193D01*
X277608Y201025D01*
X277617D01*
X277636Y201034D01*
X277673Y201053D01*
X277719Y201071D01*
X277774Y201089D01*
X277848Y201117D01*
X277996Y201191D01*
X278163Y201284D01*
X278329Y201395D01*
X278486Y201533D01*
X278625Y201681D01*
X278643Y201700D01*
X278680Y201755D01*
X278727Y201848D01*
X278791Y201968D01*
X278847Y202125D01*
X278902Y202301D01*
X278939Y202513D01*
X278949Y202745D01*
Y202819D01*
X278939Y202865D01*
Y202929D01*
X278930Y203003D01*
X278902Y203179D01*
X278865Y203373D01*
X278801Y203577D01*
X278708Y203789D01*
X278588Y203983D01*
Y203993D01*
X278570Y204002D01*
X278523Y204067D01*
X278449Y204150D01*
X278338Y204251D01*
X278200Y204372D01*
X278043Y204483D01*
X277848Y204584D01*
X277636Y204677D01*
X277626D01*
X277608Y204686D01*
X277580Y204695D01*
X277534Y204705D01*
X277479Y204723D01*
X277414Y204742D01*
X277257Y204769D01*
X277072Y204806D01*
X276868Y204843D01*
X276646Y204862D01*
X276406Y204871D01*
X276397D01*
X276369D01*
X276323D01*
X276267D01*
X276203Y204862D01*
X276119D01*
X276027Y204853D01*
X275925Y204843D01*
X275703Y204816D01*
X275463Y204769D01*
X275223Y204714D01*
X274982Y204640D01*
X274973D01*
X274954Y204631D01*
X274927Y204612D01*
X274881Y204594D01*
X274770Y204538D01*
X274640Y204455D01*
X274492Y204353D01*
X274335Y204224D01*
X274196Y204076D01*
X274067Y203900D01*
Y203891D01*
X274058Y203873D01*
X274039Y203845D01*
X274021Y203808D01*
X274002Y203762D01*
X273974Y203706D01*
X273919Y203577D01*
X273864Y203410D01*
X273817Y203225D01*
X273780Y203022D01*
X273771Y202809D01*
Y202745D01*
X273780Y202689D01*
Y202624D01*
X273790Y202560D01*
X273827Y202393D01*
X273873Y202199D01*
X273947Y202005D01*
X274048Y201801D01*
X274104Y201700D01*
X274178Y201607D01*
X274187Y201598D01*
X274196Y201589D01*
X274224Y201561D01*
X274252Y201524D01*
X274298Y201487D01*
X274354Y201441D01*
X274409Y201385D01*
X274483Y201339D01*
X274566Y201284D01*
X274659Y201219D01*
X274751Y201164D01*
X274862Y201108D01*
X274982Y201062D01*
X275112Y201016D01*
X275250Y200969D01*
X275398Y200932D01*
X275186Y200082D01*
X275176D01*
X275139Y200091D01*
X275084Y200110D01*
X275010Y200137D01*
X274927Y200165D01*
X274825Y200202D01*
X274714Y200248D01*
X274594Y200304D01*
X274335Y200433D01*
X274076Y200599D01*
X273947Y200701D01*
X273817Y200803D01*
X273706Y200914D01*
X273595Y201043D01*
X273586Y201053D01*
X273568Y201071D01*
X273549Y201117D01*
X273512Y201164D01*
X273466Y201238D01*
X273420Y201311D01*
X273374Y201413D01*
X273327Y201515D01*
X273272Y201635D01*
X273225Y201765D01*
X273179Y201903D01*
X273133Y202051D01*
X273096Y202208D01*
X273078Y202375D01*
X273059Y202550D01*
X273050Y202735D01*
Y202837D01*
X273059Y202911D01*
Y202994D01*
X273068Y203096D01*
X273087Y203207D01*
X273105Y203336D01*
X273152Y203604D01*
X273225Y203882D01*
X273327Y204159D01*
X273392Y204289D01*
X273466Y204418D01*
X273475Y204427D01*
X273484Y204446D01*
X273512Y204483D01*
X273549Y204520D01*
X273586Y204575D01*
X273642Y204640D01*
X273706Y204714D01*
X273780Y204788D01*
X273864Y204862D01*
X273947Y204945D01*
X274159Y205111D01*
X274409Y205269D01*
X274686Y205407D01*
X274696D01*
X274723Y205426D01*
X274770Y205435D01*
X274825Y205463D01*
X274899Y205481D01*
X274991Y205509D01*
X275093Y205546D01*
X275204Y205574D01*
X275324Y205601D01*
X275463Y205638D01*
X275750Y205685D01*
X276073Y205722D01*
X276406Y205740D01*
X276415D01*
X276452D01*
X276508D01*
X276572Y205731D01*
D02*
G37*
G36*
X273337Y199462D02*
X273420Y199453D01*
X273512Y199435D01*
X273605Y199416D01*
X273706Y199379D01*
X273716D01*
X273725Y199370D01*
X273780Y199351D01*
X273864Y199314D01*
X273974Y199259D01*
X274104Y199185D01*
X274252Y199093D01*
X274400Y198991D01*
X274557Y198861D01*
X274566D01*
X274575Y198843D01*
X274631Y198797D01*
X274714Y198713D01*
X274834Y198593D01*
X274973Y198454D01*
X275139Y198279D01*
X275324Y198066D01*
X275518Y197835D01*
X275528Y197826D01*
X275555Y197789D01*
X275602Y197733D01*
X275657Y197669D01*
X275731Y197586D01*
X275814Y197484D01*
X275907Y197382D01*
X276008Y197262D01*
X276230Y197031D01*
X276452Y196800D01*
X276563Y196689D01*
X276674Y196587D01*
X276776Y196495D01*
X276878Y196420D01*
X276887D01*
X276896Y196402D01*
X276924Y196383D01*
X276961Y196365D01*
X277062Y196300D01*
X277183Y196226D01*
X277331Y196162D01*
X277488Y196097D01*
X277663Y196060D01*
X277830Y196041D01*
X277839D01*
X277848D01*
X277904Y196051D01*
X277996Y196060D01*
X278098Y196088D01*
X278227Y196125D01*
X278357Y196189D01*
X278486Y196273D01*
X278616Y196383D01*
X278634Y196402D01*
X278671Y196448D01*
X278717Y196513D01*
X278782Y196615D01*
X278838Y196744D01*
X278893Y196892D01*
X278930Y197068D01*
X278939Y197262D01*
Y197317D01*
X278930Y197354D01*
X278921Y197465D01*
X278893Y197595D01*
X278856Y197733D01*
X278791Y197891D01*
X278708Y198039D01*
X278597Y198177D01*
X278579Y198196D01*
X278533Y198233D01*
X278458Y198288D01*
X278348Y198344D01*
X278218Y198408D01*
X278052Y198464D01*
X277867Y198501D01*
X277654Y198519D01*
X277737Y199324D01*
X277747D01*
X277774Y199314D01*
X277821D01*
X277885Y199305D01*
X277959Y199287D01*
X278043Y199268D01*
X278144Y199240D01*
X278246Y199213D01*
X278468Y199139D01*
X278690Y199028D01*
X278801Y198963D01*
X278912Y198880D01*
X279013Y198797D01*
X279106Y198704D01*
X279115Y198695D01*
X279124Y198676D01*
X279152Y198649D01*
X279180Y198603D01*
X279217Y198547D01*
X279254Y198482D01*
X279300Y198408D01*
X279346Y198316D01*
X279392Y198214D01*
X279439Y198103D01*
X279476Y197983D01*
X279513Y197854D01*
X279540Y197715D01*
X279568Y197567D01*
X279577Y197410D01*
X279587Y197243D01*
Y197151D01*
X279577Y197086D01*
X279568Y197012D01*
X279559Y196920D01*
X279540Y196818D01*
X279522Y196716D01*
X279457Y196476D01*
X279365Y196236D01*
X279309Y196115D01*
X279244Y195995D01*
X279161Y195884D01*
X279069Y195783D01*
X279060Y195773D01*
X279050Y195755D01*
X279013Y195736D01*
X278976Y195699D01*
X278930Y195653D01*
X278865Y195607D01*
X278801Y195561D01*
X278717Y195505D01*
X278542Y195413D01*
X278320Y195320D01*
X278209Y195283D01*
X278079Y195265D01*
X277950Y195246D01*
X277811Y195237D01*
X277793D01*
X277747D01*
X277673Y195246D01*
X277571Y195256D01*
X277460Y195274D01*
X277331Y195311D01*
X277192Y195348D01*
X277053Y195403D01*
X277035Y195413D01*
X276989Y195431D01*
X276915Y195468D01*
X276813Y195524D01*
X276702Y195598D01*
X276563Y195690D01*
X276425Y195801D01*
X276267Y195931D01*
X276249Y195949D01*
X276193Y195995D01*
X276147Y196041D01*
X276101Y196088D01*
X276045Y196143D01*
X275972Y196217D01*
X275898Y196291D01*
X275814Y196383D01*
X275722Y196476D01*
X275620Y196587D01*
X275518Y196707D01*
X275398Y196837D01*
X275278Y196985D01*
X275149Y197132D01*
X275139Y197142D01*
X275121Y197160D01*
X275093Y197197D01*
X275056Y197243D01*
X275001Y197299D01*
X274945Y197364D01*
X274825Y197512D01*
X274686Y197669D01*
X274548Y197817D01*
X274428Y197946D01*
X274381Y198001D01*
X274335Y198048D01*
X274326Y198057D01*
X274298Y198085D01*
X274261Y198122D01*
X274206Y198168D01*
X274141Y198214D01*
X274076Y198270D01*
X273919Y198381D01*
Y195228D01*
X273161D01*
Y199472D01*
X273170D01*
X273207D01*
X273263D01*
X273337Y199462D01*
D02*
G37*
G36*
X330359Y607102D02*
X330350Y607028D01*
Y606945D01*
X330340Y606751D01*
X330312Y606548D01*
X330285Y606326D01*
X330239Y606122D01*
X330211Y606021D01*
X330183Y605937D01*
Y605928D01*
X330174Y605919D01*
X330146Y605863D01*
X330109Y605780D01*
X330044Y605678D01*
X329961Y605568D01*
X329850Y605447D01*
X329721Y605336D01*
X329573Y605225D01*
X329564D01*
X329554Y605216D01*
X329499Y605179D01*
X329407Y605142D01*
X329286Y605087D01*
X329148Y605041D01*
X328981Y604994D01*
X328806Y604967D01*
X328611Y604957D01*
X328602D01*
X328584D01*
X328547D01*
X328500Y604967D01*
X328436D01*
X328371Y604976D01*
X328214Y605013D01*
X328029Y605068D01*
X327835Y605142D01*
X327641Y605253D01*
X327548Y605327D01*
X327456Y605401D01*
X327446Y605410D01*
X327437Y605420D01*
X327409Y605447D01*
X327382Y605484D01*
X327345Y605531D01*
X327308Y605586D01*
X327262Y605660D01*
X327206Y605734D01*
X327160Y605826D01*
X327114Y605928D01*
X327058Y606039D01*
X327012Y606159D01*
X326975Y606298D01*
X326929Y606437D01*
X326901Y606594D01*
X326873Y606760D01*
X326864Y606742D01*
X326845Y606705D01*
X326809Y606649D01*
X326772Y606575D01*
X326670Y606409D01*
X326605Y606326D01*
X326550Y606252D01*
X326531Y606233D01*
X326485Y606187D01*
X326411Y606113D01*
X326318Y606021D01*
X326189Y605919D01*
X326050Y605799D01*
X325884Y605678D01*
X325699Y605549D01*
X323961Y604449D01*
Y605503D01*
X325292Y606344D01*
X325301D01*
X325320Y606363D01*
X325348Y606381D01*
X325385Y606409D01*
X325486Y606474D01*
X325616Y606557D01*
X325755Y606659D01*
X325902Y606760D01*
X326041Y606862D01*
X326171Y606954D01*
X326180Y606964D01*
X326217Y606991D01*
X326272Y607038D01*
X326337Y607102D01*
X326476Y607241D01*
X326540Y607315D01*
X326596Y607389D01*
X326605Y607398D01*
X326614Y607417D01*
X326633Y607454D01*
X326660Y607509D01*
X326688Y607565D01*
X326716Y607629D01*
X326762Y607777D01*
Y607786D01*
X326772Y607805D01*
Y607842D01*
X326781Y607888D01*
X326790Y607953D01*
Y608027D01*
X326799Y608129D01*
Y609220D01*
X323961D01*
Y610070D01*
X330359D01*
Y607102D01*
D02*
G37*
G36*
X325755Y603154D02*
X325745D01*
X325727Y603145D01*
X325690Y603136D01*
X325644Y603127D01*
X325588Y603117D01*
X325523Y603099D01*
X325385Y603053D01*
X325218Y602988D01*
X325061Y602905D01*
X324913Y602812D01*
X324784Y602701D01*
X324774Y602683D01*
X324738Y602646D01*
X324691Y602572D01*
X324645Y602479D01*
X324590Y602369D01*
X324543Y602230D01*
X324506Y602073D01*
X324497Y601906D01*
Y601851D01*
X324506Y601814D01*
X324516Y601712D01*
X324543Y601583D01*
X324590Y601435D01*
X324654Y601278D01*
X324747Y601120D01*
X324876Y600972D01*
X324895Y600954D01*
X324950Y600908D01*
X325033Y600852D01*
X325144Y600778D01*
X325283Y600704D01*
X325440Y600649D01*
X325625Y600603D01*
X325828Y600584D01*
X325838D01*
X325856D01*
X325884D01*
X325921Y600593D01*
X326023Y600603D01*
X326143Y600630D01*
X326291Y600667D01*
X326439Y600732D01*
X326587Y600825D01*
X326725Y600945D01*
X326744Y600963D01*
X326781Y601009D01*
X326836Y601083D01*
X326901Y601185D01*
X326966Y601315D01*
X327021Y601472D01*
X327058Y601647D01*
X327077Y601842D01*
Y601925D01*
X327067Y601989D01*
X327058Y602073D01*
X327040Y602165D01*
X327021Y602276D01*
X326993Y602396D01*
X327687Y602304D01*
Y602257D01*
X327678Y602221D01*
Y602100D01*
X327696Y601999D01*
X327715Y601879D01*
X327742Y601740D01*
X327789Y601583D01*
X327853Y601435D01*
X327936Y601278D01*
Y601268D01*
X327946Y601259D01*
X327983Y601213D01*
X328047Y601148D01*
X328131Y601074D01*
X328251Y601000D01*
X328390Y600935D01*
X328547Y600889D01*
X328639Y600871D01*
X328741D01*
X328750D01*
X328759D01*
X328815D01*
X328889Y600889D01*
X328990Y600908D01*
X329101Y600945D01*
X329222Y600991D01*
X329342Y601065D01*
X329453Y601167D01*
X329462Y601176D01*
X329499Y601222D01*
X329545Y601287D01*
X329601Y601370D01*
X329647Y601481D01*
X329693Y601610D01*
X329730Y601758D01*
X329739Y601925D01*
Y601999D01*
X329721Y602082D01*
X329702Y602193D01*
X329665Y602313D01*
X329619Y602433D01*
X329545Y602563D01*
X329453Y602683D01*
X329444Y602692D01*
X329397Y602729D01*
X329333Y602785D01*
X329240Y602849D01*
X329120Y602914D01*
X328972Y602979D01*
X328796Y603034D01*
X328593Y603071D01*
X328731Y603857D01*
X328741D01*
X328769Y603848D01*
X328806Y603839D01*
X328861Y603829D01*
X328926Y603811D01*
X329000Y603783D01*
X329175Y603728D01*
X329379Y603635D01*
X329582Y603524D01*
X329776Y603386D01*
X329952Y603210D01*
X329961Y603201D01*
X329971Y603182D01*
X329989Y603154D01*
X330017Y603117D01*
X330054Y603071D01*
X330091Y603006D01*
X330128Y602942D01*
X330174Y602859D01*
X330248Y602674D01*
X330322Y602461D01*
X330368Y602211D01*
X330387Y602082D01*
Y601851D01*
X330377Y601749D01*
X330359Y601629D01*
X330331Y601481D01*
X330285Y601315D01*
X330229Y601148D01*
X330155Y600982D01*
Y600972D01*
X330146Y600963D01*
X330118Y600908D01*
X330063Y600825D01*
X329998Y600732D01*
X329906Y600621D01*
X329804Y600510D01*
X329684Y600399D01*
X329545Y600307D01*
X329527Y600298D01*
X329480Y600270D01*
X329397Y600233D01*
X329296Y600187D01*
X329175Y600140D01*
X329037Y600103D01*
X328880Y600076D01*
X328722Y600066D01*
X328704D01*
X328648D01*
X328574Y600076D01*
X328473Y600094D01*
X328353Y600122D01*
X328223Y600168D01*
X328094Y600224D01*
X327964Y600298D01*
X327946Y600307D01*
X327909Y600335D01*
X327844Y600390D01*
X327770Y600464D01*
X327687Y600556D01*
X327594Y600667D01*
X327511Y600797D01*
X327428Y600954D01*
Y600945D01*
X327419Y600926D01*
X327409Y600898D01*
X327400Y600862D01*
X327363Y600760D01*
X327308Y600630D01*
X327234Y600482D01*
X327141Y600335D01*
X327021Y600196D01*
X326882Y600066D01*
X326864Y600057D01*
X326809Y600020D01*
X326716Y599965D01*
X326596Y599909D01*
X326448Y599854D01*
X326272Y599798D01*
X326069Y599761D01*
X325847Y599752D01*
X325838D01*
X325810D01*
X325764D01*
X325708Y599761D01*
X325634Y599771D01*
X325551Y599789D01*
X325459Y599808D01*
X325357Y599826D01*
X325135Y599900D01*
X325015Y599955D01*
X324904Y600011D01*
X324784Y600085D01*
X324664Y600168D01*
X324543Y600261D01*
X324432Y600371D01*
X324423Y600381D01*
X324405Y600399D01*
X324377Y600436D01*
X324340Y600482D01*
X324294Y600538D01*
X324247Y600612D01*
X324192Y600695D01*
X324146Y600797D01*
X324090Y600898D01*
X324035Y601019D01*
X323989Y601139D01*
X323942Y601278D01*
X323905Y601425D01*
X323878Y601583D01*
X323859Y601740D01*
X323850Y601916D01*
Y601999D01*
X323859Y602054D01*
X323868Y602128D01*
X323878Y602211D01*
X323896Y602304D01*
X323915Y602406D01*
X323970Y602627D01*
X324062Y602859D01*
X324118Y602979D01*
X324183Y603090D01*
X324266Y603201D01*
X324349Y603312D01*
X324358Y603321D01*
X324377Y603339D01*
X324405Y603367D01*
X324442Y603395D01*
X324488Y603441D01*
X324552Y603487D01*
X324617Y603543D01*
X324701Y603598D01*
X324793Y603654D01*
X324885Y603709D01*
X325107Y603811D01*
X325366Y603894D01*
X325505Y603922D01*
X325653Y603940D01*
X325755Y603154D01*
D02*
G37*
G36*
X302791Y449296D02*
X303660D01*
Y448575D01*
X302791D01*
Y447040D01*
X302005D01*
Y448575D01*
X299222D01*
Y449296D01*
X302153Y453438D01*
X302791D01*
Y449296D01*
D02*
G37*
G36*
X296412Y453429D02*
X296495D01*
X296689Y453419D01*
X296892Y453392D01*
X297114Y453364D01*
X297318Y453318D01*
X297419Y453290D01*
X297503Y453262D01*
X297512D01*
X297521Y453253D01*
X297577Y453225D01*
X297660Y453188D01*
X297761Y453124D01*
X297873Y453040D01*
X297993Y452929D01*
X298104Y452800D01*
X298215Y452652D01*
Y452643D01*
X298224Y452634D01*
X298261Y452578D01*
X298298Y452486D01*
X298353Y452365D01*
X298400Y452227D01*
X298446Y452060D01*
X298473Y451885D01*
X298483Y451690D01*
Y451681D01*
Y451663D01*
Y451626D01*
X298473Y451580D01*
Y451515D01*
X298464Y451450D01*
X298427Y451293D01*
X298372Y451108D01*
X298298Y450914D01*
X298187Y450720D01*
X298113Y450627D01*
X298039Y450535D01*
X298030Y450526D01*
X298020Y450516D01*
X297993Y450489D01*
X297956Y450461D01*
X297910Y450424D01*
X297854Y450387D01*
X297780Y450341D01*
X297706Y450285D01*
X297614Y450239D01*
X297512Y450193D01*
X297401Y450137D01*
X297281Y450091D01*
X297142Y450054D01*
X297003Y450008D01*
X296846Y449980D01*
X296680Y449952D01*
X296698Y449943D01*
X296735Y449925D01*
X296791Y449888D01*
X296865Y449851D01*
X297031Y449749D01*
X297114Y449684D01*
X297188Y449629D01*
X297207Y449610D01*
X297253Y449564D01*
X297327Y449490D01*
X297419Y449398D01*
X297521Y449268D01*
X297641Y449129D01*
X297761Y448963D01*
X297891Y448778D01*
X298991Y447040D01*
X297937D01*
X297096Y448371D01*
Y448381D01*
X297077Y448399D01*
X297059Y448427D01*
X297031Y448464D01*
X296966Y448565D01*
X296883Y448695D01*
X296782Y448834D01*
X296680Y448981D01*
X296578Y449120D01*
X296486Y449250D01*
X296476Y449259D01*
X296449Y449296D01*
X296402Y449351D01*
X296338Y449416D01*
X296199Y449555D01*
X296125Y449619D01*
X296051Y449675D01*
X296042Y449684D01*
X296023Y449693D01*
X295986Y449712D01*
X295931Y449740D01*
X295875Y449767D01*
X295811Y449795D01*
X295663Y449841D01*
X295653D01*
X295635Y449851D01*
X295598D01*
X295552Y449860D01*
X295487Y449869D01*
X295413D01*
X295311Y449878D01*
X294221D01*
Y447040D01*
X293370D01*
Y453438D01*
X296338D01*
X296412Y453429D01*
D02*
G37*
G36*
X245158Y606632D02*
X245149Y606558D01*
Y606475D01*
X245139Y606281D01*
X245112Y606077D01*
X245084Y605856D01*
X245038Y605652D01*
X245010Y605550D01*
X244982Y605467D01*
Y605458D01*
X244973Y605449D01*
X244945Y605393D01*
X244908Y605310D01*
X244844Y605208D01*
X244760Y605098D01*
X244649Y604977D01*
X244520Y604866D01*
X244372Y604755D01*
X244363D01*
X244354Y604746D01*
X244298Y604709D01*
X244205Y604672D01*
X244085Y604617D01*
X243947Y604571D01*
X243780Y604524D01*
X243605Y604496D01*
X243410Y604487D01*
X243401D01*
X243383D01*
X243346D01*
X243300Y604496D01*
X243235D01*
X243170Y604506D01*
X243013Y604543D01*
X242828Y604598D01*
X242634Y604672D01*
X242440Y604783D01*
X242347Y604857D01*
X242255Y604931D01*
X242246Y604940D01*
X242236Y604949D01*
X242208Y604977D01*
X242181Y605014D01*
X242144Y605061D01*
X242107Y605116D01*
X242061Y605190D01*
X242005Y605264D01*
X241959Y605356D01*
X241913Y605458D01*
X241857Y605569D01*
X241811Y605689D01*
X241774Y605828D01*
X241728Y605967D01*
X241700Y606124D01*
X241672Y606290D01*
X241663Y606272D01*
X241644Y606235D01*
X241607Y606179D01*
X241570Y606105D01*
X241469Y605939D01*
X241404Y605856D01*
X241349Y605782D01*
X241330Y605763D01*
X241284Y605717D01*
X241210Y605643D01*
X241117Y605550D01*
X240988Y605449D01*
X240849Y605329D01*
X240683Y605208D01*
X240498Y605079D01*
X238760Y603979D01*
Y605033D01*
X240091Y605874D01*
X240100D01*
X240119Y605893D01*
X240147Y605911D01*
X240184Y605939D01*
X240285Y606003D01*
X240415Y606087D01*
X240553Y606188D01*
X240701Y606290D01*
X240840Y606392D01*
X240970Y606484D01*
X240979Y606494D01*
X241016Y606521D01*
X241071Y606567D01*
X241136Y606632D01*
X241275Y606771D01*
X241339Y606845D01*
X241395Y606919D01*
X241404Y606928D01*
X241413Y606947D01*
X241432Y606984D01*
X241460Y607039D01*
X241487Y607094D01*
X241515Y607159D01*
X241561Y607307D01*
Y607316D01*
X241570Y607335D01*
Y607372D01*
X241580Y607418D01*
X241589Y607483D01*
Y607557D01*
X241598Y607659D01*
Y608750D01*
X238760D01*
Y609600D01*
X245158D01*
Y606632D01*
D02*
G37*
G36*
X238936Y603581D02*
X239019Y603572D01*
X239111Y603554D01*
X239204Y603535D01*
X239305Y603498D01*
X239315D01*
X239324Y603489D01*
X239379Y603470D01*
X239463Y603433D01*
X239573Y603378D01*
X239703Y603304D01*
X239851Y603211D01*
X239999Y603110D01*
X240156Y602980D01*
X240165D01*
X240174Y602962D01*
X240230Y602915D01*
X240313Y602832D01*
X240433Y602712D01*
X240572Y602573D01*
X240738Y602398D01*
X240923Y602185D01*
X241117Y601954D01*
X241127Y601945D01*
X241154Y601908D01*
X241201Y601852D01*
X241256Y601787D01*
X241330Y601704D01*
X241413Y601603D01*
X241506Y601501D01*
X241607Y601381D01*
X241829Y601150D01*
X242051Y600919D01*
X242162Y600807D01*
X242273Y600706D01*
X242375Y600613D01*
X242477Y600539D01*
X242486D01*
X242495Y600521D01*
X242523Y600502D01*
X242560Y600484D01*
X242661Y600419D01*
X242782Y600345D01*
X242930Y600280D01*
X243087Y600216D01*
X243263Y600179D01*
X243429Y600160D01*
X243438D01*
X243447D01*
X243503Y600170D01*
X243595Y600179D01*
X243697Y600206D01*
X243827Y600243D01*
X243956Y600308D01*
X244085Y600392D01*
X244215Y600502D01*
X244233Y600521D01*
X244270Y600567D01*
X244317Y600632D01*
X244381Y600733D01*
X244437Y600863D01*
X244492Y601011D01*
X244529Y601187D01*
X244538Y601381D01*
Y601436D01*
X244529Y601473D01*
X244520Y601584D01*
X244492Y601714D01*
X244455Y601852D01*
X244390Y602009D01*
X244307Y602157D01*
X244196Y602296D01*
X244178Y602314D01*
X244132Y602351D01*
X244058Y602407D01*
X243947Y602463D01*
X243817Y602527D01*
X243651Y602583D01*
X243466Y602620D01*
X243253Y602638D01*
X243336Y603442D01*
X243346D01*
X243373Y603433D01*
X243420D01*
X243484Y603424D01*
X243558Y603405D01*
X243641Y603387D01*
X243743Y603359D01*
X243845Y603332D01*
X244067Y603258D01*
X244289Y603147D01*
X244400Y603082D01*
X244511Y602999D01*
X244612Y602915D01*
X244705Y602823D01*
X244714Y602814D01*
X244723Y602795D01*
X244751Y602768D01*
X244779Y602721D01*
X244816Y602666D01*
X244853Y602601D01*
X244899Y602527D01*
X244945Y602435D01*
X244991Y602333D01*
X245038Y602222D01*
X245075Y602102D01*
X245112Y601973D01*
X245139Y601834D01*
X245167Y601686D01*
X245176Y601529D01*
X245186Y601362D01*
Y601270D01*
X245176Y601205D01*
X245167Y601131D01*
X245158Y601039D01*
X245139Y600937D01*
X245121Y600835D01*
X245056Y600595D01*
X244964Y600354D01*
X244908Y600234D01*
X244844Y600114D01*
X244760Y600003D01*
X244668Y599901D01*
X244659Y599892D01*
X244649Y599874D01*
X244612Y599855D01*
X244575Y599818D01*
X244529Y599772D01*
X244464Y599726D01*
X244400Y599679D01*
X244317Y599624D01*
X244141Y599532D01*
X243919Y599439D01*
X243808Y599402D01*
X243678Y599384D01*
X243549Y599365D01*
X243410Y599356D01*
X243392D01*
X243346D01*
X243272Y599365D01*
X243170Y599374D01*
X243059Y599393D01*
X242930Y599430D01*
X242791Y599467D01*
X242652Y599522D01*
X242634Y599532D01*
X242588Y599550D01*
X242514Y599587D01*
X242412Y599643D01*
X242301Y599716D01*
X242162Y599809D01*
X242024Y599920D01*
X241866Y600049D01*
X241848Y600068D01*
X241792Y600114D01*
X241746Y600160D01*
X241700Y600206D01*
X241644Y600262D01*
X241570Y600336D01*
X241497Y600410D01*
X241413Y600502D01*
X241321Y600595D01*
X241219Y600706D01*
X241117Y600826D01*
X240997Y600955D01*
X240877Y601103D01*
X240748Y601251D01*
X240738Y601260D01*
X240720Y601279D01*
X240692Y601316D01*
X240655Y601362D01*
X240600Y601418D01*
X240544Y601482D01*
X240424Y601630D01*
X240285Y601787D01*
X240147Y601936D01*
X240026Y602065D01*
X239980Y602120D01*
X239934Y602167D01*
X239925Y602176D01*
X239897Y602204D01*
X239860Y602241D01*
X239805Y602287D01*
X239740Y602333D01*
X239675Y602388D01*
X239518Y602500D01*
Y599347D01*
X238760D01*
Y603590D01*
X238769D01*
X238806D01*
X238862D01*
X238936Y603581D01*
D02*
G37*
%LPC*%
G36*
X121710Y83110D02*
X120231D01*
Y78228D01*
X121747D01*
X121812Y78237D01*
X121950Y78246D01*
X122107Y78256D01*
X122274Y78274D01*
X122440Y78302D01*
X122579Y78339D01*
X122597Y78348D01*
X122644Y78358D01*
X122708Y78385D01*
X122792Y78422D01*
X122884Y78478D01*
X122976Y78533D01*
X123069Y78598D01*
X123161Y78672D01*
X123171Y78690D01*
X123208Y78727D01*
X123263Y78792D01*
X123328Y78884D01*
X123402Y79005D01*
X123485Y79143D01*
X123559Y79300D01*
X123624Y79476D01*
Y79485D01*
X123633Y79504D01*
X123642Y79532D01*
X123651Y79569D01*
X123661Y79615D01*
X123679Y79680D01*
X123698Y79744D01*
X123716Y79818D01*
X123744Y80003D01*
X123771Y80216D01*
X123790Y80456D01*
X123799Y80715D01*
Y80724D01*
Y80761D01*
Y80808D01*
X123790Y80882D01*
Y80965D01*
X123781Y81057D01*
X123771Y81168D01*
X123762Y81279D01*
X123716Y81529D01*
X123661Y81788D01*
X123577Y82028D01*
X123522Y82148D01*
X123466Y82250D01*
Y82259D01*
X123448Y82278D01*
X123429Y82305D01*
X123411Y82342D01*
X123337Y82435D01*
X123244Y82546D01*
X123124Y82666D01*
X122986Y82786D01*
X122829Y82888D01*
X122662Y82971D01*
X122644Y82980D01*
X122597Y82990D01*
X122514Y83017D01*
X122394Y83045D01*
X122246Y83063D01*
X122061Y83091D01*
X121950Y83100D01*
X121830D01*
X121710Y83110D01*
D02*
G37*
G36*
X231560Y77982D02*
X230043D01*
X229979Y77973D01*
X229840Y77963D01*
X229683Y77954D01*
X229516Y77936D01*
X229350Y77908D01*
X229211Y77871D01*
X229193Y77862D01*
X229146Y77853D01*
X229082Y77825D01*
X228998Y77788D01*
X228906Y77732D01*
X228813Y77677D01*
X228721Y77612D01*
X228629Y77538D01*
X228619Y77520D01*
X228582Y77483D01*
X228527Y77418D01*
X228462Y77326D01*
X228388Y77205D01*
X228305Y77067D01*
X228231Y76909D01*
X228166Y76734D01*
Y76725D01*
X228157Y76706D01*
X228148Y76678D01*
X228139Y76641D01*
X228129Y76595D01*
X228111Y76530D01*
X228092Y76466D01*
X228074Y76392D01*
X228046Y76207D01*
X228018Y75994D01*
X228000Y75754D01*
X227991Y75495D01*
Y75486D01*
Y75449D01*
Y75402D01*
X228000Y75328D01*
Y75245D01*
X228009Y75153D01*
X228018Y75042D01*
X228028Y74931D01*
X228074Y74681D01*
X228129Y74422D01*
X228213Y74182D01*
X228268Y74062D01*
X228323Y73960D01*
Y73951D01*
X228342Y73932D01*
X228361Y73905D01*
X228379Y73868D01*
X228453Y73775D01*
X228545Y73664D01*
X228666Y73544D01*
X228804Y73424D01*
X228962Y73322D01*
X229128Y73239D01*
X229146Y73230D01*
X229193Y73221D01*
X229276Y73193D01*
X229396Y73165D01*
X229544Y73147D01*
X229729Y73119D01*
X229840Y73109D01*
X229960D01*
X230080Y73100D01*
X231560D01*
Y77982D01*
D02*
G37*
G36*
X180666Y122637D02*
X178650D01*
Y120520D01*
X180555D01*
X180666Y120529D01*
X180795Y120538D01*
X180943Y120547D01*
X181091Y120566D01*
X181239Y120594D01*
X181369Y120631D01*
X181387Y120640D01*
X181424Y120658D01*
X181480Y120686D01*
X181554Y120723D01*
X181637Y120779D01*
X181720Y120843D01*
X181803Y120926D01*
X181868Y121019D01*
X181877Y121028D01*
X181896Y121065D01*
X181923Y121121D01*
X181960Y121195D01*
X181988Y121278D01*
X182016Y121370D01*
X182034Y121481D01*
X182044Y121592D01*
Y121601D01*
Y121611D01*
X182034Y121666D01*
X182025Y121749D01*
X182007Y121860D01*
X181960Y121971D01*
X181905Y122101D01*
X181822Y122221D01*
X181711Y122341D01*
X181692Y122350D01*
X181646Y122387D01*
X181572Y122434D01*
X181452Y122489D01*
X181313Y122544D01*
X181128Y122591D01*
X180916Y122628D01*
X180666Y122637D01*
D02*
G37*
G36*
X186019Y122729D02*
X185945D01*
X185862Y122711D01*
X185751Y122692D01*
X185631Y122655D01*
X185501Y122609D01*
X185381Y122535D01*
X185261Y122434D01*
X185252Y122424D01*
X185215Y122387D01*
X185169Y122323D01*
X185122Y122239D01*
X185067Y122138D01*
X185021Y122017D01*
X184984Y121888D01*
X184974Y121740D01*
Y121731D01*
Y121721D01*
X184984Y121666D01*
X184993Y121583D01*
X185011Y121481D01*
X185048Y121361D01*
X185095Y121241D01*
X185169Y121111D01*
X185261Y121000D01*
X185270Y120991D01*
X185317Y120954D01*
X185381Y120908D01*
X185464Y120862D01*
X185575Y120806D01*
X185705Y120760D01*
X185853Y120723D01*
X186019Y120714D01*
X186038D01*
X186093Y120723D01*
X186176Y120732D01*
X186287Y120751D01*
X186408Y120788D01*
X186528Y120834D01*
X186657Y120908D01*
X186768Y121000D01*
X186777Y121010D01*
X186814Y121056D01*
X186861Y121111D01*
X186916Y121195D01*
X186971Y121296D01*
X187018Y121416D01*
X187055Y121555D01*
X187064Y121703D01*
Y121712D01*
Y121721D01*
Y121777D01*
X187045Y121860D01*
X187027Y121962D01*
X186990Y122073D01*
X186935Y122193D01*
X186861Y122313D01*
X186759Y122434D01*
X186750Y122443D01*
X186703Y122480D01*
X186639Y122526D01*
X186556Y122581D01*
X186444Y122637D01*
X186324Y122683D01*
X186176Y122720D01*
X186019Y122729D01*
D02*
G37*
G36*
X185991Y120076D02*
X185936D01*
X185899Y120067D01*
X185797Y120057D01*
X185668Y120030D01*
X185520Y119983D01*
X185372Y119919D01*
X185215Y119826D01*
X185076Y119706D01*
X185058Y119688D01*
X185021Y119641D01*
X184965Y119558D01*
X184900Y119456D01*
X184827Y119318D01*
X184771Y119160D01*
X184734Y118985D01*
X184716Y118791D01*
Y118772D01*
Y118735D01*
X184725Y118671D01*
X184734Y118587D01*
X184753Y118486D01*
X184780Y118375D01*
X184817Y118264D01*
X184863Y118144D01*
X184873Y118134D01*
X184891Y118088D01*
X184928Y118033D01*
X184984Y117968D01*
X185048Y117885D01*
X185132Y117801D01*
X185224Y117727D01*
X185335Y117654D01*
X185354Y117644D01*
X185390Y117626D01*
X185455Y117598D01*
X185538Y117570D01*
X185640Y117542D01*
X185760Y117515D01*
X185890Y117496D01*
X186019Y117487D01*
X186075D01*
X186112Y117496D01*
X186223Y117506D01*
X186352Y117533D01*
X186500Y117579D01*
X186657Y117635D01*
X186805Y117727D01*
X186953Y117848D01*
X186971Y117866D01*
X187008Y117912D01*
X187073Y117996D01*
X187138Y118097D01*
X187203Y118227D01*
X187267Y118384D01*
X187304Y118569D01*
X187323Y118763D01*
Y118772D01*
Y118791D01*
Y118818D01*
X187314Y118855D01*
X187304Y118957D01*
X187277Y119096D01*
X187230Y119235D01*
X187166Y119392D01*
X187073Y119549D01*
X186944Y119697D01*
X186925Y119715D01*
X186879Y119752D01*
X186796Y119817D01*
X186685Y119891D01*
X186546Y119956D01*
X186380Y120020D01*
X186195Y120057D01*
X185991Y120076D01*
D02*
G37*
G36*
X175679Y188090D02*
X173775D01*
X173664Y188081D01*
X173535Y188072D01*
X173387Y188063D01*
X173239Y188044D01*
X173091Y188016D01*
X172961Y187979D01*
X172943Y187970D01*
X172906Y187952D01*
X172850Y187924D01*
X172776Y187887D01*
X172693Y187831D01*
X172610Y187767D01*
X172527Y187684D01*
X172462Y187591D01*
X172453Y187582D01*
X172434Y187545D01*
X172407Y187489D01*
X172370Y187415D01*
X172342Y187332D01*
X172314Y187240D01*
X172296Y187129D01*
X172286Y187018D01*
Y187009D01*
Y186999D01*
X172296Y186944D01*
X172305Y186861D01*
X172323Y186750D01*
X172370Y186639D01*
X172425Y186509D01*
X172508Y186389D01*
X172619Y186269D01*
X172638Y186260D01*
X172684Y186223D01*
X172758Y186176D01*
X172878Y186121D01*
X173017Y186066D01*
X173202Y186019D01*
X173414Y185982D01*
X173664Y185973D01*
X175679D01*
Y188090D01*
D02*
G37*
G36*
X168237Y191123D02*
X168190D01*
X168154Y191114D01*
X168061Y191104D01*
X167941Y191077D01*
X167812Y191021D01*
X167663Y190956D01*
X167516Y190855D01*
X167442Y190799D01*
X167377Y190725D01*
Y190716D01*
X167358Y190707D01*
X167321Y190651D01*
X167266Y190559D01*
X167192Y190439D01*
X167127Y190282D01*
X167072Y190097D01*
X167035Y189884D01*
X167016Y189634D01*
Y189625D01*
Y189607D01*
Y189570D01*
X167026Y189523D01*
Y189468D01*
X167035Y189403D01*
X167063Y189255D01*
X167100Y189089D01*
X167164Y188913D01*
X167257Y188747D01*
X167377Y188590D01*
X167395Y188571D01*
X167442Y188525D01*
X167516Y188469D01*
X167617Y188395D01*
X167747Y188321D01*
X167895Y188266D01*
X168070Y188220D01*
X168265Y188201D01*
X168320D01*
X168357Y188211D01*
X168449Y188220D01*
X168579Y188248D01*
X168717Y188294D01*
X168875Y188368D01*
X169023Y188460D01*
X169171Y188590D01*
X169189Y188608D01*
X169226Y188654D01*
X169291Y188738D01*
X169356Y188858D01*
X169420Y188996D01*
X169485Y189172D01*
X169522Y189366D01*
X169540Y189588D01*
Y189607D01*
Y189653D01*
X169531Y189736D01*
X169522Y189838D01*
X169503Y189958D01*
X169466Y190087D01*
X169429Y190226D01*
X169374Y190365D01*
X169365Y190383D01*
X169337Y190429D01*
X169300Y190494D01*
X169244Y190577D01*
X169180Y190661D01*
X169097Y190762D01*
X169004Y190846D01*
X168893Y190929D01*
X168875Y190938D01*
X168838Y190956D01*
X168773Y190993D01*
X168690Y191021D01*
X168597Y191058D01*
X168486Y191095D01*
X168366Y191114D01*
X168237Y191123D01*
D02*
G37*
G36*
X179396Y159356D02*
X177381D01*
Y157239D01*
X179285D01*
X179396Y157248D01*
X179525Y157257D01*
X179673Y157266D01*
X179821Y157285D01*
X179969Y157313D01*
X180099Y157350D01*
X180117Y157359D01*
X180154Y157377D01*
X180210Y157405D01*
X180284Y157442D01*
X180367Y157498D01*
X180450Y157562D01*
X180533Y157646D01*
X180598Y157738D01*
X180607Y157747D01*
X180626Y157784D01*
X180653Y157840D01*
X180690Y157914D01*
X180718Y157997D01*
X180746Y158089D01*
X180764Y158200D01*
X180774Y158311D01*
Y158320D01*
Y158330D01*
X180764Y158385D01*
X180755Y158468D01*
X180737Y158579D01*
X180690Y158690D01*
X180635Y158820D01*
X180552Y158940D01*
X180441Y159060D01*
X180422Y159069D01*
X180376Y159106D01*
X180302Y159152D01*
X180182Y159208D01*
X180043Y159263D01*
X179858Y159310D01*
X179646Y159347D01*
X179396Y159356D01*
D02*
G37*
G36*
X296236Y396957D02*
X294221D01*
Y394840D01*
X296125D01*
X296236Y394849D01*
X296365Y394858D01*
X296513Y394867D01*
X296661Y394886D01*
X296809Y394914D01*
X296939Y394951D01*
X296957Y394960D01*
X296994Y394978D01*
X297050Y395006D01*
X297124Y395043D01*
X297207Y395098D01*
X297290Y395163D01*
X297373Y395246D01*
X297438Y395339D01*
X297447Y395348D01*
X297466Y395385D01*
X297493Y395441D01*
X297530Y395515D01*
X297558Y395598D01*
X297586Y395690D01*
X297604Y395801D01*
X297614Y395912D01*
Y395921D01*
Y395931D01*
X297604Y395986D01*
X297595Y396069D01*
X297577Y396180D01*
X297530Y396291D01*
X297475Y396421D01*
X297392Y396541D01*
X297281Y396661D01*
X297262Y396670D01*
X297216Y396707D01*
X297142Y396754D01*
X297022Y396809D01*
X296883Y396864D01*
X296698Y396911D01*
X296486Y396948D01*
X296236Y396957D01*
D02*
G37*
G36*
X276029Y613844D02*
X276019D01*
X276010D01*
X275955Y613834D01*
X275872Y613825D01*
X275761Y613807D01*
X275650Y613760D01*
X275520Y613705D01*
X275400Y613622D01*
X275280Y613511D01*
X275271Y613492D01*
X275234Y613446D01*
X275187Y613372D01*
X275132Y613252D01*
X275077Y613113D01*
X275030Y612928D01*
X274993Y612716D01*
X274984Y612466D01*
Y610451D01*
X277101D01*
Y612355D01*
X277092Y612466D01*
X277083Y612595D01*
X277073Y612743D01*
X277055Y612891D01*
X277027Y613039D01*
X276990Y613169D01*
X276981Y613187D01*
X276963Y613224D01*
X276935Y613280D01*
X276898Y613354D01*
X276842Y613437D01*
X276778Y613520D01*
X276695Y613603D01*
X276602Y613668D01*
X276593Y613677D01*
X276556Y613696D01*
X276500Y613723D01*
X276426Y613760D01*
X276343Y613788D01*
X276251Y613816D01*
X276140Y613834D01*
X276029Y613844D01*
D02*
G37*
G36*
X329647Y609220D02*
X327530D01*
Y607315D01*
X327539Y607204D01*
X327548Y607075D01*
X327557Y606927D01*
X327576Y606779D01*
X327604Y606631D01*
X327641Y606501D01*
X327650Y606483D01*
X327668Y606446D01*
X327696Y606390D01*
X327733Y606316D01*
X327789Y606233D01*
X327853Y606150D01*
X327936Y606067D01*
X328029Y606002D01*
X328038Y605993D01*
X328075Y605974D01*
X328131Y605947D01*
X328205Y605910D01*
X328288Y605882D01*
X328380Y605854D01*
X328491Y605836D01*
X328602Y605826D01*
X328611D01*
X328621D01*
X328676Y605836D01*
X328759Y605845D01*
X328870Y605863D01*
X328981Y605910D01*
X329111Y605965D01*
X329231Y606048D01*
X329351Y606159D01*
X329360Y606178D01*
X329397Y606224D01*
X329444Y606298D01*
X329499Y606418D01*
X329554Y606557D01*
X329601Y606742D01*
X329638Y606954D01*
X329647Y607204D01*
Y609220D01*
D02*
G37*
G36*
X302005Y452162D02*
X299990Y449296D01*
X302005D01*
Y452162D01*
D02*
G37*
G36*
X296236Y452726D02*
X294221D01*
Y450609D01*
X296125D01*
X296236Y450618D01*
X296365Y450627D01*
X296513Y450636D01*
X296661Y450655D01*
X296809Y450683D01*
X296939Y450720D01*
X296957Y450729D01*
X296994Y450747D01*
X297050Y450775D01*
X297124Y450812D01*
X297207Y450868D01*
X297290Y450932D01*
X297373Y451016D01*
X297438Y451108D01*
X297447Y451117D01*
X297466Y451154D01*
X297493Y451210D01*
X297530Y451284D01*
X297558Y451367D01*
X297586Y451459D01*
X297604Y451570D01*
X297614Y451681D01*
Y451690D01*
Y451700D01*
X297604Y451755D01*
X297595Y451838D01*
X297577Y451949D01*
X297530Y452060D01*
X297475Y452190D01*
X297392Y452310D01*
X297281Y452430D01*
X297262Y452439D01*
X297216Y452476D01*
X297142Y452523D01*
X297022Y452578D01*
X296883Y452634D01*
X296698Y452680D01*
X296486Y452717D01*
X296236Y452726D01*
D02*
G37*
G36*
X244446Y608750D02*
X242329D01*
Y606845D01*
X242338Y606734D01*
X242347Y606604D01*
X242356Y606457D01*
X242375Y606309D01*
X242403Y606161D01*
X242440Y606031D01*
X242449Y606013D01*
X242467Y605976D01*
X242495Y605920D01*
X242532Y605846D01*
X242588Y605763D01*
X242652Y605680D01*
X242736Y605597D01*
X242828Y605532D01*
X242837Y605523D01*
X242874Y605504D01*
X242930Y605476D01*
X243004Y605440D01*
X243087Y605412D01*
X243179Y605384D01*
X243290Y605366D01*
X243401Y605356D01*
X243410D01*
X243420D01*
X243475Y605366D01*
X243558Y605375D01*
X243669Y605393D01*
X243780Y605440D01*
X243910Y605495D01*
X244030Y605578D01*
X244150Y605689D01*
X244159Y605708D01*
X244196Y605754D01*
X244242Y605828D01*
X244298Y605948D01*
X244354Y606087D01*
X244400Y606272D01*
X244437Y606484D01*
X244446Y606734D01*
Y608750D01*
D02*
G37*
%LPD*%
D11*
X74250Y66920D02*
Y88020D01*
Y66920D02*
X164510D01*
Y88020D01*
X74250D02*
X164510D01*
X277540Y68190D02*
Y89290D01*
X187280D02*
X277540D01*
X187280Y68190D02*
Y89290D01*
Y68190D02*
X277540D01*
X120550Y103340D02*
Y130340D01*
Y103340D02*
X235050D01*
Y130340D01*
X120550D02*
X235050D01*
X233780Y178270D02*
Y205270D01*
X119280D02*
X233780D01*
X119280Y178270D02*
Y205270D01*
Y178270D02*
X233780D01*
X119280Y140170D02*
Y167170D01*
Y140170D02*
X233780D01*
Y167170D01*
X119280D02*
X233780D01*
X236120Y377660D02*
Y404660D01*
Y377660D02*
X350620D01*
Y404660D01*
X236120D02*
X350620D01*
X267170Y552350D02*
X294170D01*
Y666850D01*
X267170D02*
X294170D01*
X267170Y552350D02*
Y666850D01*
X308010Y239310D02*
X360010D01*
X308010Y149310D02*
Y239310D01*
Y149310D02*
X360010D01*
Y239310D01*
X259050Y237740D02*
X287050D01*
X259050Y173740D02*
Y237740D01*
Y173740D02*
X287050D01*
Y237740D01*
X310350Y667320D02*
X337350D01*
X310350Y552820D02*
Y667320D01*
Y552820D02*
X337350D01*
Y667320D01*
X236120Y433540D02*
Y460540D01*
Y433540D02*
X350620D01*
Y460540D01*
X236120D02*
X350620D01*
X225260Y666850D02*
X252260D01*
X225260Y552350D02*
Y666850D01*
Y552350D02*
X252260D01*
Y666850D01*
M02*
