G04*
G04 #@! TF.GenerationSoftware,Altium Limited,Altium Designer,24.9.1 (31)*
G04*
G04 Layer_Color=8388736*
%FSLAX44Y44*%
%MOMM*%
G71*
G04*
G04 #@! TF.SameCoordinates,615AE811-4124-4B85-86CB-A8D5F2F7F980*
G04*
G04*
G04 #@! TF.FilePolarity,Negative*
G04*
G01*
G75*
%ADD16C,1.2032*%
%ADD17C,1.2532*%
%ADD18R,1.2532X1.2532*%
%ADD19C,1.5032*%
%ADD20C,1.2500*%
%ADD21C,1.2000*%
%ADD22R,1.2000X1.2000*%
%ADD23R,1.2500X1.2500*%
%ADD24C,1.3716*%
%ADD25R,1.2500X1.2500*%
%ADD26C,1.3000*%
%ADD27R,1.3000X1.3000*%
%ADD28R,1.2000X1.2000*%
%ADD29R,1.5212X1.5212*%
%ADD30C,1.5212*%
%ADD31R,1.5212X1.5212*%
%ADD32C,1.7112*%
%ADD33R,1.7112X1.7112*%
%ADD34R,1.7032X1.7032*%
%ADD35C,1.7032*%
%ADD36C,1.4732*%
%ADD37R,1.4732X1.4732*%
D16*
X375920Y26670D02*
D03*
X30480Y709930D02*
D03*
X375920D02*
D03*
X30480Y26670D02*
D03*
D17*
X374250Y524510D02*
D03*
D18*
X324250D02*
D03*
D19*
X251460Y527930D02*
D03*
X238760Y513080D02*
D03*
X251460Y498230D02*
D03*
D20*
X323850Y560070D02*
D03*
X227800Y116840D02*
D03*
X126530Y191770D02*
D03*
X226530Y153670D02*
D03*
X343370Y391160D02*
D03*
X280670Y659600D02*
D03*
X343370Y447040D02*
D03*
X238760Y559600D02*
D03*
D21*
X157510Y77470D02*
D03*
X194280Y78740D02*
D03*
X273050Y180740D02*
D03*
D22*
X81250Y77470D02*
D03*
X270540Y78740D02*
D03*
D23*
X127800Y116840D02*
D03*
X226530Y191770D02*
D03*
X126530Y153670D02*
D03*
X243370Y391160D02*
D03*
Y447040D02*
D03*
D24*
X214630Y294640D02*
D03*
X179630D02*
D03*
D25*
X280670Y559600D02*
D03*
X323850Y660070D02*
D03*
X238760Y659600D02*
D03*
D26*
X334010Y156810D02*
D03*
D27*
Y231810D02*
D03*
D28*
X273050Y230740D02*
D03*
D29*
X173990Y541020D02*
D03*
X208280Y381000D02*
D03*
D30*
X199390Y541020D02*
D03*
X157480Y438150D02*
D03*
X182880Y381000D02*
D03*
X200660Y464820D02*
D03*
D31*
X157480Y463550D02*
D03*
X200660Y439420D02*
D03*
D32*
X93980Y470300D02*
D03*
Y420300D02*
D03*
Y445300D02*
D03*
Y495300D02*
D03*
Y520300D02*
D03*
Y595300D02*
D03*
Y545300D02*
D03*
Y570300D02*
D03*
D33*
Y620300D02*
D03*
D34*
X33020Y251460D02*
D03*
D35*
X58420D02*
D03*
X83820D02*
D03*
X109220D02*
D03*
X33020Y327660D02*
D03*
X58420D02*
D03*
X83820D02*
D03*
X109220D02*
D03*
D36*
X274828Y313690D02*
D03*
D37*
X332740D02*
D03*
M02*
