M48
;Layer_Color=9474304
;FILE_FORMAT=2:4
INCH,LZ
;TYPE=PLATED
T01F00S00C0.0276
T02F00S00C0.0295
T03F00S00C0.0315
T04F00S00C0.0319
T05F00S00C0.0340
T06F00S00C0.0354
T07F00S00C0.0380
T08F00S00C0.0394
T09F00S00C0.1260
%
T01
X006201Y00305
X007649Y0031
X010651
X01075Y007116
Y009084
X003199Y00305
X012766Y02065
X014734
T02
X008968Y0046
X008918Y00605
Y00755
X004981
Y00605
X005031Y0046
X009582Y0154
Y0176
X013519
Y0154
X01275Y02205
X01105Y022032
X0094
Y025968
X01105
X01275Y025987
T03
X01315Y006174
Y009126
X0099Y019615
X0094Y0202
X0099Y020785
T04
X0072Y015
X0082
X0079Y0173
Y0183
X0062Y01825
Y01725
X00685Y0213
X00785
T05
X007072Y0116
X00845
T06
X0013Y0099
X0023
X0033
X0043
Y0129
X0033
X0023
X0013
T07
X01082Y01235
X0131
T08
X0037Y016547
Y017531
Y018516
Y0195
Y020484
Y021469
Y022453
Y023437
Y024421
T09
X0148Y00105
X0012
Y02795
X0148
M30
