G04*
G04 #@! TF.GenerationSoftware,Altium Limited,Altium Designer,24.9.1 (31)*
G04*
G04 Layer_Physical_Order=2*
G04 Layer_Color=16711680*
%FSLAX44Y44*%
%MOMM*%
G71*
G04*
G04 #@! TF.SameCoordinates,615AE811-4124-4B85-86CB-A8D5F2F7F980*
G04*
G04*
G04 #@! TF.FilePolarity,Positive*
G04*
G01*
G75*
%ADD15C,0.2540*%
%ADD20C,1.2500*%
%ADD21C,1.2000*%
%ADD22R,1.2000X1.2000*%
%ADD23R,1.2500X1.2500*%
%ADD24C,1.3716*%
%ADD25R,1.2500X1.2500*%
%ADD26C,1.3000*%
%ADD27R,1.3000X1.3000*%
%ADD28R,1.2000X1.2000*%
%ADD36C,1.4732*%
%ADD37R,1.4732X1.4732*%
%ADD38C,1.0000*%
%ADD39C,1.0500*%
%ADD40R,1.0500X1.0500*%
%ADD41R,1.3180X1.3180*%
%ADD42C,1.3180*%
%ADD43R,1.3180X1.3180*%
%ADD44C,1.5080*%
%ADD45R,1.5080X1.5080*%
%ADD46R,1.5000X1.5000*%
%ADD47C,1.5000*%
G36*
X403860Y-1270D02*
X0D01*
Y736600D01*
X1270Y737870D01*
X1270D01*
X2119Y739140D01*
X403860D01*
Y-1270D01*
D02*
G37*
%LPC*%
G36*
X377746Y728470D02*
X374094D01*
X370512Y727757D01*
X367138Y726360D01*
X364101Y724331D01*
X361519Y721749D01*
X359490Y718712D01*
X358092Y715338D01*
X357380Y711756D01*
Y708104D01*
X358092Y704522D01*
X359490Y701148D01*
X361519Y698111D01*
X364101Y695529D01*
X367138Y693500D01*
X370512Y692103D01*
X374094Y691390D01*
X377746D01*
X381328Y692103D01*
X384702Y693500D01*
X387739Y695529D01*
X390321Y698111D01*
X392350Y701148D01*
X393747Y704522D01*
X394460Y708104D01*
Y711756D01*
X393747Y715338D01*
X392350Y718712D01*
X390321Y721749D01*
X387739Y724331D01*
X384702Y726360D01*
X381328Y727757D01*
X377746Y728470D01*
D02*
G37*
G36*
X32306D02*
X28654D01*
X25072Y727757D01*
X21698Y726360D01*
X18661Y724331D01*
X16079Y721749D01*
X14050Y718712D01*
X12652Y715338D01*
X11940Y711756D01*
Y708104D01*
X12652Y704522D01*
X14050Y701148D01*
X16079Y698111D01*
X18661Y695529D01*
X21698Y693500D01*
X25072Y692103D01*
X28654Y691390D01*
X32306D01*
X35888Y692103D01*
X39262Y693500D01*
X42299Y695529D01*
X44881Y698111D01*
X46910Y701148D01*
X48307Y704522D01*
X49020Y708104D01*
Y711756D01*
X48307Y715338D01*
X46910Y718712D01*
X44881Y721749D01*
X42299Y724331D01*
X39262Y726360D01*
X35888Y727757D01*
X32306Y728470D01*
D02*
G37*
G36*
X332640Y668860D02*
X325120D01*
Y661340D01*
X332640D01*
Y668860D01*
D02*
G37*
G36*
X322580D02*
X315060D01*
Y661340D01*
X322580D01*
Y668860D01*
D02*
G37*
G36*
X247550Y668390D02*
X240030D01*
Y660870D01*
X247550D01*
Y668390D01*
D02*
G37*
G36*
X237490D02*
X229970D01*
Y660870D01*
X237490D01*
Y668390D01*
D02*
G37*
G36*
X332640Y658800D02*
X325120D01*
Y651280D01*
X332640D01*
Y658800D01*
D02*
G37*
G36*
X322580D02*
X315060D01*
Y651280D01*
X322580D01*
Y658800D01*
D02*
G37*
G36*
X247550Y658330D02*
X240030D01*
Y650810D01*
X247550D01*
Y658330D01*
D02*
G37*
G36*
X237490D02*
X229970D01*
Y650810D01*
X237490D01*
Y658330D01*
D02*
G37*
G36*
X104060Y630380D02*
X95250D01*
Y621570D01*
X104060D01*
Y630380D01*
D02*
G37*
G36*
X92710D02*
X83900D01*
Y621570D01*
X92710D01*
Y630380D01*
D02*
G37*
G36*
X104060Y619030D02*
X95250D01*
Y610220D01*
X104060D01*
Y619030D01*
D02*
G37*
G36*
X92710D02*
X83900D01*
Y610220D01*
X92710D01*
Y619030D01*
D02*
G37*
G36*
X95307Y605380D02*
X92653D01*
X90089Y604693D01*
X87791Y603366D01*
X85914Y601489D01*
X84587Y599191D01*
X83900Y596627D01*
Y593973D01*
X84587Y591409D01*
X85914Y589111D01*
X87791Y587234D01*
X90089Y585907D01*
X92653Y585220D01*
X95307D01*
X97871Y585907D01*
X100169Y587234D01*
X102046Y589111D01*
X103373Y591409D01*
X104060Y593973D01*
Y596627D01*
X103373Y599191D01*
X102046Y601489D01*
X100169Y603366D01*
X97871Y604693D01*
X95307Y605380D01*
D02*
G37*
G36*
Y580380D02*
X92653D01*
X90089Y579693D01*
X87791Y578366D01*
X85914Y576489D01*
X84669Y574333D01*
X49748D01*
X48261Y574037D01*
X47001Y573195D01*
X45513Y571707D01*
X44671Y570447D01*
X44375Y568960D01*
Y365978D01*
X44671Y364491D01*
X45513Y363231D01*
X47001Y361743D01*
X48261Y360901D01*
X49748Y360605D01*
X106341D01*
X128195Y338751D01*
Y255345D01*
X118570D01*
X117254Y257625D01*
X115385Y259494D01*
X113095Y260816D01*
X110542Y261500D01*
X107898D01*
X105345Y260816D01*
X103055Y259494D01*
X101186Y257625D01*
X99864Y255335D01*
X99180Y252782D01*
Y250138D01*
X99864Y247585D01*
X101186Y245295D01*
X103055Y243426D01*
X105345Y242104D01*
X107898Y241420D01*
X110542D01*
X113095Y242104D01*
X115385Y243426D01*
X117254Y245295D01*
X118570Y247575D01*
X130592D01*
X132079Y247871D01*
X133339Y248713D01*
X134827Y250201D01*
X135669Y251461D01*
X135965Y252948D01*
Y340360D01*
X135669Y341847D01*
X134827Y343107D01*
X110697Y367237D01*
X109437Y368079D01*
X107950Y368375D01*
X52145D01*
Y566563D01*
X84546D01*
X84587Y566409D01*
X85914Y564111D01*
X87791Y562234D01*
X90089Y560907D01*
X92653Y560220D01*
X95307D01*
X97871Y560907D01*
X100169Y562234D01*
X102046Y564111D01*
X103373Y566409D01*
X104060Y568973D01*
Y571627D01*
X103373Y574191D01*
X102046Y576489D01*
X100169Y578366D01*
X97871Y579693D01*
X95307Y580380D01*
D02*
G37*
G36*
X325007Y568860D02*
X322693D01*
X320457Y568261D01*
X318453Y567104D01*
X316816Y565467D01*
X315659Y563463D01*
X315060Y561227D01*
Y558913D01*
X315659Y556677D01*
X316816Y554673D01*
X318453Y553036D01*
X320457Y551879D01*
X322693Y551280D01*
X325007D01*
X327243Y551879D01*
X329247Y553036D01*
X330884Y554673D01*
X332041Y556677D01*
X332640Y558913D01*
Y561227D01*
X332041Y563463D01*
X330884Y565467D01*
X329247Y567104D01*
X327243Y568261D01*
X325007Y568860D01*
D02*
G37*
G36*
X289460Y568390D02*
X271880D01*
Y550810D01*
X289460D01*
Y568390D01*
D02*
G37*
G36*
X239917D02*
X237603D01*
X235367Y567791D01*
X233363Y566634D01*
X231726Y564997D01*
X230853Y563485D01*
X200878D01*
X199391Y563189D01*
X198131Y562347D01*
X196643Y560859D01*
X195801Y559599D01*
X195505Y558112D01*
Y549320D01*
X193784Y548326D01*
X192084Y546626D01*
X190882Y544544D01*
X190260Y542222D01*
Y539818D01*
X190882Y537496D01*
X192084Y535414D01*
X193784Y533714D01*
X195866Y532512D01*
X198188Y531890D01*
X200592D01*
X202914Y532512D01*
X204996Y533714D01*
X206696Y535414D01*
X207898Y537496D01*
X208520Y539818D01*
Y542222D01*
X207898Y544544D01*
X206696Y546626D01*
X204996Y548326D01*
X203275Y549320D01*
Y555715D01*
X230853D01*
X231726Y554203D01*
X233363Y552566D01*
X235367Y551409D01*
X237603Y550810D01*
X239917D01*
X242153Y551409D01*
X244157Y552566D01*
X245794Y554203D01*
X246951Y556207D01*
X247550Y558443D01*
Y560757D01*
X246951Y562993D01*
X245794Y564997D01*
X244157Y566634D01*
X242153Y567791D01*
X239917Y568390D01*
D02*
G37*
G36*
X95307Y555380D02*
X92653D01*
X90089Y554693D01*
X87791Y553366D01*
X85914Y551489D01*
X84587Y549191D01*
X83900Y546627D01*
Y543973D01*
X84587Y541409D01*
X85914Y539111D01*
X87791Y537234D01*
X90089Y535907D01*
X92653Y535220D01*
X95307D01*
X97871Y535907D01*
X100169Y537234D01*
X102046Y539111D01*
X103373Y541409D01*
X104060Y543973D01*
Y546627D01*
X103373Y549191D01*
X102046Y551489D01*
X100169Y553366D01*
X97871Y554693D01*
X95307Y555380D01*
D02*
G37*
G36*
X183120Y550150D02*
X164860D01*
Y531890D01*
X183120D01*
Y550150D01*
D02*
G37*
G36*
X375520Y532234D02*
Y525780D01*
X381974D01*
X381509Y527517D01*
X380484Y529293D01*
X379033Y530743D01*
X377257Y531769D01*
X375520Y532234D01*
D02*
G37*
G36*
X372980D02*
X371243Y531769D01*
X369467Y530743D01*
X368017Y529293D01*
X366991Y527517D01*
X366525Y525780D01*
X372980D01*
Y532234D01*
D02*
G37*
G36*
X252650Y536970D02*
X250270D01*
X247971Y536354D01*
X245909Y535164D01*
X244226Y533481D01*
X243036Y531419D01*
X242420Y529120D01*
Y526740D01*
X243036Y524441D01*
X244226Y522379D01*
X245909Y520696D01*
X247971Y519506D01*
X250270Y518890D01*
X252650D01*
X254949Y519506D01*
X257011Y520696D01*
X258694Y522379D01*
X259884Y524441D01*
X260500Y526740D01*
Y529120D01*
X259884Y531419D01*
X258694Y533481D01*
X257011Y535164D01*
X254949Y536354D01*
X252650Y536970D01*
D02*
G37*
G36*
X381974Y523240D02*
X375520D01*
Y516786D01*
X377257Y517251D01*
X379033Y518276D01*
X380484Y519727D01*
X381509Y521503D01*
X381974Y523240D01*
D02*
G37*
G36*
X372980D02*
X366525D01*
X366991Y521503D01*
X368017Y519727D01*
X369467Y518276D01*
X371243Y517251D01*
X372980Y516786D01*
Y523240D01*
D02*
G37*
G36*
X332040Y532300D02*
X316460D01*
Y516720D01*
X332040D01*
Y532300D01*
D02*
G37*
G36*
X95307Y530380D02*
X92653D01*
X90089Y529693D01*
X87791Y528366D01*
X85914Y526489D01*
X84587Y524191D01*
X83900Y521627D01*
Y518973D01*
X84587Y516409D01*
X85914Y514111D01*
X87791Y512234D01*
X90089Y510907D01*
X92653Y510220D01*
X95307D01*
X97871Y510907D01*
X100169Y512234D01*
X102046Y514111D01*
X103373Y516409D01*
X104060Y518973D01*
Y521627D01*
X103373Y524191D01*
X102046Y526489D01*
X100169Y528366D01*
X97871Y529693D01*
X95307Y530380D01*
D02*
G37*
G36*
X239950Y522120D02*
X237570D01*
X235271Y521504D01*
X233209Y520314D01*
X231526Y518631D01*
X230336Y516569D01*
X229720Y514270D01*
Y511890D01*
X230336Y509591D01*
X231526Y507529D01*
X233209Y505846D01*
X235271Y504656D01*
X237570Y504040D01*
X239950D01*
X242249Y504656D01*
X244311Y505846D01*
X245994Y507529D01*
X247184Y509591D01*
X247800Y511890D01*
Y514270D01*
X247184Y516569D01*
X245994Y518631D01*
X244311Y520314D01*
X242249Y521504D01*
X239950Y522120D01*
D02*
G37*
G36*
X252650Y507270D02*
X250270D01*
X247971Y506654D01*
X245909Y505464D01*
X244226Y503781D01*
X243036Y501719D01*
X242420Y499420D01*
Y497040D01*
X243036Y494741D01*
X244226Y492679D01*
X245909Y490996D01*
X247971Y489806D01*
X250270Y489190D01*
X252650D01*
X254949Y489806D01*
X257011Y490996D01*
X258694Y492679D01*
X259884Y494741D01*
X260500Y497040D01*
Y499420D01*
X259884Y501719D01*
X258694Y503781D01*
X257011Y505464D01*
X254949Y506654D01*
X252650Y507270D01*
D02*
G37*
G36*
X95307Y505380D02*
X92653D01*
X90089Y504693D01*
X87791Y503366D01*
X85914Y501489D01*
X84587Y499191D01*
X83900Y496627D01*
Y493973D01*
X84587Y491409D01*
X85914Y489111D01*
X87791Y487234D01*
X90089Y485907D01*
X92653Y485220D01*
X95307D01*
X97871Y485907D01*
X100169Y487234D01*
X102046Y489111D01*
X103373Y491409D01*
X104060Y493973D01*
Y496627D01*
X103373Y499191D01*
X102046Y501489D01*
X100169Y503366D01*
X97871Y504693D01*
X95307Y505380D01*
D02*
G37*
G36*
X166610Y472680D02*
X158750D01*
Y464820D01*
X166610D01*
Y472680D01*
D02*
G37*
G36*
X156210D02*
X148350D01*
Y464820D01*
X156210D01*
Y472680D01*
D02*
G37*
G36*
X95307Y480380D02*
X92653D01*
X90089Y479693D01*
X87791Y478366D01*
X85914Y476489D01*
X84587Y474191D01*
X83900Y471627D01*
Y468973D01*
X84587Y466409D01*
X85914Y464111D01*
X87791Y462234D01*
X90089Y460907D01*
X92653Y460220D01*
X95307D01*
X97871Y460907D01*
X100169Y462234D01*
X102046Y464111D01*
X103373Y466409D01*
X104060Y468973D01*
Y471627D01*
X103373Y474191D01*
X102046Y476489D01*
X100169Y478366D01*
X97871Y479693D01*
X95307Y480380D01*
D02*
G37*
G36*
X201862Y473950D02*
X199458D01*
X197136Y473328D01*
X195054Y472126D01*
X193354Y470426D01*
X192152Y468344D01*
X191530Y466022D01*
Y463618D01*
X192152Y461296D01*
X193354Y459214D01*
X195054Y457514D01*
X197136Y456312D01*
X199458Y455690D01*
X201862D01*
X204184Y456312D01*
X206266Y457514D01*
X207966Y459214D01*
X209168Y461296D01*
X209790Y463618D01*
Y466022D01*
X209168Y468344D01*
X207966Y470426D01*
X206266Y472126D01*
X204184Y473328D01*
X201862Y473950D01*
D02*
G37*
G36*
X166610Y462280D02*
X158750D01*
Y454420D01*
X166610D01*
Y462280D01*
D02*
G37*
G36*
X156210D02*
X148350D01*
Y454420D01*
X156210D01*
Y462280D01*
D02*
G37*
G36*
X209790Y448550D02*
X201930D01*
Y440690D01*
X209790D01*
Y448550D01*
D02*
G37*
G36*
X199390D02*
X191530D01*
Y440690D01*
X199390D01*
Y448550D01*
D02*
G37*
G36*
X281827Y668390D02*
X279513D01*
X277277Y667791D01*
X275273Y666634D01*
X273636Y664997D01*
X272479Y662993D01*
X271880Y660757D01*
Y658443D01*
X272479Y656207D01*
X273636Y654203D01*
X275273Y652566D01*
X277277Y651409D01*
X279513Y650810D01*
X281827D01*
X284063Y651409D01*
X286067Y652566D01*
X287704Y654203D01*
X288861Y656207D01*
X289240Y657621D01*
X289396D01*
X290882Y657917D01*
X292092Y658725D01*
X294565Y656251D01*
Y485140D01*
X294861Y483653D01*
X295703Y482393D01*
X299513Y478583D01*
X300773Y477741D01*
X302260Y477445D01*
X338751D01*
X339485Y476711D01*
Y454947D01*
X337973Y454074D01*
X336336Y452437D01*
X335179Y450433D01*
X334580Y448197D01*
Y445883D01*
X335179Y443647D01*
X336336Y441643D01*
X337973Y440006D01*
X339977Y438849D01*
X342213Y438250D01*
X344527D01*
X346763Y438849D01*
X348767Y440006D01*
X350404Y441643D01*
X351561Y443647D01*
X352160Y445883D01*
Y448197D01*
X351561Y450433D01*
X350404Y452437D01*
X348767Y454074D01*
X347255Y454947D01*
Y478320D01*
X346959Y479807D01*
X346117Y481067D01*
X343107Y484077D01*
X341847Y484919D01*
X340360Y485215D01*
X303869D01*
X302335Y486749D01*
Y657860D01*
X302039Y659347D01*
X301197Y660607D01*
X296117Y665687D01*
X294857Y666529D01*
X293370Y666825D01*
X290830D01*
X289343Y666529D01*
X288083Y665687D01*
X287787Y665390D01*
X287311D01*
X286067Y666634D01*
X284063Y667791D01*
X281827Y668390D01*
D02*
G37*
G36*
X252160Y455830D02*
X234580D01*
Y438250D01*
X252160D01*
Y455830D01*
D02*
G37*
G36*
X95307Y455380D02*
X92653D01*
X90089Y454693D01*
X87791Y453366D01*
X85914Y451489D01*
X84587Y449191D01*
X83900Y446627D01*
Y443973D01*
X84587Y441409D01*
X85914Y439111D01*
X87791Y437234D01*
X90089Y435907D01*
X92653Y435220D01*
X95307D01*
X97871Y435907D01*
X100169Y437234D01*
X102046Y439111D01*
X103373Y441409D01*
X104060Y443973D01*
Y446627D01*
X103373Y449191D01*
X102046Y451489D01*
X100169Y453366D01*
X97871Y454693D01*
X95307Y455380D01*
D02*
G37*
G36*
X209790Y438150D02*
X201930D01*
Y430290D01*
X209790D01*
Y438150D01*
D02*
G37*
G36*
X199390D02*
X191530D01*
Y430290D01*
X199390D01*
Y438150D01*
D02*
G37*
G36*
X158682Y447280D02*
X156278D01*
X153956Y446658D01*
X151874Y445456D01*
X150174Y443756D01*
X148972Y441674D01*
X148350Y439352D01*
Y436948D01*
X148972Y434626D01*
X150174Y432544D01*
X151874Y430844D01*
X153956Y429642D01*
X156278Y429020D01*
X158682D01*
X161004Y429642D01*
X163086Y430844D01*
X164786Y432544D01*
X165988Y434626D01*
X166610Y436948D01*
Y439352D01*
X165988Y441674D01*
X164786Y443756D01*
X163086Y445456D01*
X161004Y446658D01*
X158682Y447280D01*
D02*
G37*
G36*
X344527Y399950D02*
X342213D01*
X339977Y399351D01*
X337973Y398194D01*
X336336Y396557D01*
X335179Y394553D01*
X334580Y392317D01*
Y390003D01*
X335179Y387767D01*
X336336Y385763D01*
X337973Y384126D01*
X339977Y382969D01*
X342213Y382370D01*
X344527D01*
X346763Y382969D01*
X348767Y384126D01*
X350404Y385763D01*
X351561Y387767D01*
X352160Y390003D01*
Y392317D01*
X351561Y394553D01*
X350404Y396557D01*
X348767Y398194D01*
X346763Y399351D01*
X344527Y399950D01*
D02*
G37*
G36*
X252160D02*
X234580D01*
Y382370D01*
X252160D01*
Y399950D01*
D02*
G37*
G36*
X217410Y390130D02*
X199150D01*
Y371870D01*
X217410D01*
Y390130D01*
D02*
G37*
G36*
X184082D02*
X181678D01*
X179356Y389508D01*
X177274Y388306D01*
X175574Y386606D01*
X174372Y384524D01*
X173750Y382202D01*
Y379798D01*
X174372Y377476D01*
X175574Y375394D01*
X177274Y373694D01*
X179356Y372492D01*
X181678Y371870D01*
X184082D01*
X186404Y372492D01*
X188486Y373694D01*
X190186Y375394D01*
X191388Y377476D01*
X192010Y379798D01*
Y382202D01*
X191388Y384524D01*
X190186Y386606D01*
X188486Y388306D01*
X186404Y389508D01*
X184082Y390130D01*
D02*
G37*
G36*
X110542Y337700D02*
X107898D01*
X105345Y337016D01*
X103055Y335694D01*
X101186Y333825D01*
X99864Y331535D01*
X99180Y328982D01*
Y326338D01*
X99864Y323785D01*
X101186Y321495D01*
X103055Y319626D01*
X105345Y318304D01*
X107898Y317620D01*
X110542D01*
X113095Y318304D01*
X115385Y319626D01*
X117254Y321495D01*
X118576Y323785D01*
X119260Y326338D01*
Y328982D01*
X118576Y331535D01*
X117254Y333825D01*
X115385Y335694D01*
X113095Y337016D01*
X110542Y337700D01*
D02*
G37*
G36*
X85142D02*
X82498D01*
X79945Y337016D01*
X77655Y335694D01*
X75786Y333825D01*
X74464Y331535D01*
X73780Y328982D01*
Y326338D01*
X74464Y323785D01*
X75786Y321495D01*
X77655Y319626D01*
X79945Y318304D01*
X82498Y317620D01*
X85142D01*
X87695Y318304D01*
X89985Y319626D01*
X91854Y321495D01*
X93176Y323785D01*
X93860Y326338D01*
Y328982D01*
X93176Y331535D01*
X91854Y333825D01*
X89985Y335694D01*
X87695Y337016D01*
X85142Y337700D01*
D02*
G37*
G36*
X59742D02*
X57098D01*
X54545Y337016D01*
X52255Y335694D01*
X50386Y333825D01*
X49064Y331535D01*
X48380Y328982D01*
Y326338D01*
X49064Y323785D01*
X50386Y321495D01*
X52255Y319626D01*
X54545Y318304D01*
X57098Y317620D01*
X59742D01*
X62295Y318304D01*
X64585Y319626D01*
X66454Y321495D01*
X67776Y323785D01*
X68460Y326338D01*
Y328982D01*
X67776Y331535D01*
X66454Y333825D01*
X64585Y335694D01*
X62295Y337016D01*
X59742Y337700D01*
D02*
G37*
G36*
X34342D02*
X31698D01*
X29145Y337016D01*
X26855Y335694D01*
X24986Y333825D01*
X23664Y331535D01*
X22980Y328982D01*
Y326338D01*
X23664Y323785D01*
X24986Y321495D01*
X26855Y319626D01*
X29145Y318304D01*
X31698Y317620D01*
X34342D01*
X36895Y318304D01*
X39185Y319626D01*
X41054Y321495D01*
X42376Y323785D01*
X43060Y326338D01*
Y328982D01*
X42376Y331535D01*
X41054Y333825D01*
X39185Y335694D01*
X36895Y337016D01*
X34342Y337700D01*
D02*
G37*
G36*
X276132Y323596D02*
X276098D01*
Y314960D01*
X284734D01*
Y314994D01*
X284059Y317514D01*
X282755Y319772D01*
X280910Y321617D01*
X278652Y322921D01*
X276132Y323596D01*
D02*
G37*
G36*
X273558D02*
X273524D01*
X271004Y322921D01*
X268746Y321617D01*
X266901Y319772D01*
X265597Y317514D01*
X264922Y314994D01*
Y314960D01*
X273558D01*
Y323596D01*
D02*
G37*
G36*
X342646D02*
X322834D01*
Y303784D01*
X342646D01*
Y323596D01*
D02*
G37*
G36*
X284734Y312420D02*
X276098D01*
Y303784D01*
X276132D01*
X278652Y304459D01*
X280910Y305763D01*
X282755Y307608D01*
X284059Y309866D01*
X284734Y312386D01*
Y312420D01*
D02*
G37*
G36*
X273558D02*
X264922D01*
Y312386D01*
X265597Y309866D01*
X266901Y307608D01*
X268746Y305763D01*
X271004Y304459D01*
X273524Y303784D01*
X273558D01*
Y312420D01*
D02*
G37*
G36*
X215900Y304029D02*
Y295910D01*
X224019D01*
X223388Y298267D01*
X222150Y300410D01*
X220401Y302160D01*
X218258Y303398D01*
X215900Y304029D01*
D02*
G37*
G36*
X213360D02*
X211003Y303398D01*
X208860Y302160D01*
X207110Y300410D01*
X205872Y298267D01*
X205241Y295910D01*
X213360D01*
Y304029D01*
D02*
G37*
G36*
X224019Y293370D02*
X215900D01*
Y285251D01*
X218258Y285882D01*
X220401Y287120D01*
X222150Y288869D01*
X223388Y291012D01*
X224019Y293370D01*
D02*
G37*
G36*
X213360D02*
X205241D01*
X205872Y291012D01*
X207110Y288869D01*
X208860Y287120D01*
X211003Y285882D01*
X213360Y285251D01*
Y293370D01*
D02*
G37*
G36*
X85142Y261500D02*
X85090D01*
Y252730D01*
X93860D01*
Y252782D01*
X93176Y255335D01*
X91854Y257625D01*
X89985Y259494D01*
X87695Y260816D01*
X85142Y261500D01*
D02*
G37*
G36*
X82550D02*
X82498D01*
X79945Y260816D01*
X77655Y259494D01*
X75786Y257625D01*
X74464Y255335D01*
X73780Y252782D01*
Y252730D01*
X82550D01*
Y261500D01*
D02*
G37*
G36*
X93860Y250190D02*
X85090D01*
Y241420D01*
X85142D01*
X87695Y242104D01*
X89985Y243426D01*
X91854Y245295D01*
X93176Y247585D01*
X93860Y250138D01*
Y250190D01*
D02*
G37*
G36*
X82550D02*
X73780D01*
Y250138D01*
X74464Y247585D01*
X75786Y245295D01*
X77655Y243426D01*
X79945Y242104D01*
X82498Y241420D01*
X82550D01*
Y250190D01*
D02*
G37*
G36*
X59742Y261500D02*
X57098D01*
X54545Y260816D01*
X52255Y259494D01*
X50386Y257625D01*
X49064Y255335D01*
X48380Y252782D01*
Y250138D01*
X49064Y247585D01*
X50386Y245295D01*
X52255Y243426D01*
X54545Y242104D01*
X57098Y241420D01*
X59742D01*
X62295Y242104D01*
X64585Y243426D01*
X66454Y245295D01*
X67776Y247585D01*
X68460Y250138D01*
Y252782D01*
X67776Y255335D01*
X66454Y257625D01*
X64585Y259494D01*
X62295Y260816D01*
X59742Y261500D01*
D02*
G37*
G36*
X343050Y240850D02*
X324970D01*
Y222770D01*
X343050D01*
Y240850D01*
D02*
G37*
G36*
X281590Y239280D02*
X264510D01*
Y222200D01*
X281590D01*
Y239280D01*
D02*
G37*
G36*
X235320Y200560D02*
X217740D01*
Y182980D01*
X235320D01*
Y200560D01*
D02*
G37*
G36*
X274174Y189280D02*
X271926D01*
X269754Y188698D01*
X267806Y187574D01*
X266216Y185984D01*
X265092Y184036D01*
X264510Y181864D01*
Y179616D01*
X265092Y177444D01*
X266216Y175496D01*
X267806Y173906D01*
X269754Y172782D01*
X271926Y172200D01*
X274174D01*
X276346Y172782D01*
X278294Y173906D01*
X279884Y175496D01*
X281008Y177444D01*
X281590Y179616D01*
Y181864D01*
X281008Y184036D01*
X279884Y185984D01*
X278294Y187574D01*
X276346Y188698D01*
X274174Y189280D01*
D02*
G37*
G36*
X335280Y165829D02*
Y158080D01*
X343029D01*
X342434Y160299D01*
X341244Y162361D01*
X339561Y164044D01*
X337499Y165234D01*
X335280Y165829D01*
D02*
G37*
G36*
X332740D02*
X330521Y165234D01*
X328459Y164044D01*
X326776Y162361D01*
X325586Y160299D01*
X324991Y158080D01*
X332740D01*
Y165829D01*
D02*
G37*
G36*
X95307Y430380D02*
X92653D01*
X90089Y429693D01*
X87791Y428366D01*
X85914Y426489D01*
X84587Y424191D01*
X83900Y421627D01*
Y418973D01*
X84587Y416409D01*
X85914Y414111D01*
X87791Y412234D01*
X90089Y410907D01*
X92653Y410220D01*
X95307D01*
X97871Y410907D01*
X100169Y412234D01*
X102046Y414111D01*
X103373Y416409D01*
X103393Y416485D01*
X123115D01*
Y372110D01*
X123411Y370623D01*
X124253Y369363D01*
X149653Y343963D01*
X150913Y343121D01*
X152400Y342825D01*
X173915D01*
Y302192D01*
X173860Y302160D01*
X172110Y300410D01*
X170872Y298267D01*
X170232Y295877D01*
Y293403D01*
X170872Y291012D01*
X172110Y288869D01*
X173860Y287120D01*
X175185Y286354D01*
Y221198D01*
X175481Y219711D01*
X176323Y218451D01*
X177811Y216963D01*
X179071Y216121D01*
X180558Y215825D01*
X241397D01*
X245035Y212187D01*
Y157555D01*
X234437D01*
X233564Y159067D01*
X231927Y160704D01*
X229923Y161861D01*
X227687Y162460D01*
X225373D01*
X223137Y161861D01*
X221133Y160704D01*
X219496Y159067D01*
X218339Y157063D01*
X217740Y154827D01*
Y152513D01*
X218339Y150277D01*
X219496Y148273D01*
X221133Y146636D01*
X223137Y145479D01*
X225373Y144880D01*
X227687D01*
X229923Y145479D01*
X231927Y146636D01*
X233564Y148273D01*
X234437Y149785D01*
X247432D01*
X248919Y150081D01*
X250179Y150923D01*
X251667Y152411D01*
X252509Y153671D01*
X252805Y155158D01*
Y212482D01*
X253023Y213578D01*
X252727Y215065D01*
X251885Y216325D01*
X251885Y216325D01*
X245753Y222457D01*
X244492Y223299D01*
X243006Y223595D01*
X182955D01*
Y285801D01*
X183258Y285882D01*
X185401Y287120D01*
X187150Y288869D01*
X188388Y291012D01*
X189028Y293403D01*
Y295877D01*
X188388Y298267D01*
X187150Y300410D01*
X185401Y302160D01*
X183258Y303398D01*
X181685Y303819D01*
Y345222D01*
X181389Y346709D01*
X180547Y347969D01*
X179059Y349457D01*
X177799Y350299D01*
X176312Y350595D01*
X154009D01*
X130885Y373719D01*
Y418882D01*
X130589Y420369D01*
X129747Y421629D01*
X128259Y423117D01*
X126999Y423959D01*
X125512Y424255D01*
X103336D01*
X102046Y426489D01*
X100169Y428366D01*
X97871Y429693D01*
X95307Y430380D01*
D02*
G37*
G36*
X343029Y155540D02*
X335280D01*
Y147791D01*
X337499Y148386D01*
X339561Y149576D01*
X341244Y151259D01*
X342434Y153321D01*
X343029Y155540D01*
D02*
G37*
G36*
X332740D02*
X324991D01*
X325586Y153321D01*
X326776Y151259D01*
X328459Y149576D01*
X330521Y148386D01*
X332740Y147791D01*
Y155540D01*
D02*
G37*
G36*
X127687Y200560D02*
X125373D01*
X123137Y199961D01*
X121133Y198804D01*
X119496Y197167D01*
X118339Y195163D01*
X117740Y192927D01*
Y190613D01*
X118339Y188377D01*
X119496Y186373D01*
X121133Y184736D01*
X122645Y183863D01*
Y162460D01*
X117740D01*
Y157555D01*
X105628D01*
X104141Y157259D01*
X102881Y156417D01*
X101393Y154929D01*
X100551Y153669D01*
X100255Y152182D01*
Y106288D01*
X100037Y105192D01*
X100333Y103706D01*
X101175Y102445D01*
X112387Y91233D01*
X113648Y90391D01*
X115134Y90095D01*
X153625D01*
Y85088D01*
X152266Y84304D01*
X150676Y82714D01*
X149552Y80766D01*
X148970Y78594D01*
Y76346D01*
X149552Y74174D01*
X150676Y72226D01*
X152266Y70636D01*
X154214Y69512D01*
X156386Y68930D01*
X158634D01*
X160806Y69512D01*
X162754Y70636D01*
X164344Y72226D01*
X165468Y74174D01*
X166050Y76346D01*
Y78594D01*
X165468Y80766D01*
X164344Y82714D01*
X162754Y84304D01*
X161395Y85088D01*
Y92492D01*
X161099Y93979D01*
X160257Y95239D01*
X158769Y96727D01*
X157509Y97569D01*
X156022Y97865D01*
X116743D01*
X108025Y106583D01*
Y149785D01*
X117740D01*
Y144880D01*
X135320D01*
Y162460D01*
X130415D01*
Y183863D01*
X131927Y184736D01*
X133564Y186373D01*
X134721Y188377D01*
X135320Y190613D01*
Y192927D01*
X134721Y195163D01*
X133564Y197167D01*
X131927Y198804D01*
X129923Y199961D01*
X127687Y200560D01*
D02*
G37*
G36*
X136590Y125630D02*
X129070D01*
Y118110D01*
X136590D01*
Y125630D01*
D02*
G37*
G36*
X126530D02*
X119010D01*
Y118110D01*
X126530D01*
Y125630D01*
D02*
G37*
G36*
X228957D02*
X226643D01*
X224407Y125031D01*
X222403Y123874D01*
X220766Y122237D01*
X219609Y120233D01*
X219010Y117997D01*
Y115683D01*
X219609Y113447D01*
X220766Y111443D01*
X222403Y109806D01*
X224407Y108649D01*
X226643Y108050D01*
X228957D01*
X231193Y108649D01*
X233197Y109806D01*
X234834Y111443D01*
X235991Y113447D01*
X236590Y115683D01*
Y117997D01*
X235991Y120233D01*
X234834Y122237D01*
X233197Y123874D01*
X231193Y125031D01*
X228957Y125630D01*
D02*
G37*
G36*
X136590Y115570D02*
X129070D01*
Y108050D01*
X136590D01*
Y115570D01*
D02*
G37*
G36*
X126530D02*
X119010D01*
Y108050D01*
X126530D01*
Y115570D01*
D02*
G37*
G36*
X279080Y87280D02*
X262000D01*
Y70200D01*
X279080D01*
Y87280D01*
D02*
G37*
G36*
X43060Y261500D02*
X22980D01*
Y241420D01*
X29135D01*
Y144780D01*
X29431Y143293D01*
X30273Y142033D01*
X77395Y94911D01*
Y86010D01*
X72710D01*
Y68930D01*
X77365D01*
Y58638D01*
X77661Y57151D01*
X78503Y55891D01*
X79991Y54403D01*
X81251Y53561D01*
X82738Y53265D01*
X189230D01*
X190717Y53561D01*
X191977Y54403D01*
X197057Y59483D01*
X197899Y60743D01*
X198195Y62230D01*
Y71139D01*
X199524Y71906D01*
X201114Y73496D01*
X202238Y75444D01*
X202820Y77616D01*
Y79864D01*
X202238Y82036D01*
X201114Y83984D01*
X199524Y85574D01*
X197576Y86698D01*
X195404Y87280D01*
X193156D01*
X190984Y86698D01*
X189036Y85574D01*
X187446Y83984D01*
X186322Y82036D01*
X185740Y79864D01*
Y77616D01*
X186322Y75444D01*
X187446Y73496D01*
X189036Y71906D01*
X190425Y71104D01*
Y63839D01*
X187621Y61035D01*
X85135D01*
Y68930D01*
X89790D01*
Y86010D01*
X85165D01*
Y96520D01*
X84869Y98007D01*
X84027Y99267D01*
X36905Y146389D01*
Y241420D01*
X43060D01*
Y261500D01*
D02*
G37*
G36*
X377746Y45210D02*
X374094D01*
X370512Y44497D01*
X367138Y43100D01*
X364101Y41071D01*
X361519Y38489D01*
X359490Y35452D01*
X358092Y32078D01*
X357380Y28496D01*
Y24844D01*
X358092Y21262D01*
X359490Y17888D01*
X361519Y14851D01*
X364101Y12269D01*
X367138Y10240D01*
X370512Y8842D01*
X374094Y8130D01*
X377746D01*
X381328Y8842D01*
X384702Y10240D01*
X387739Y12269D01*
X390321Y14851D01*
X392350Y17888D01*
X393747Y21262D01*
X394460Y24844D01*
Y28496D01*
X393747Y32078D01*
X392350Y35452D01*
X390321Y38489D01*
X387739Y41071D01*
X384702Y43100D01*
X381328Y44497D01*
X377746Y45210D01*
D02*
G37*
G36*
X32306D02*
X28654D01*
X25072Y44497D01*
X21698Y43100D01*
X18661Y41071D01*
X16079Y38489D01*
X14050Y35452D01*
X12652Y32078D01*
X11940Y28496D01*
Y24844D01*
X12652Y21262D01*
X14050Y17888D01*
X16079Y14851D01*
X18661Y12269D01*
X21698Y10240D01*
X25072Y8842D01*
X28654Y8130D01*
X32306D01*
X35888Y8842D01*
X39262Y10240D01*
X42299Y12269D01*
X44881Y14851D01*
X46910Y17888D01*
X48307Y21262D01*
X49020Y24844D01*
Y28496D01*
X48307Y32078D01*
X46910Y35452D01*
X44881Y38489D01*
X42299Y41071D01*
X39262Y43100D01*
X35888Y44497D01*
X32306Y45210D01*
D02*
G37*
%LPD*%
D15*
X132080Y252948D02*
Y340360D01*
X49748Y364490D02*
X107950D01*
X132080Y340360D01*
X152400Y346710D02*
X176312D01*
X127000Y372110D02*
X152400Y346710D01*
X177800Y296470D02*
Y345222D01*
X176312Y346710D02*
X177800Y345222D01*
X127000Y372110D02*
Y418882D01*
X48260Y365978D02*
X49748Y364490D01*
X48260Y365978D02*
Y568960D01*
X126530Y153670D02*
Y191770D01*
X157510Y77470D02*
Y92492D01*
X156022Y93980D02*
X157510Y92492D01*
X115134Y93980D02*
X156022D01*
X103922Y105192D02*
X104140Y105410D01*
X103922Y105192D02*
X115134Y93980D01*
X104140Y152182D02*
X105628Y153670D01*
X104140Y105410D02*
Y152182D01*
X105628Y153670D02*
X126530D01*
X194280Y78740D02*
X194310Y78710D01*
Y62230D02*
Y78710D01*
X81250Y58638D02*
X82738Y57150D01*
X189230D01*
X81250Y58638D02*
Y77470D01*
X189230Y57150D02*
X194310Y62230D01*
X81280Y77500D02*
Y96520D01*
X81250Y77470D02*
X81280Y77500D01*
X33020Y144780D02*
Y251460D01*
Y144780D02*
X81280Y96520D01*
X199390Y541020D02*
Y558112D01*
X200878Y559600D01*
X238760D01*
X289396Y661506D02*
X290830Y662940D01*
X280670Y659600D02*
X282576Y661506D01*
X289396D01*
X290830Y662940D02*
X293370D01*
X298450Y657860D01*
Y485140D02*
Y657860D01*
X302260Y481330D02*
X340360D01*
X298450Y485140D02*
X302260Y481330D01*
X340360D02*
X343370Y478320D01*
Y447040D02*
Y478320D01*
X93832Y570448D02*
X93980Y570300D01*
X49748Y570448D02*
X93832D01*
X48260Y568960D02*
X49748Y570448D01*
X109220Y251460D02*
X130592D01*
X132080Y252948D01*
X125512Y420370D02*
X127000Y418882D01*
X94050Y420370D02*
X125512D01*
X93980Y420300D02*
X94050Y420370D01*
X177800Y296470D02*
X179630Y294640D01*
X179070Y221198D02*
Y294080D01*
Y221198D02*
X180558Y219710D01*
X243006D01*
X179070Y294080D02*
X179630Y294640D01*
X248920Y213360D02*
X249138Y213578D01*
X243006Y219710D02*
X249138Y213578D01*
X247432Y153670D02*
X248920Y155158D01*
Y213360D01*
X226530Y153670D02*
X247432D01*
D20*
X323850Y560070D02*
D03*
X227800Y116840D02*
D03*
X126530Y191770D02*
D03*
X226530Y153670D02*
D03*
X343370Y391160D02*
D03*
X280670Y659600D02*
D03*
X343370Y447040D02*
D03*
X238760Y559600D02*
D03*
D21*
X157510Y77470D02*
D03*
X194280Y78740D02*
D03*
X273050Y180740D02*
D03*
D22*
X81250Y77470D02*
D03*
X270540Y78740D02*
D03*
D23*
X127800Y116840D02*
D03*
X226530Y191770D02*
D03*
X126530Y153670D02*
D03*
X243370Y391160D02*
D03*
Y447040D02*
D03*
D24*
X214630Y294640D02*
D03*
X179630D02*
D03*
D25*
X280670Y559600D02*
D03*
X323850Y660070D02*
D03*
X238760Y659600D02*
D03*
D26*
X251460Y527930D02*
D03*
X334010Y156810D02*
D03*
X238760Y513080D02*
D03*
X251460Y498230D02*
D03*
D27*
X334010Y231810D02*
D03*
D28*
X273050Y230740D02*
D03*
D36*
X274828Y313690D02*
D03*
D37*
X332740D02*
D03*
D38*
X375920Y26670D02*
D03*
X30480Y709930D02*
D03*
X375920D02*
D03*
X30480Y26670D02*
D03*
D39*
X374250Y524510D02*
D03*
D40*
X324250D02*
D03*
D41*
X173990Y541020D02*
D03*
X208280Y381000D02*
D03*
D42*
X199390Y541020D02*
D03*
X157480Y438150D02*
D03*
X182880Y381000D02*
D03*
X200660Y464820D02*
D03*
D43*
X157480Y463550D02*
D03*
X200660Y439420D02*
D03*
D44*
X93980Y470300D02*
D03*
Y420300D02*
D03*
Y445300D02*
D03*
Y495300D02*
D03*
Y520300D02*
D03*
Y595300D02*
D03*
Y545300D02*
D03*
Y570300D02*
D03*
D45*
Y620300D02*
D03*
D46*
X33020Y251460D02*
D03*
D47*
X58420D02*
D03*
X83820D02*
D03*
X109220D02*
D03*
X33020Y327660D02*
D03*
X58420D02*
D03*
X83820D02*
D03*
X109220D02*
D03*
M02*
