G04*
G04 #@! TF.GenerationSoftware,Altium Limited,Altium Designer,24.9.1 (31)*
G04*
G04 Layer_Color=0*
%FSLAX44Y44*%
%MOMM*%
G71*
G04*
G04 #@! TF.SameCoordinates,615AE811-4124-4B85-86CB-A8D5F2F7F980*
G04*
G04*
G04 #@! TF.FilePolarity,Positive*
G04*
G01*
G75*
%ADD50C,0.1000*%
D50*
X119380Y72470D02*
Y82470D01*
X114380Y77470D02*
X124380D01*
X232410Y73740D02*
Y83740D01*
X227410Y78740D02*
X237410D01*
X177800Y111840D02*
Y121840D01*
X172800Y116840D02*
X182800D01*
X176530Y186770D02*
Y196770D01*
X171530Y191770D02*
X181530D01*
X176530Y148670D02*
Y158670D01*
X171530Y153670D02*
X181530D01*
X293370Y386160D02*
Y396160D01*
X288370Y391160D02*
X298370D01*
X275670Y609600D02*
X285670D01*
X280670Y604600D02*
Y614600D01*
X329010Y194310D02*
X339010D01*
X334010Y189310D02*
Y199310D01*
X268050Y205740D02*
X278050D01*
X273050Y200740D02*
Y210740D01*
X318850Y610070D02*
X328850D01*
X323850Y605070D02*
Y615070D01*
X293370Y442040D02*
Y452040D01*
X288370Y447040D02*
X298370D01*
X233760Y609600D02*
X243760D01*
X238760Y604600D02*
Y614600D01*
M02*
