G04*
G04 #@! TF.GenerationSoftware,Altium Limited,Altium Designer,24.9.1 (31)*
G04*
G04 Layer_Color=65535*
%FSLAX44Y44*%
%MOMM*%
G71*
G04*
G04 #@! TF.SameCoordinates,615AE811-4124-4B85-86CB-A8D5F2F7F980*
G04*
G04*
G04 #@! TF.FilePolarity,Positive*
G04*
G01*
G75*
%ADD10C,0.1270*%
%ADD11C,0.2000*%
%ADD12C,0.1524*%
%ADD13C,0.2500*%
%ADD14C,0.6000*%
%ADD15C,0.2540*%
D10*
X331430Y515430D02*
X332750Y513207D01*
X334346Y511173D01*
X336191Y509362D01*
X338254Y507804D01*
X340501Y506525D01*
X342894Y505547D01*
X345394Y504886D01*
X347957Y504552D01*
X350543D01*
X353106Y504886D01*
X355606Y505547D01*
X357999Y506525D01*
X360246Y507804D01*
X362309Y509362D01*
X364154Y511173D01*
X365750Y513207D01*
X367070Y515430D01*
Y533590D02*
X365750Y535813D01*
X364154Y537847D01*
X362309Y539658D01*
X360246Y541216D01*
X357999Y542495D01*
X355606Y543473D01*
X353106Y544134D01*
X350543Y544468D01*
X347957D01*
X345394Y544134D01*
X342894Y543473D01*
X340501Y542495D01*
X338254Y541216D01*
X336191Y539658D01*
X334346Y537847D01*
X332750Y535813D01*
X331430Y533590D01*
X167640Y550810D02*
Y553720D01*
Y528320D02*
Y531230D01*
X205740Y550810D02*
Y553720D01*
Y528320D02*
Y531230D01*
X167640Y528320D02*
X205740D01*
X167640Y553720D02*
X205740D01*
X167270Y469900D02*
X170180D01*
X144780D02*
X147690D01*
X167270Y431800D02*
X170180D01*
X144780D02*
X147690D01*
X144780D02*
Y469900D01*
X170180Y431800D02*
Y469900D01*
X214630Y368300D02*
Y371210D01*
Y390790D02*
Y393700D01*
X176530Y368300D02*
Y371210D01*
Y390790D02*
Y393700D01*
X214630D01*
X176530Y368300D02*
X214630D01*
X187960Y433070D02*
X190870D01*
X210450D02*
X213360D01*
X187960Y471170D02*
X190870D01*
X210450D02*
X213360D01*
Y433070D02*
Y471170D01*
X187960Y433070D02*
Y471170D01*
X59980Y395800D02*
X117480D01*
Y644800D01*
X59980D02*
X117480D01*
X59980Y395800D02*
Y644800D01*
D11*
X310870Y524510D02*
X308870D01*
X310870D01*
X267574Y537431D02*
X265410Y538732D01*
X263143Y539841D01*
X260788Y540750D01*
X258364Y541452D01*
X255888Y541942D01*
X253379Y542217D01*
X250855Y542274D01*
X248336Y542113D01*
X245841Y541734D01*
X243387Y541142D01*
X240994Y540340D01*
X238679Y539334D01*
X236459Y538132D01*
X234352Y536743D01*
X232372Y535177D01*
X230535Y533446D01*
X228854Y531563D01*
X227343Y529542D01*
X226011Y527397D01*
X224870Y525146D01*
X223927Y522805D01*
X223190Y520391D01*
X222664Y517922D01*
X222354Y515417D01*
X222261Y512895D01*
X222386Y510374D01*
X222728Y507873D01*
X223285Y505411D01*
X224053Y503007D01*
X225025Y500677D01*
X226195Y498441D01*
X227554Y496313D01*
X229091Y494311D01*
X230795Y492450D01*
X232654Y490742D01*
X234653Y489202D01*
X236778Y487839D01*
X239013Y486666D01*
X241341Y485690D01*
X243744Y484918D01*
X246205Y484357D01*
X248705Y484010D01*
X251226Y483881D01*
X253748Y483970D01*
X256254Y484276D01*
X258723Y484798D01*
X261139Y485531D01*
X263482Y486469D01*
X265735Y487607D01*
X267881Y488935D01*
X269905Y490443D01*
X271791Y492121D01*
X273525Y493955D01*
X275094Y495932D01*
X276487Y498037D01*
X277693Y500255D01*
X278702Y502568D01*
X279508Y504960D01*
X280105Y507413D01*
X280487Y509908D01*
X280653Y512426D01*
X280600Y514950D01*
X280330Y517459D01*
X279844Y519936D01*
X279146Y522362D01*
X278241Y524718D01*
X277135Y526987D01*
X275838Y529153D01*
X94980Y652800D02*
X92980D01*
X94980D01*
X20120Y283210D02*
X22550Y283693D01*
X24610Y285070D01*
X25987Y287130D01*
X26470Y289560D01*
X25987Y291990D01*
X24610Y294050D01*
X22550Y295427D01*
X20120Y295910D01*
X358420Y24920D02*
Y44170D01*
X393420D01*
Y9170D02*
Y44170D01*
X358420Y9170D02*
X393420D01*
X358420D02*
Y27170D01*
X12980Y708180D02*
Y727430D01*
X47980D01*
Y692430D02*
Y727430D01*
X12980Y692430D02*
X47980D01*
X12980D02*
Y710430D01*
X358420Y708180D02*
Y727430D01*
X393420D01*
Y692430D02*
Y727430D01*
X358420Y692430D02*
X393420D01*
X358420D02*
Y710430D01*
X12980Y24920D02*
Y44170D01*
X47980D01*
Y9170D02*
Y44170D01*
X12980Y9170D02*
X47980D01*
X12980D02*
Y27170D01*
X142180Y77470D02*
X146180D01*
X92580D02*
X96580D01*
X104380Y68920D02*
Y86020D01*
X96580Y67920D02*
Y87020D01*
Y67920D02*
X142180D01*
Y87020D01*
X96580D02*
X142180D01*
X205610Y78740D02*
X209610D01*
X255210D02*
X259210D01*
X247410Y70190D02*
Y87290D01*
X255210Y69190D02*
Y88290D01*
X209610D02*
X255210D01*
X209610Y69190D02*
Y88290D01*
Y69190D02*
X255210D01*
X210300Y116840D02*
X217550D01*
X138050D02*
X145300D01*
Y104340D02*
Y129340D01*
Y104340D02*
X210300D01*
Y129340D01*
X145300D02*
X210300D01*
X136780Y191770D02*
X144030D01*
X209030D02*
X216280D01*
X209030Y179270D02*
Y204270D01*
X144030D02*
X209030D01*
X144030Y179270D02*
Y204270D01*
Y179270D02*
X209030D01*
Y153670D02*
X216280D01*
X136780D02*
X144030D01*
Y141170D02*
Y166170D01*
Y141170D02*
X209030D01*
Y166170D01*
X144030D02*
X209030D01*
X325870Y391160D02*
X333120D01*
X253620D02*
X260870D01*
Y378660D02*
Y403660D01*
Y378660D02*
X325870D01*
Y403660D01*
X260870D02*
X325870D01*
X280670Y642100D02*
Y649350D01*
Y569850D02*
Y577100D01*
X268170D02*
X293170D01*
Y642100D01*
X268170D02*
X293170D01*
X268170Y577100D02*
Y642100D01*
X344260Y234310D02*
X359010D01*
X309010D02*
X323760D01*
X309010Y154310D02*
Y234310D01*
X344260Y154310D02*
X359010D01*
X309010D02*
X323760D01*
X359010D02*
Y234310D01*
X282800Y225740D02*
X286050D01*
X260050D02*
X263300D01*
X260050Y185740D02*
Y225740D01*
X282800Y185740D02*
X286050D01*
X260050D02*
X263300D01*
X286050D02*
Y225740D01*
X267565Y537426D02*
X276121Y545982D01*
X284394Y537709D01*
X275838Y529153D02*
X284394Y537709D01*
X323850Y570320D02*
Y577570D01*
Y642570D02*
Y649820D01*
X311350Y642570D02*
X336350D01*
X311350Y577570D02*
Y642570D01*
Y577570D02*
X336350D01*
Y642570D01*
X20120Y263060D02*
X122120D01*
X20120Y316060D02*
X122120D01*
X20120Y263060D02*
Y283210D01*
Y295910D02*
Y316060D01*
X122120Y263060D02*
Y316060D01*
X325870Y447040D02*
X333120D01*
X253620D02*
X260870D01*
Y434540D02*
Y459540D01*
Y434540D02*
X325870D01*
Y459540D01*
X260870D02*
X325870D01*
X238760Y569850D02*
Y577100D01*
Y642100D02*
Y649350D01*
X226260Y642100D02*
X251260D01*
X226260Y577100D02*
Y642100D01*
Y577100D02*
X251260D01*
Y642100D01*
D12*
X238405Y294640D02*
X238327Y297181D01*
X238092Y299712D01*
X237702Y302224D01*
X237158Y304708D01*
X236463Y307153D01*
X235618Y309550D01*
X234627Y311891D01*
X233494Y314167D01*
X232223Y316369D01*
X230819Y318488D01*
X229287Y320516D01*
X227633Y322447D01*
X225863Y324272D01*
X223984Y325984D01*
X222004Y327578D01*
X219929Y329047D01*
X217768Y330385D01*
X215528Y331588D01*
X213218Y332650D01*
X210848Y333569D01*
X208425Y334339D01*
X205960Y334959D01*
X203461Y335426D01*
X200938Y335739D01*
X198401Y335895D01*
X195859D01*
X193322Y335739D01*
X190799Y335426D01*
X188300Y334959D01*
X185835Y334339D01*
X183412Y333569D01*
X181042Y332650D01*
X178732Y331588D01*
X176493Y330385D01*
X174331Y329047D01*
X172256Y327578D01*
X170276Y325984D01*
X168397Y324272D01*
X166627Y322447D01*
X164974Y320516D01*
X163442Y318488D01*
X162037Y316369D01*
X160766Y314167D01*
X159633Y311891D01*
X158642Y309550D01*
X157797Y307153D01*
X157102Y304708D01*
X156558Y302224D01*
X156168Y299712D01*
X155933Y297181D01*
X155855Y294640D01*
X155933Y292099D01*
X156168Y289568D01*
X156558Y287056D01*
X157102Y284572D01*
X157797Y282127D01*
X158642Y279730D01*
X159633Y277389D01*
X160766Y275113D01*
X162037Y272911D01*
X163442Y270792D01*
X164974Y268764D01*
X166628Y266833D01*
X168397Y265008D01*
X170276Y263295D01*
X172256Y261702D01*
X174331Y260233D01*
X176493Y258895D01*
X178732Y257692D01*
X181042Y256630D01*
X183412Y255711D01*
X185835Y254941D01*
X188300Y254321D01*
X190799Y253853D01*
X193322Y253541D01*
X195859Y253385D01*
X198401Y253385D01*
X200939Y253541D01*
X203461Y253853D01*
X205960Y254321D01*
X208426Y254941D01*
X210848Y255711D01*
X213219Y256630D01*
X215528Y257692D01*
X217768Y258895D01*
X219929Y260233D01*
X222004Y261702D01*
X223985Y263296D01*
X225863Y265008D01*
X227633Y266833D01*
X229287Y268764D01*
X230819Y270793D01*
X232223Y272912D01*
X233494Y275113D01*
X234627Y277389D01*
X235618Y279730D01*
X236463Y282128D01*
X237159Y284573D01*
X237702Y287056D01*
X238092Y289568D01*
X238327Y292099D01*
X238405Y294640D01*
X350012Y313690D02*
X349942Y316237D01*
X349731Y318776D01*
X349381Y321299D01*
X348893Y323799D01*
X348268Y326269D01*
X347507Y328700D01*
X346614Y331086D01*
X345591Y333419D01*
X344440Y335692D01*
X343167Y337898D01*
X341773Y340031D01*
X340264Y342084D01*
X338645Y344050D01*
X336919Y345925D01*
X335093Y347701D01*
X333172Y349374D01*
X331162Y350939D01*
X329068Y352391D01*
X326898Y353725D01*
X324658Y354937D01*
X322354Y356024D01*
X319993Y356983D01*
X317584Y357810D01*
X315132Y358503D01*
X312646Y359061D01*
X310134Y359480D01*
X307602Y359760D01*
X305058Y359900D01*
X302510D01*
X299967Y359760D01*
X297434Y359480D01*
X294922Y359061D01*
X292436Y358503D01*
X289984Y357810D01*
X287575Y356983D01*
X285214Y356024D01*
X282910Y354937D01*
X280670Y353725D01*
X278500Y352391D01*
X276406Y350939D01*
X274396Y349374D01*
X272475Y347701D01*
X270648Y345925D01*
X268923Y344050D01*
X267304Y342084D01*
X265795Y340031D01*
X264401Y337898D01*
X263128Y335692D01*
X261977Y333419D01*
X260954Y331086D01*
X260061Y328700D01*
X259300Y326269D01*
X258675Y323799D01*
X258186Y321299D01*
X257837Y318775D01*
X257626Y316236D01*
X257556Y313690D01*
X257626Y311143D01*
X257837Y308604D01*
X258186Y306081D01*
X258675Y303581D01*
X259300Y301111D01*
X260061Y298680D01*
X260954Y296294D01*
X261977Y293961D01*
X263128Y291688D01*
X264401Y289482D01*
X265795Y287349D01*
X267304Y285296D01*
X268923Y283330D01*
X270649Y281455D01*
X272475Y279679D01*
X274396Y278006D01*
X276406Y276441D01*
X278500Y274989D01*
X280670Y273655D01*
X282911Y272443D01*
X285215Y271356D01*
X287575Y270397D01*
X289984Y269570D01*
X292436Y268876D01*
X294922Y268319D01*
X297435Y267900D01*
X299967Y267620D01*
X302510Y267480D01*
X305058D01*
X307602Y267620D01*
X310134Y267900D01*
X312647Y268319D01*
X315133Y268877D01*
X317584Y269570D01*
X319993Y270397D01*
X322354Y271356D01*
X324658Y272443D01*
X326898Y273655D01*
X329068Y274990D01*
X331162Y276441D01*
X333172Y278006D01*
X335093Y279679D01*
X336920Y281455D01*
X338645Y283330D01*
X340265Y285296D01*
X341773Y287349D01*
X343167Y289482D01*
X344440Y291688D01*
X345591Y293961D01*
X346614Y296294D01*
X347507Y298680D01*
X348268Y301111D01*
X348893Y303581D01*
X349381Y306081D01*
X349731Y308605D01*
X349942Y311144D01*
X350012Y313690D01*
X148235Y288290D02*
Y300990D01*
X141885Y294640D02*
X154585D01*
X357632Y307340D02*
Y320040D01*
X351282Y313690D02*
X363982D01*
D13*
X21270Y251460D02*
X19395Y252542D01*
Y250378D01*
X21270Y251460D01*
D14*
X33120Y273060D02*
X31990Y275406D01*
X29452Y275985D01*
X27417Y274362D01*
Y271758D01*
X29452Y270135D01*
X31990Y270714D01*
X33120Y273060D01*
D15*
X69847Y677667D02*
X64768D01*
X67308D01*
Y664971D01*
X64768Y662432D01*
X62229D01*
X59690Y664971D01*
X74925Y662432D02*
X80003D01*
X77464D01*
Y677667D01*
X74925Y675128D01*
X88904Y111763D02*
Y126997D01*
X96522D01*
X99061Y124458D01*
Y119380D01*
X96522Y116841D01*
X88904D01*
X93982D02*
X99061Y111763D01*
X104139Y124458D02*
X106678Y126997D01*
X111757D01*
X114296Y124458D01*
Y121919D01*
X111757Y119380D01*
X114296Y116841D01*
Y114302D01*
X111757Y111763D01*
X106678D01*
X104139Y114302D01*
Y116841D01*
X106678Y119380D01*
X104139Y121919D01*
Y124458D01*
X106678Y119380D02*
X111757D01*
X87634Y140972D02*
Y156208D01*
X95252D01*
X97791Y153668D01*
Y148590D01*
X95252Y146051D01*
X87634D01*
X92712D02*
X97791Y140972D01*
X102869Y156208D02*
X113026D01*
Y153668D01*
X102869Y143512D01*
Y140972D01*
X87634Y184153D02*
Y199387D01*
X95252D01*
X97791Y196848D01*
Y191770D01*
X95252Y189231D01*
X87634D01*
X92712D02*
X97791Y184153D01*
X113026Y199387D02*
X107948Y196848D01*
X102869Y191770D01*
Y186692D01*
X105408Y184153D01*
X110487D01*
X113026Y186692D01*
Y189231D01*
X110487Y191770D01*
X102869D01*
X358144Y381003D02*
Y396237D01*
X365762D01*
X368301Y393698D01*
Y388620D01*
X365762Y386081D01*
X358144D01*
X363223D02*
X368301Y381003D01*
X383536Y396237D02*
X373379D01*
Y388620D01*
X378457Y391159D01*
X380997D01*
X383536Y388620D01*
Y383542D01*
X380997Y381003D01*
X375918D01*
X373379Y383542D01*
X356874Y439422D02*
Y454658D01*
X364492D01*
X367031Y452118D01*
Y447040D01*
X364492Y444501D01*
X356874D01*
X361953D02*
X367031Y439422D01*
X379727D02*
Y454658D01*
X372109Y447040D01*
X382266D01*
X312424Y676913D02*
Y692148D01*
X320042D01*
X322581Y689608D01*
Y684530D01*
X320042Y681991D01*
X312424D01*
X317502D02*
X322581Y676913D01*
X327659Y689608D02*
X330198Y692148D01*
X335277D01*
X337816Y689608D01*
Y687069D01*
X335277Y684530D01*
X332738D01*
X335277D01*
X337816Y681991D01*
Y679452D01*
X335277Y676913D01*
X330198D01*
X327659Y679452D01*
X219708Y635004D02*
X204473D01*
Y642622D01*
X207012Y645161D01*
X212090D01*
X214629Y642622D01*
Y635004D01*
Y640082D02*
X219708Y645161D01*
Y660396D02*
Y650239D01*
X209551Y660396D01*
X207012D01*
X204473Y657857D01*
Y652778D01*
X207012Y650239D01*
X270513Y676913D02*
Y692148D01*
X278131D01*
X280670Y689608D01*
Y684530D01*
X278131Y681991D01*
X270513D01*
X275592D02*
X280670Y676913D01*
X285748D02*
X290827D01*
X288288D01*
Y692148D01*
X285748Y689608D01*
X280670Y471172D02*
Y481328D01*
X278131Y483867D01*
X273053D01*
X270513Y481328D01*
Y471172D01*
X273053Y468633D01*
X278131D01*
X275592Y473711D02*
X280670Y468633D01*
X278131D02*
X280670Y471172D01*
X285748Y468633D02*
X290827D01*
X288288D01*
Y483867D01*
X285748Y481328D01*
X29219Y228597D02*
X24141D01*
X21602Y226057D01*
Y215901D01*
X24141Y213362D01*
X29219D01*
X31758Y215901D01*
Y226057D01*
X29219Y228597D01*
X36837Y213362D02*
Y228597D01*
X44454D01*
X46993Y226057D01*
Y220979D01*
X44454Y218440D01*
X36837D01*
X54611Y223518D02*
X59689D01*
X62228Y220979D01*
Y213362D01*
X54611D01*
X52072Y215901D01*
X54611Y218440D01*
X62228D01*
X67307Y213362D02*
Y223518D01*
X69846D01*
X72385Y220979D01*
Y213362D01*
Y220979D01*
X74924Y223518D01*
X77463Y220979D01*
Y213362D01*
X82542Y208283D02*
Y223518D01*
X90159D01*
X92698Y220979D01*
Y215901D01*
X90159Y213362D01*
X82542D01*
X351793Y283207D02*
Y267973D01*
X361950D01*
X367028D02*
X372107D01*
X369568D01*
Y283207D01*
X367028Y280668D01*
X43184Y83818D02*
Y68583D01*
X50802D01*
X53341Y71122D01*
Y81278D01*
X50802Y83818D01*
X43184D01*
X68576Y68583D02*
X58419D01*
X68576Y78739D01*
Y81278D01*
X66037Y83818D01*
X60958D01*
X58419Y81278D01*
X297183Y82548D02*
Y67312D01*
X304801D01*
X307340Y69852D01*
Y80008D01*
X304801Y82548D01*
X297183D01*
X312418Y67312D02*
X317497D01*
X314958D01*
Y82548D01*
X312418Y80008D01*
X157482Y378461D02*
X154943Y375922D01*
Y370843D01*
X157482Y368304D01*
X167638D01*
X170177Y370843D01*
Y375922D01*
X167638Y378461D01*
X157482Y383539D02*
X154943Y386078D01*
Y391157D01*
X157482Y393696D01*
X160021D01*
X162560Y391157D01*
X165099Y393696D01*
X167638D01*
X170177Y391157D01*
Y386078D01*
X167638Y383539D01*
X165099D01*
X162560Y386078D01*
X160021Y383539D01*
X157482D01*
X162560Y386078D02*
Y391157D01*
X147321Y563878D02*
X144782Y566418D01*
X139703D01*
X137164Y563878D01*
Y553722D01*
X139703Y551183D01*
X144782D01*
X147321Y553722D01*
X152399Y566418D02*
X162556D01*
Y563878D01*
X152399Y553722D01*
Y551183D01*
X200661Y422908D02*
X198122Y425448D01*
X193043D01*
X190504Y422908D01*
Y412752D01*
X193043Y410213D01*
X198122D01*
X200661Y412752D01*
X215896Y425448D02*
X210818Y422908D01*
X205739Y417830D01*
Y412752D01*
X208278Y410213D01*
X213357D01*
X215896Y412752D01*
Y415291D01*
X213357Y417830D01*
X205739D01*
X154941Y421638D02*
X152402Y424178D01*
X147323D01*
X144784Y421638D01*
Y411482D01*
X147323Y408942D01*
X152402D01*
X154941Y411482D01*
X170176Y424178D02*
X160019D01*
Y416560D01*
X165098Y419099D01*
X167637D01*
X170176Y416560D01*
Y411482D01*
X167637Y408942D01*
X162558D01*
X160019Y411482D01*
X360681Y496568D02*
X358142Y499108D01*
X353063D01*
X350524Y496568D01*
Y486412D01*
X353063Y483872D01*
X358142D01*
X360681Y486412D01*
X373377Y483872D02*
Y499108D01*
X365759Y491490D01*
X375916D01*
X252731Y265428D02*
X250192Y267967D01*
X245113D01*
X242574Y265428D01*
Y255272D01*
X245113Y252733D01*
X250192D01*
X252731Y255272D01*
X257809Y265428D02*
X260348Y267967D01*
X265427D01*
X267966Y265428D01*
Y262889D01*
X265427Y260350D01*
X262887D01*
X265427D01*
X267966Y257811D01*
Y255272D01*
X265427Y252733D01*
X260348D01*
X257809Y255272D01*
X273051Y161288D02*
X270512Y163827D01*
X265433D01*
X262894Y161288D01*
Y151132D01*
X265433Y148593D01*
X270512D01*
X273051Y151132D01*
X288286Y148593D02*
X278129D01*
X288286Y158749D01*
Y161288D01*
X285747Y163827D01*
X280668D01*
X278129Y161288D01*
X337820Y139698D02*
X335281Y142238D01*
X330202D01*
X327663Y139698D01*
Y129542D01*
X330202Y127002D01*
X335281D01*
X337820Y129542D01*
X342898Y127002D02*
X347977D01*
X345438D01*
Y142238D01*
X342898Y139698D01*
M02*
