G04*
G04 #@! TF.GenerationSoftware,Altium Limited,Altium Designer,24.9.1 (31)*
G04*
G04 Layer_Color=32768*
%FSLAX44Y44*%
%MOMM*%
G71*
G04*
G04 #@! TF.SameCoordinates,615AE811-4124-4B85-86CB-A8D5F2F7F980*
G04*
G04*
G04 #@! TF.FilePolarity,Positive*
G04*
G01*
G75*
%ADD11C,0.2000*%
%ADD50C,0.1000*%
%ADD51C,0.0254*%
%ADD52C,0.0500*%
G36*
X154585Y312159D02*
X179611Y337185D01*
X214648D01*
X239675Y312159D01*
Y277122D01*
X214648Y252095D01*
X179611D01*
X154585Y277122D01*
Y312159D01*
D02*
G37*
G36*
X351282Y294132D02*
X323342Y266192D01*
X284226D01*
X256286Y294132D01*
Y333248D01*
X284226Y361188D01*
X323342D01*
X351282Y333248D01*
Y294132D01*
D02*
G37*
D11*
X74250Y66920D02*
Y88020D01*
Y66920D02*
X164510D01*
Y88020D01*
X74250D02*
X164510D01*
X277540Y68190D02*
Y89290D01*
X187280D02*
X277540D01*
X187280Y68190D02*
Y89290D01*
Y68190D02*
X277540D01*
X120550Y103340D02*
Y130340D01*
Y103340D02*
X235050D01*
Y130340D01*
X120550D02*
X235050D01*
X233780Y178270D02*
Y205270D01*
X119280D02*
X233780D01*
X119280Y178270D02*
Y205270D01*
Y178270D02*
X233780D01*
X119280Y140170D02*
Y167170D01*
Y140170D02*
X233780D01*
Y167170D01*
X119280D02*
X233780D01*
X236120Y377660D02*
Y404660D01*
Y377660D02*
X350620D01*
Y404660D01*
X236120D02*
X350620D01*
X267170Y552350D02*
X294170D01*
Y666850D01*
X267170D02*
X294170D01*
X267170Y552350D02*
Y666850D01*
X308010Y239310D02*
X360010D01*
X308010Y149310D02*
Y239310D01*
Y149310D02*
X360010D01*
Y239310D01*
X259050Y237740D02*
X287050D01*
X259050Y173740D02*
Y237740D01*
Y173740D02*
X287050D01*
Y237740D01*
X310350Y667320D02*
X337350D01*
X310350Y552820D02*
Y667320D01*
Y552820D02*
X337350D01*
Y667320D01*
X236120Y433540D02*
Y460540D01*
Y433540D02*
X350620D01*
Y460540D01*
X236120D02*
X350620D01*
X225260Y666850D02*
X252260D01*
X225260Y552350D02*
Y666850D01*
Y552350D02*
X252260D01*
Y666850D01*
D50*
X251460Y508080D02*
Y518080D01*
X246460Y513080D02*
X256460D01*
X71120Y284560D02*
Y294560D01*
X66120Y289560D02*
X76120D01*
D51*
X154585Y312159D02*
X179611Y337185D01*
X154585Y277122D02*
Y312159D01*
Y277122D02*
X179611Y252095D01*
X214648D01*
X239675Y277122D01*
Y312159D01*
X214648Y337185D02*
X239675Y312159D01*
X179611Y337185D02*
X214648D01*
X323342Y266192D02*
X351282Y294132D01*
Y333248D01*
X323342Y361188D02*
X351282Y333248D01*
X284226Y361188D02*
X323342D01*
X256286Y333248D02*
X284226Y361188D01*
X256286Y294132D02*
Y333248D01*
Y294132D02*
X284226Y266192D01*
X323342D01*
D52*
X383630Y524510D02*
X383536Y527049D01*
X383255Y529574D01*
X382788Y532072D01*
X382138Y534528D01*
X381308Y536930D01*
X380304Y539263D01*
X379129Y541516D01*
X377792Y543676D01*
X376298Y545732D01*
X374657Y547672D01*
X372877Y549485D01*
X370968Y551161D01*
X368941Y552693D01*
X366805Y554070D01*
X364575Y555286D01*
X362260Y556333D01*
X359874Y557207D01*
X357430Y557903D01*
X354942Y558416D01*
X352422Y558743D01*
X349885Y558884D01*
X347345Y558837D01*
X344815Y558603D01*
X342309Y558182D01*
X339841Y557578D01*
X337425Y556792D01*
X335073Y555831D01*
X332799Y554698D01*
X330614Y553401D01*
X328531Y551946D01*
X326562Y550341D01*
X324716Y548595D01*
X323004Y546717D01*
X321436Y544718D01*
X320020Y542609D01*
X318763Y540401D01*
X317672Y538106D01*
X316755Y535736D01*
X316014Y533306D01*
X315455Y530827D01*
X315081Y528314D01*
X314893Y525780D01*
Y523240D01*
X315081Y520706D01*
X315455Y518193D01*
X316014Y515714D01*
X316755Y513284D01*
X317672Y510914D01*
X318763Y508619D01*
X320019Y506411D01*
X321436Y504302D01*
X323004Y502303D01*
X324716Y500425D01*
X326562Y498679D01*
X328531Y497074D01*
X330614Y495619D01*
X332799Y494322D01*
X335073Y493189D01*
X337425Y492228D01*
X339841Y491442D01*
X342309Y490838D01*
X344815Y490417D01*
X347345Y490183D01*
X349885Y490136D01*
X352422Y490277D01*
X354942Y490604D01*
X357430Y491117D01*
X359874Y491813D01*
X362260Y492687D01*
X364574Y493734D01*
X366805Y494950D01*
X368941Y496327D01*
X370968Y497858D01*
X372877Y499535D01*
X374657Y501348D01*
X376298Y503288D01*
X377792Y505343D01*
X379129Y507504D01*
X380304Y509757D01*
X381308Y512090D01*
X382138Y514492D01*
X382788Y516948D01*
X383255Y519446D01*
X383536Y521971D01*
X383630Y524510D01*
X267427Y538714D02*
X265209Y539969D01*
X262893Y541032D01*
X260495Y541897D01*
X258033Y542556D01*
X255525Y543005D01*
X252987Y543241D01*
X250439Y543263D01*
X247897Y543069D01*
X245382Y542662D01*
X242909Y542044D01*
X240498Y541220D01*
X238164Y540196D01*
X235925Y538978D01*
X233797Y537576D01*
X231794Y536000D01*
X229932Y534260D01*
X228223Y532369D01*
X226679Y530342D01*
X225312Y528191D01*
X224131Y525932D01*
X223145Y523582D01*
X222360Y521158D01*
X221783Y518675D01*
X221417Y516153D01*
X221265Y513609D01*
X221327Y511062D01*
X221605Y508528D01*
X222095Y506027D01*
X222794Y503577D01*
X223698Y501194D01*
X224799Y498895D01*
X226090Y496698D01*
X227561Y494617D01*
X229203Y492668D01*
X231003Y490864D01*
X232949Y489218D01*
X235027Y487742D01*
X237222Y486447D01*
X239518Y485341D01*
X241899Y484433D01*
X244349Y483729D01*
X246849Y483234D01*
X249381Y482952D01*
X251929Y482884D01*
X254473Y483031D01*
X256996Y483392D01*
X259480Y483964D01*
X261906Y484744D01*
X264258Y485726D01*
X266518Y486902D01*
X268672Y488265D01*
X270703Y489804D01*
X272597Y491510D01*
X274340Y493369D01*
X275921Y495368D01*
X277327Y497494D01*
X278549Y499730D01*
X279578Y502061D01*
X280407Y504471D01*
X281030Y506943D01*
X281442Y509458D01*
X281641Y511998D01*
X281624Y514547D01*
X281393Y517085D01*
X280949Y519594D01*
X280295Y522058D01*
X279435Y524457D01*
X278376Y526775D01*
X277126Y528996D01*
X164900Y525820D02*
Y556220D01*
Y525820D02*
X208480D01*
Y556220D01*
X164900D02*
X208480D01*
X142280Y472640D02*
X172680D01*
X142280Y429060D02*
Y472640D01*
Y429060D02*
X172680D01*
Y472640D01*
X267417Y538724D02*
X276102Y547409D01*
X277094Y529027D02*
X285789Y537722D01*
X276102Y547409D02*
X285789Y537722D01*
X217370Y365800D02*
Y396200D01*
X173790D02*
X217370D01*
X173790Y365800D02*
Y396200D01*
Y365800D02*
X217370D01*
X185460Y430330D02*
X215860D01*
Y473910D01*
X185460D02*
X215860D01*
X185460Y430330D02*
Y473910D01*
X57480Y393300D02*
X119980D01*
Y647300D01*
X57480D02*
X119980D01*
X57480Y393300D02*
Y647300D01*
X17620Y241060D02*
X124620D01*
X17620Y338060D02*
X124620D01*
X17620Y241060D02*
Y338060D01*
X124620Y241060D02*
Y338060D01*
M02*
