M48
;Layer_Color=9474304
;FILE_FORMAT=4:4
METRIC,LZ
;TYPE=PLATED
T01F00S00C0.7000
T02F00S00C0.7112
T03F00S00C0.9000
T04F00S00C1.0000
T05F00S00C1.0500
T06F00S00C1.0922
%
T01
X0042Y0046
Y0051
T02
X0064Y003
X00865Y0031
X01115Y0064
X0113115Y0078385
X0046Y0048
X0042Y0043
T03
X008169Y007069
Y007323
Y007577
Y007831
X008931
Y007577
Y007323
Y007069
X011069Y006769
X011323
X011577
X011831
Y007531
X011577
X011323
X011069
X00505Y0049
Y00465
Y0044
T04
X0152Y0052
X01545
T05
X0063Y006523
Y007477
T06
X00695Y00312642
X0086Y00352642
X01302642Y004
X01242358Y0048
X0137Y006
X01525Y0068
X015Y004
X01045Y0048
X0086Y0055
X00695Y0051
X00435Y0058
Y00777358
X00502642Y00865
X007
X0137Y00797358
X01525Y00877358
M30
