%TF.GenerationSoftware,Altium Limited,Altium Designer,24.9.1 (31)*%
G04 Layer_Color=8388736*
%FSLAX45Y45*%
%MOMM*%
%TF.SameCoordinates,90D1A1F6-6801-43AA-A97B-90F854C06351*%
%TF.FilePolarity,Negative*%
%TF.FileFunction,Soldermask,Top*%
%TF.Part,Single*%
G01*
G75*
%TA.AperFunction,ComponentPad*%
%ADD12C,1.20000*%
%ADD13R,1.20000X1.20000*%
%ADD14C,1.60020*%
%ADD15R,1.60020X1.60020*%
%ADD19R,1.60020X1.60020*%
%ADD20C,1.40000*%
%ADD21R,1.40000X1.40000*%
%ADD22C,1.55000*%
%ADD23R,1.55000X1.55000*%
%ADD29R,1.70320X1.70320*%
%ADD30C,1.70320*%
%ADD31R,1.70320X1.70320*%
%ADD32C,1.75320*%
%TA.AperFunction,ViaPad*%
%ADD33C,1.47320*%
D12*
X4200000Y4600000D02*
D03*
D13*
Y5100000D02*
D03*
D14*
X8600000Y5500000D02*
D03*
X6950000Y5100000D02*
D03*
X7000000Y8650000D02*
D03*
X15250000Y8773580D02*
D03*
X13026421Y4000000D02*
D03*
X4350000Y7773580D02*
D03*
X10450000Y4800000D02*
D03*
X13700000Y6000000D02*
D03*
D15*
X8600000Y3526420D02*
D03*
X6950000Y3126420D02*
D03*
X15250000Y6800000D02*
D03*
X4350000Y5800000D02*
D03*
X13700000Y7973580D02*
D03*
D19*
X5026420Y8650000D02*
D03*
X15000000Y4000000D02*
D03*
X12423580Y4800000D02*
D03*
D20*
X5050000Y4900000D02*
D03*
Y4650000D02*
D03*
D21*
Y4400000D02*
D03*
D22*
X15450000Y5200000D02*
D03*
D23*
X15200000D02*
D03*
D29*
X11831000Y7531000D02*
D03*
D30*
X11577000D02*
D03*
X11323000D02*
D03*
X11069000D02*
D03*
X11831000Y6769000D02*
D03*
X11577000D02*
D03*
X11323000D02*
D03*
X11069000D02*
D03*
X8169000Y7577000D02*
D03*
Y7323000D02*
D03*
Y7069000D02*
D03*
X8931000Y7831000D02*
D03*
Y7577000D02*
D03*
Y7323000D02*
D03*
Y7069000D02*
D03*
D31*
X8169000Y7831000D02*
D03*
D32*
X6300000Y6523000D02*
D03*
Y7477000D02*
D03*
D33*
X4200000Y4300000D02*
D03*
X11311500Y7838500D02*
D03*
X11150000Y6400000D02*
D03*
X6400000Y3000000D02*
D03*
X8650000Y3100000D02*
D03*
X4600000Y4800000D02*
D03*
%TF.MD5,7651ff740bf6005e690f71011bfc0e43*%
M02*
