%TF.GenerationSoftware,Altium Limited,Altium Designer,24.9.1 (31)*%
G04 Layer_Physical_Order=1*
G04 Layer_Color=255*
%FSLAX45Y45*%
%MOMM*%
%TF.SameCoordinates,90D1A1F6-6801-43AA-A97B-90F854C06351*%
%TF.FilePolarity,Positive*%
%TF.FileFunction,Copper,L1,Top,Signal*%
%TF.Part,Single*%
G01*
G75*
%TA.AperFunction,Conductor*%
%ADD10C,0.25400*%
%TA.AperFunction,NonConductor*%
%ADD11C,0.25400*%
%TA.AperFunction,ComponentPad*%
%ADD12C,1.20000*%
%ADD13R,1.20000X1.20000*%
%ADD14C,1.60020*%
%ADD15R,1.60020X1.60020*%
%ADD16R,1.50000X1.50000*%
%ADD17C,1.50000*%
%ADD18R,1.50000X1.50000*%
%ADD19R,1.60020X1.60020*%
%ADD20C,1.40000*%
%ADD21R,1.40000X1.40000*%
%ADD22C,1.55000*%
%ADD23R,1.55000X1.55000*%
%TA.AperFunction,ViaPad*%
%ADD24C,1.27000*%
D10*
X4200000Y4300000D02*
Y4600000D01*
Y5100000D02*
Y5250000D01*
X7277000Y6523000D02*
X7577000D01*
X8300000Y5500000D02*
X8600000D01*
X7277000Y6523000D02*
X8300000Y5500000D01*
X6300000Y6523000D02*
X7277000D01*
X7577000D02*
X8055900Y6044100D01*
Y7115848D01*
X11311500Y7542500D02*
Y7838500D01*
Y7542500D02*
X11323000Y7531000D01*
X9150906Y8050000D02*
X12482040D01*
X8931906Y7831000D02*
X9150906Y8050000D01*
X12482040D02*
X12523730Y8091690D01*
X8931000Y7831000D02*
X8931906D01*
X9029221Y7820779D02*
X9157497Y7692503D01*
X8941221Y7820779D02*
X9029221D01*
X8931000Y7831000D02*
X8941221Y7820779D01*
X9157497Y7692503D02*
X11067444D01*
X11069000Y6481000D02*
Y6769000D01*
Y6481000D02*
X11150000Y6400000D01*
X8600000Y3177493D02*
X8650000Y3127493D01*
Y3100000D02*
Y3127493D01*
X8600000Y3177493D02*
Y3526420D01*
X6823580Y3000000D02*
X6950000Y3126420D01*
X6400000Y3000000D02*
X6823580D01*
X4950000Y4800000D02*
X5050000Y4900000D01*
X4600000Y4800000D02*
X4950000D01*
X15200000Y6750000D02*
X15250000Y6800000D01*
X15186423Y6736422D02*
X15200000Y6750000D01*
X13443159Y6655900D02*
X13523682Y6736422D01*
X11784152Y6655900D02*
X13443159D01*
X11690100Y6749952D02*
Y6815847D01*
Y6749952D02*
X11784152Y6655900D01*
X11463900Y7042048D02*
X11690100Y6815847D01*
X11463900Y7042048D02*
Y7577847D01*
X13523682Y6736422D02*
X15186423D01*
X11463900Y7577847D02*
X11530152Y7644100D01*
X11624026D01*
X11674826Y7593300D01*
X11768700D01*
X11831000Y7531000D01*
X11944100Y7368376D02*
X12198806Y7623082D01*
X13563403D01*
X11944100Y6882100D02*
Y7368376D01*
X13818111Y7877788D02*
X14521242D01*
X13563403Y7623082D02*
X13818111Y7877788D01*
X11831000Y6769000D02*
X11944100Y6882100D01*
X14521242Y7877788D02*
X15368111Y8724657D01*
X11921782Y7417900D02*
X12477462Y7973580D01*
X13700000D01*
Y8000000D02*
X13726421D01*
X14500000Y8773580D02*
X15250000D01*
X13726421Y8000000D02*
X14500000Y8773580D01*
X15368111Y8724657D02*
Y8822503D01*
X13746268Y8091690D02*
X14546268Y8891690D01*
X15298923D01*
X15368111Y8822503D01*
X12523730Y8091690D02*
X13746268D01*
X13700000Y7973580D02*
Y8000000D01*
X11577000Y7531000D02*
X11690100Y7417900D01*
X11921782D01*
X13700000Y6000000D02*
X14191119D01*
X15293282Y5084400D02*
X15315601Y5106719D01*
Y5229083D01*
X15497884Y5315600D02*
X15565601Y5247883D01*
X14973579Y4386587D02*
X15565601Y4978607D01*
X15315601Y5229083D02*
X15402116Y5315600D01*
X15106718Y5084400D02*
X15293282D01*
X15034877D02*
X15085677Y5033600D01*
X15402116Y5315600D02*
X15497884D01*
X15366400Y5085677D02*
Y5116400D01*
X13007600Y5084400D02*
X15034877D01*
X14191119Y6000000D02*
X15106718Y5084400D01*
X15085677Y5033600D02*
X15314323D01*
X15366400Y5116400D02*
X15450000Y5200000D01*
X14973579Y4050000D02*
Y4386587D01*
X15565601Y4978607D02*
Y5247883D01*
X15314323Y5033600D02*
X15366400Y5085677D01*
X12423580Y5668420D02*
X13007600Y5084400D01*
X12423580Y4626420D02*
X13000000Y4050000D01*
X12423580Y4626420D02*
Y4800000D01*
X15200000Y5200000D02*
Y6750000D01*
X11577000Y6769000D02*
X12346000Y6000000D01*
X13700000D01*
X11323000Y6769000D02*
X12423580Y5668420D01*
Y4800000D02*
Y5668420D01*
X10955900Y5067025D02*
Y6494100D01*
X10905100Y6544900D02*
X10955900Y6494100D01*
X10905100Y6922874D02*
X11182100Y7199874D01*
X10905100Y6544900D02*
Y6922874D01*
X11067444Y7692503D02*
X11182100Y7577847D01*
Y7199874D02*
Y7577847D01*
X10772041Y7234041D02*
X11069000Y7531000D01*
X10772041Y4955008D02*
Y7234041D01*
X10498923Y4681890D02*
X10772041Y4955008D01*
X10519964Y4631090D02*
X10955900Y5067025D01*
X10401077Y4681890D02*
X10498923D01*
X9248400Y5834567D02*
X10401077Y4681890D01*
X10329235D02*
X10380035Y4631090D01*
X9248400Y5834567D02*
Y5989600D01*
X8169000Y7069000D02*
X9248400Y5989600D01*
X10380035Y4631090D02*
X10519964D01*
X8020765Y4681890D02*
X10329235D01*
X9299200Y5950800D02*
X10450000Y4800000D01*
X8215848Y7182100D02*
X9299200Y6098748D01*
Y5950800D02*
Y6098748D01*
X8122153Y7182100D02*
X8215848D01*
X8055900Y7115848D02*
X8122153Y7182100D01*
X7738875Y4400000D02*
X8020765Y4681890D01*
X8128535Y4861503D02*
X8718110Y5451077D01*
Y5602857D01*
X5261503Y4861503D02*
X8128535D01*
X5050000Y4650000D02*
X5261503Y4861503D01*
X6936517Y7323000D02*
X8169000D01*
X6184400Y6570883D02*
X6936517Y7323000D01*
X6184400Y6236456D02*
Y6570883D01*
Y6236456D02*
X6950000Y5470856D01*
Y5100000D02*
Y5470856D01*
X5050000Y4400000D02*
X7738875D01*
X8169000Y6151967D02*
Y7069000D01*
X5097123Y5100000D02*
X6950000D01*
X8169000Y6151967D02*
X8718110Y5602857D01*
X4999023Y5001900D02*
X5097123Y5100000D01*
X3974218Y5001900D02*
X4999023D01*
X3951900Y5024218D02*
Y5175782D01*
X4482989Y5706871D01*
Y5785121D01*
X4468110Y5800000D02*
X4482989Y5785121D01*
X4350000Y5800000D02*
X4468110D01*
X3951900Y5024218D02*
X3974218Y5001900D01*
X5238209Y6288209D02*
X5274692D01*
X4200000Y5250000D02*
X5238209Y6288209D01*
X8055900Y7594100D02*
X8151900D01*
X7000000Y8650000D02*
X8055900Y7594100D01*
X8151900D02*
X8169000Y7577000D01*
X7231890Y8768110D02*
X8169000Y7831000D01*
X6951077Y8768110D02*
X7231890D01*
X6637938Y7814938D02*
Y8454970D01*
X6951077Y8768110D01*
X6300000Y7477000D02*
X6637938Y7814938D01*
X7000000Y8013517D02*
Y8650000D01*
X5274692Y6288209D02*
X7000000Y8013517D01*
X6003420Y7773580D02*
X6300000Y7477000D01*
X4350000Y7773580D02*
X6003420D01*
X4976420Y8600000D02*
X5026420Y8650000D01*
X4764879Y8600000D02*
X4976420D01*
X4750000Y8173580D02*
Y8585121D01*
X4764879Y8600000D01*
X4350000Y7773580D02*
X4750000Y8173580D01*
D11*
X11775400Y3175400D02*
Y3327751D01*
X11826184Y3276967D01*
X11876967Y3327751D01*
Y3175400D01*
X12003926D02*
X11953143D01*
X11927751Y3200792D01*
Y3251575D01*
X11953143Y3276967D01*
X12003926D01*
X12029318Y3251575D01*
Y3226184D01*
X11927751D01*
X12105493Y3302359D02*
Y3276967D01*
X12080102D01*
X12130885D01*
X12105493D01*
Y3200792D01*
X12130885Y3175400D01*
X12207060Y3276967D02*
Y3175400D01*
Y3226184D01*
X12232452Y3251575D01*
X12257844Y3276967D01*
X12283236D01*
X12384803D02*
X12435587D01*
X12460978Y3251575D01*
Y3175400D01*
X12384803D01*
X12359411Y3200792D01*
X12384803Y3226184D01*
X12460978D01*
X12664113Y3327751D02*
Y3175400D01*
X12714896Y3226184D01*
X12765680Y3175400D01*
Y3327751D01*
X12841855Y3276967D02*
X12892639D01*
X12918031Y3251575D01*
Y3175400D01*
X12841855D01*
X12816463Y3200792D01*
X12841855Y3226184D01*
X12918031D01*
X12968814Y3276967D02*
X13019598Y3175400D01*
X13070381Y3276967D01*
X13197340Y3175400D02*
X13146558D01*
X13121165Y3200792D01*
Y3251575D01*
X13146558Y3276967D01*
X13197340D01*
X13222733Y3251575D01*
Y3226184D01*
X13121165D01*
D12*
X4200000Y4600000D02*
D03*
D13*
Y5100000D02*
D03*
D14*
X8600000Y5500000D02*
D03*
X6950000Y5100000D02*
D03*
X7000000Y8650000D02*
D03*
X15250000Y8773580D02*
D03*
X13026421Y4000000D02*
D03*
X4350000Y7773580D02*
D03*
X10450000Y4800000D02*
D03*
X13700000Y6000000D02*
D03*
D15*
X8600000Y3526420D02*
D03*
X6950000Y3126420D02*
D03*
X15250000Y6800000D02*
D03*
X4350000Y5800000D02*
D03*
X13700000Y7973580D02*
D03*
D16*
X11831000Y7531000D02*
D03*
D17*
X11577000D02*
D03*
X11323000D02*
D03*
X11069000D02*
D03*
X11831000Y6769000D02*
D03*
X11577000D02*
D03*
X11323000D02*
D03*
X11069000D02*
D03*
X8169000Y7577000D02*
D03*
Y7323000D02*
D03*
Y7069000D02*
D03*
X8931000Y7831000D02*
D03*
Y7577000D02*
D03*
Y7323000D02*
D03*
Y7069000D02*
D03*
D18*
X8169000Y7831000D02*
D03*
D19*
X5026420Y8650000D02*
D03*
X15000000Y4000000D02*
D03*
X12423580Y4800000D02*
D03*
D20*
X5050000Y4900000D02*
D03*
Y4650000D02*
D03*
D21*
Y4400000D02*
D03*
D22*
X6300000Y6523000D02*
D03*
Y7477000D02*
D03*
X15450000Y5200000D02*
D03*
D23*
X15200000D02*
D03*
D24*
X4200000Y4300000D02*
D03*
X11311500Y7838500D02*
D03*
X11150000Y6400000D02*
D03*
X6400000Y3000000D02*
D03*
X8650000Y3100000D02*
D03*
X4600000Y4800000D02*
D03*
%TF.MD5,5e19d2a36fa4cc0a765841cfab130bb6*%
M02*
