%TF.GenerationSoftware,Altium Limited,Altium Designer,24.9.1 (31)*%
G04 Layer_Color=0*
%FSLAX45Y45*%
%MOMM*%
%TF.SameCoordinates,90D1A1F6-6801-43AA-A97B-90F854C06351*%
%TF.FilePolarity,Positive*%
%TF.FileFunction,Plated,1,2,PTH,Drill*%
%TF.Part,Single*%
G01*
G75*
%TA.AperFunction,ComponentDrill*%
%ADD40C,0.70000*%
%ADD41C,1.09220*%
%ADD42C,0.90000*%
%ADD43C,0.90000*%
%ADD44C,1.09220*%
%ADD45C,1.05000*%
%ADD46C,1.00000*%
%TA.AperFunction,ViaDrill,NotFilled*%
%ADD47C,0.71120*%
D40*
X4200000Y4600000D02*
D03*
Y5100000D02*
D03*
D41*
X8600000Y5500000D02*
D03*
Y3526420D02*
D03*
X6950000Y5100000D02*
D03*
Y3126420D02*
D03*
X15250000Y8773580D02*
D03*
Y6800000D02*
D03*
X4350000Y7773580D02*
D03*
Y5800000D02*
D03*
X13700000Y6000000D02*
D03*
Y7973580D02*
D03*
D42*
X11831000Y7531000D02*
D03*
X11577000D02*
D03*
X11323000D02*
D03*
X11069000D02*
D03*
X11831000Y6769000D02*
D03*
X11577000D02*
D03*
X11323000D02*
D03*
X11069000D02*
D03*
X5050000Y4900000D02*
D03*
Y4650000D02*
D03*
Y4400000D02*
D03*
D43*
X8169000Y7831000D02*
D03*
Y7577000D02*
D03*
Y7323000D02*
D03*
Y7069000D02*
D03*
X8931000Y7831000D02*
D03*
Y7577000D02*
D03*
Y7323000D02*
D03*
Y7069000D02*
D03*
D44*
X7000000Y8650000D02*
D03*
X5026420D02*
D03*
X13026421Y4000000D02*
D03*
X15000000D02*
D03*
X10450000Y4800000D02*
D03*
X12423580D02*
D03*
D45*
X6300000Y6523000D02*
D03*
Y7477000D02*
D03*
D46*
X15450000Y5200000D02*
D03*
X15200000D02*
D03*
D47*
X4200000Y4300000D02*
D03*
X11311500Y7838500D02*
D03*
X11150000Y6400000D02*
D03*
X6400000Y3000000D02*
D03*
X8650000Y3100000D02*
D03*
X4600000Y4800000D02*
D03*
%TF.MD5,a1a8d6887b85366a819176d707e31edd*%
M02*
