%TF.GenerationSoftware,Altium Limited,Altium Designer,24.9.1 (31)*%
G04 Layer_Color=16711935*
%FSLAX45Y45*%
%MOMM*%
%TF.SameCoordinates,90D1A1F6-6801-43AA-A97B-90F854C06351*%
%TF.FilePolarity,Positive*%
%TF.FileFunction,Other,Mechanical_1*%
%TF.Part,Single*%
G01*
G75*
%TA.AperFunction,NonConductor*%
%ADD34C,0.17780*%
D34*
X11500767Y7302400D02*
Y7268544D01*
Y7285472D01*
X11399200D01*
Y7302400D01*
Y7268544D01*
Y7217761D02*
X11466911D01*
Y7166977D01*
X11449983Y7150049D01*
X11399200D01*
X11466911Y7116193D02*
X11399200Y7082338D01*
X11466911Y7048482D01*
X11399200Y6963843D02*
Y6997698D01*
X11416128Y7014626D01*
X11449983D01*
X11466911Y6997698D01*
Y6963843D01*
X11449983Y6946915D01*
X11433056D01*
Y7014626D01*
X11466911Y6913059D02*
X11399200D01*
X11433056D01*
X11449983Y6896131D01*
X11466911Y6879203D01*
Y6862275D01*
X11483839Y6794564D02*
X11466911D01*
Y6811492D01*
Y6777636D01*
Y6794564D01*
X11416128D01*
X11399200Y6777636D01*
Y6726852D02*
Y6692997D01*
Y6709924D01*
X11466911D01*
Y6726852D01*
X11399200Y6642213D02*
X11466911D01*
Y6591429D01*
X11449983Y6574501D01*
X11399200D01*
X11365344Y6506790D02*
Y6489862D01*
X11382272Y6472934D01*
X11466911D01*
Y6523718D01*
X11449983Y6540646D01*
X11416128D01*
X11399200Y6523718D01*
Y6472934D01*
Y6439078D02*
X11466911D01*
X11500767Y6405223D01*
X11466911Y6371367D01*
X11399200D01*
X11449983D01*
Y6439078D01*
X11399200Y6337511D02*
X11466911D01*
Y6320583D01*
X11449983Y6303655D01*
X11399200D01*
X11449983D01*
X11466911Y6286728D01*
X11449983Y6269800D01*
X11399200D01*
X11365344Y6235944D02*
X11466911D01*
Y6185160D01*
X11449983Y6168233D01*
X11416128D01*
X11399200Y6185160D01*
Y6235944D01*
X8397600Y7399200D02*
Y7500767D01*
X8431456Y7466911D01*
X8465311Y7500767D01*
Y7399200D01*
X8499167Y7466911D02*
Y7416128D01*
X8516095Y7399200D01*
X8566879D01*
Y7466911D01*
X8600735Y7399200D02*
X8634590D01*
X8617662D01*
Y7500767D01*
X8600735D01*
X8702302Y7483839D02*
Y7466911D01*
X8685374D01*
X8719230D01*
X8702302D01*
Y7416128D01*
X8719230Y7399200D01*
X8770013D02*
X8803869D01*
X8786941D01*
Y7466911D01*
X8770013D01*
X8854653Y7500767D02*
Y7433056D01*
X8888509Y7399200D01*
X8922364Y7433056D01*
Y7500767D01*
X8956220Y7399200D02*
X8990076D01*
X8973148D01*
Y7466911D01*
X8956220D01*
X9040859Y7500767D02*
Y7399200D01*
X9091643D01*
X9108571Y7416128D01*
Y7433056D01*
Y7449984D01*
X9091643Y7466911D01*
X9040859D01*
X9142427D02*
Y7399200D01*
Y7433056D01*
X9159355Y7449984D01*
X9176282Y7466911D01*
X9193210D01*
X9260922D02*
X9294777D01*
X9311705Y7449984D01*
Y7399200D01*
X9260922D01*
X9243994Y7416128D01*
X9260922Y7433056D01*
X9311705D01*
X9362489Y7483839D02*
Y7466911D01*
X9345561D01*
X9379417D01*
X9362489D01*
Y7416128D01*
X9379417Y7399200D01*
X9447128D02*
X9480984D01*
X9497912Y7416128D01*
Y7449984D01*
X9480984Y7466911D01*
X9447128D01*
X9430201Y7449984D01*
Y7416128D01*
X9447128Y7399200D01*
X9531768Y7466911D02*
Y7399200D01*
Y7433056D01*
X9548696Y7449984D01*
X9565623Y7466911D01*
X9582551D01*
%TF.MD5,0374c3af1b895b195ab2db9a154277ff*%
M02*
