%TF.GenerationSoftware,Altium Limited,Altium Designer,24.9.1 (31)*%
G04 Layer_Color=16711935*
%FSLAX45Y45*%
%MOMM*%
%TF.SameCoordinates,90D1A1F6-6801-43AA-A97B-90F854C06351*%
%TF.FilePolarity,Positive*%
%TF.FileFunction,Other,Top_Assembly*%
%TF.Part,Single*%
G01*
G75*
%TA.AperFunction,NonConductor*%
%ADD26C,0.20000*%
G36*
X4235224Y4849909D02*
X4236149D01*
X4237073Y4849816D01*
X4238275Y4849724D01*
X4239477Y4849539D01*
X4242158Y4849076D01*
X4245117Y4848429D01*
X4248076Y4847505D01*
X4250942Y4846210D01*
X4251034Y4846118D01*
X4251312Y4846025D01*
X4251681Y4845840D01*
X4252144Y4845471D01*
X4252791Y4845101D01*
X4253530Y4844639D01*
X4255195Y4843437D01*
X4257044Y4841865D01*
X4258893Y4840016D01*
X4260742Y4837889D01*
X4262314Y4835393D01*
X4262406Y4835300D01*
X4262499Y4835023D01*
X4262684Y4834653D01*
X4262961Y4834191D01*
X4263238Y4833451D01*
X4263516Y4832712D01*
X4263886Y4831787D01*
X4264255Y4830770D01*
X4264625Y4829661D01*
X4264995Y4828459D01*
X4265550Y4825870D01*
X4266012Y4822911D01*
X4266197Y4819860D01*
Y4818936D01*
X4266104Y4818289D01*
X4266012Y4817456D01*
X4265920Y4816439D01*
X4265827Y4815422D01*
X4265550Y4814220D01*
X4264995Y4811724D01*
X4264163Y4808951D01*
X4263608Y4807564D01*
X4262961Y4806269D01*
X4262129Y4804975D01*
X4261297Y4803681D01*
X4261204Y4803588D01*
X4261112Y4803403D01*
X4260835Y4803033D01*
X4260372Y4802571D01*
X4259910Y4802109D01*
X4259263Y4801462D01*
X4258523Y4800814D01*
X4257783Y4800075D01*
X4256859Y4799335D01*
X4255749Y4798595D01*
X4254640Y4797763D01*
X4253438Y4797024D01*
X4252051Y4796376D01*
X4250664Y4795637D01*
X4249185Y4795082D01*
X4247521Y4794527D01*
X4245579Y4802848D01*
X4245672D01*
X4245857Y4802941D01*
X4246226Y4803126D01*
X4246689Y4803311D01*
X4247243Y4803496D01*
X4247983Y4803773D01*
X4249462Y4804513D01*
X4251127Y4805437D01*
X4252791Y4806547D01*
X4254363Y4807933D01*
X4255749Y4809413D01*
X4255934Y4809598D01*
X4256304Y4810152D01*
X4256766Y4811077D01*
X4257414Y4812279D01*
X4257968Y4813851D01*
X4258523Y4815607D01*
X4258893Y4817734D01*
X4258985Y4820045D01*
Y4820785D01*
X4258893Y4821247D01*
Y4821894D01*
X4258800Y4822634D01*
X4258523Y4824391D01*
X4258153Y4826332D01*
X4257506Y4828366D01*
X4256582Y4830493D01*
X4255380Y4832434D01*
Y4832527D01*
X4255195Y4832619D01*
X4254732Y4833266D01*
X4253993Y4834099D01*
X4252883Y4835116D01*
X4251496Y4836317D01*
X4249925Y4837427D01*
X4247983Y4838444D01*
X4245857Y4839369D01*
X4245764D01*
X4245579Y4839461D01*
X4245302Y4839553D01*
X4244840Y4839646D01*
X4244285Y4839831D01*
X4243638Y4840016D01*
X4242066Y4840293D01*
X4240217Y4840663D01*
X4238183Y4841033D01*
X4235964Y4841218D01*
X4233560Y4841310D01*
X4233468D01*
X4233190D01*
X4232728D01*
X4232173D01*
X4231526Y4841218D01*
X4230694D01*
X4229769Y4841125D01*
X4228752Y4841033D01*
X4226533Y4840755D01*
X4224129Y4840293D01*
X4221726Y4839738D01*
X4219322Y4838999D01*
X4219229D01*
X4219044Y4838906D01*
X4218767Y4838721D01*
X4218305Y4838536D01*
X4217195Y4837982D01*
X4215901Y4837150D01*
X4214422Y4836133D01*
X4212850Y4834838D01*
X4211463Y4833359D01*
X4210169Y4831602D01*
Y4831510D01*
X4210076Y4831325D01*
X4209891Y4831047D01*
X4209706Y4830678D01*
X4209521Y4830215D01*
X4209244Y4829661D01*
X4208689Y4828366D01*
X4208135Y4826702D01*
X4207672Y4824853D01*
X4207302Y4822819D01*
X4207210Y4820692D01*
Y4820045D01*
X4207302Y4819490D01*
Y4818843D01*
X4207395Y4818196D01*
X4207765Y4816532D01*
X4208227Y4814590D01*
X4208967Y4812649D01*
X4209984Y4810615D01*
X4210538Y4809598D01*
X4211278Y4808673D01*
X4211371Y4808581D01*
X4211463Y4808488D01*
X4211740Y4808211D01*
X4212018Y4807841D01*
X4212480Y4807471D01*
X4213035Y4807009D01*
X4213589Y4806454D01*
X4214329Y4805992D01*
X4215161Y4805437D01*
X4216086Y4804790D01*
X4217010Y4804235D01*
X4218120Y4803681D01*
X4219322Y4803218D01*
X4220616Y4802756D01*
X4222003Y4802294D01*
X4223482Y4801924D01*
X4221356Y4793418D01*
X4221263D01*
X4220894Y4793510D01*
X4220339Y4793695D01*
X4219599Y4793973D01*
X4218767Y4794250D01*
X4217750Y4794620D01*
X4216641Y4795082D01*
X4215439Y4795637D01*
X4212850Y4796931D01*
X4210261Y4798595D01*
X4208967Y4799612D01*
X4207672Y4800629D01*
X4206563Y4801739D01*
X4205453Y4803033D01*
X4205361Y4803126D01*
X4205176Y4803311D01*
X4204991Y4803773D01*
X4204621Y4804235D01*
X4204159Y4804975D01*
X4203697Y4805715D01*
X4203234Y4806732D01*
X4202772Y4807749D01*
X4202217Y4808951D01*
X4201755Y4810245D01*
X4201293Y4811632D01*
X4200831Y4813111D01*
X4200461Y4814683D01*
X4200276Y4816347D01*
X4200091Y4818104D01*
X4199998Y4819953D01*
Y4820970D01*
X4200091Y4821709D01*
Y4822542D01*
X4200183Y4823559D01*
X4200368Y4824668D01*
X4200553Y4825962D01*
X4201015Y4828644D01*
X4201755Y4831417D01*
X4202772Y4834191D01*
X4203419Y4835485D01*
X4204159Y4836780D01*
X4204251Y4836872D01*
X4204344Y4837057D01*
X4204621Y4837427D01*
X4204991Y4837797D01*
X4205361Y4838352D01*
X4205916Y4838999D01*
X4206563Y4839738D01*
X4207302Y4840478D01*
X4208135Y4841218D01*
X4208967Y4842050D01*
X4211093Y4843714D01*
X4213589Y4845286D01*
X4216363Y4846673D01*
X4216456D01*
X4216733Y4846857D01*
X4217195Y4846950D01*
X4217750Y4847227D01*
X4218490Y4847412D01*
X4219414Y4847690D01*
X4220431Y4848059D01*
X4221541Y4848337D01*
X4222743Y4848614D01*
X4224129Y4848984D01*
X4226996Y4849446D01*
X4230232Y4849816D01*
X4233560Y4850001D01*
X4233652D01*
X4234022D01*
X4234577D01*
X4235224Y4849909D01*
D02*
G37*
G36*
X4249278Y4780104D02*
X4249462Y4779919D01*
X4249555Y4779549D01*
X4249832Y4779087D01*
X4250110Y4778532D01*
X4250479Y4777885D01*
X4251404Y4776314D01*
X4252421Y4774464D01*
X4253715Y4772615D01*
X4255195Y4770674D01*
X4256766Y4768732D01*
X4256859Y4768640D01*
X4256951Y4768547D01*
X4257229Y4768270D01*
X4257506Y4767900D01*
X4258431Y4767068D01*
X4259540Y4765958D01*
X4260835Y4764849D01*
X4262314Y4763647D01*
X4263793Y4762630D01*
X4265365Y4761705D01*
Y4756620D01*
X4201108D01*
Y4764479D01*
X4251127D01*
X4251034Y4764572D01*
X4250664Y4765034D01*
X4250110Y4765589D01*
X4249462Y4766513D01*
X4248630Y4767530D01*
X4247706Y4768825D01*
X4246689Y4770304D01*
X4245672Y4771968D01*
Y4772061D01*
X4245579Y4772153D01*
X4245209Y4772708D01*
X4244747Y4773632D01*
X4244192Y4774742D01*
X4243545Y4776036D01*
X4242898Y4777423D01*
X4242251Y4778810D01*
X4241696Y4780197D01*
X4249278D01*
Y4780104D01*
D02*
G37*
G36*
X5120215Y4717585D02*
X5070196D01*
X5070288Y4717493D01*
X5070658Y4717031D01*
X5071213Y4716476D01*
X5071860Y4715551D01*
X5072692Y4714534D01*
X5073617Y4713240D01*
X5074634Y4711761D01*
X5075651Y4710096D01*
Y4710004D01*
X5075743Y4709912D01*
X5076113Y4709357D01*
X5076575Y4708432D01*
X5077130Y4707323D01*
X5077777Y4706028D01*
X5078424Y4704642D01*
X5079072Y4703255D01*
X5079626Y4701868D01*
X5072045D01*
Y4701960D01*
X5071860Y4702145D01*
X5071768Y4702515D01*
X5071490Y4702977D01*
X5071213Y4703532D01*
X5070843Y4704179D01*
X5069918Y4705751D01*
X5068901Y4707600D01*
X5067607Y4709449D01*
X5066128Y4711391D01*
X5064556Y4713332D01*
X5064464Y4713425D01*
X5064371Y4713517D01*
X5064094Y4713795D01*
X5063816Y4714165D01*
X5062892Y4714997D01*
X5061782Y4716106D01*
X5060488Y4717216D01*
X5059009Y4718418D01*
X5057529Y4719435D01*
X5055958Y4720359D01*
Y4725444D01*
X5120215D01*
Y4717585D01*
D02*
G37*
G36*
X5101908Y4685133D02*
X5102648D01*
X5104405Y4684948D01*
X5106439Y4684764D01*
X5108565Y4684394D01*
X5110507Y4683839D01*
X5112356Y4683192D01*
X5112448D01*
X5112541Y4683099D01*
X5113095Y4682822D01*
X5113835Y4682360D01*
X5114852Y4681713D01*
X5115869Y4680788D01*
X5116979Y4679771D01*
X5118088Y4678477D01*
X5119013Y4676997D01*
X5119105Y4676812D01*
X5119382Y4676258D01*
X5119752Y4675425D01*
X5120122Y4674224D01*
X5120584Y4672744D01*
X5120954Y4671080D01*
X5121232Y4669231D01*
X5121324Y4667197D01*
Y4666365D01*
X5121232Y4665810D01*
X5121139Y4665070D01*
X5121047Y4664331D01*
X5120677Y4662389D01*
X5120122Y4660355D01*
X5119290Y4658229D01*
X5118735Y4657119D01*
X5118088Y4656102D01*
X5117348Y4655178D01*
X5116516Y4654253D01*
X5116424Y4654161D01*
X5116331Y4654068D01*
X5115962Y4653883D01*
X5115592Y4653606D01*
X5115129Y4653236D01*
X5114482Y4652866D01*
X5113743Y4652496D01*
X5112911Y4652034D01*
X5111986Y4651664D01*
X5110876Y4651294D01*
X5109767Y4650925D01*
X5108473Y4650555D01*
X5107086Y4650370D01*
X5105514Y4650093D01*
X5103942Y4650000D01*
X5102186D01*
X5101076Y4657674D01*
X5101169D01*
X5101354D01*
X5101723D01*
X5102278Y4657766D01*
X5102833Y4657859D01*
X5103480D01*
X5105052Y4658136D01*
X5106716Y4658414D01*
X5108380Y4658968D01*
X5109859Y4659523D01*
X5110507Y4659893D01*
X5111061Y4660355D01*
X5111154Y4660448D01*
X5111431Y4660817D01*
X5111894Y4661372D01*
X5112356Y4662112D01*
X5112911Y4663129D01*
X5113280Y4664238D01*
X5113650Y4665625D01*
X5113743Y4667104D01*
Y4667659D01*
X5113650Y4668214D01*
X5113558Y4669046D01*
X5113373Y4669878D01*
X5113188Y4670803D01*
X5112818Y4671727D01*
X5112356Y4672652D01*
X5112263Y4672744D01*
X5112078Y4673022D01*
X5111709Y4673391D01*
X5111339Y4673946D01*
X5110692Y4674408D01*
X5110044Y4674963D01*
X5109305Y4675425D01*
X5108380Y4675795D01*
X5108288D01*
X5107918Y4675980D01*
X5107271Y4676073D01*
X5106439Y4676258D01*
X5105329Y4676443D01*
X5103942Y4676535D01*
X5102278Y4676720D01*
X5100337D01*
X5056235D01*
Y4685226D01*
X5099874D01*
X5099967D01*
X5100244D01*
X5100614D01*
X5101169D01*
X5101908Y4685133D01*
D02*
G37*
G36*
X15360225Y5168949D02*
Y5168856D01*
Y5168579D01*
Y5168209D01*
Y5167654D01*
X15360132Y5166914D01*
Y5166175D01*
X15359947Y5164418D01*
X15359763Y5162384D01*
X15359392Y5160258D01*
X15358838Y5158316D01*
X15358191Y5156467D01*
Y5156374D01*
X15358098Y5156282D01*
X15357822Y5155727D01*
X15357358Y5154988D01*
X15356711Y5153971D01*
X15355788Y5152954D01*
X15354770Y5151844D01*
X15353474Y5150735D01*
X15351996Y5149810D01*
X15351811Y5149718D01*
X15351256Y5149440D01*
X15350424Y5149070D01*
X15349222Y5148701D01*
X15347743Y5148238D01*
X15346078Y5147869D01*
X15344231Y5147591D01*
X15342197Y5147499D01*
X15341364D01*
X15340810Y5147591D01*
X15340070Y5147684D01*
X15339330Y5147776D01*
X15337389Y5148146D01*
X15335355Y5148701D01*
X15333228Y5149533D01*
X15332118Y5150087D01*
X15331100Y5150735D01*
X15330176Y5151474D01*
X15329253Y5152306D01*
X15329160Y5152399D01*
X15329066Y5152491D01*
X15328882Y5152861D01*
X15328606Y5153231D01*
X15328235Y5153693D01*
X15327866Y5154340D01*
X15327495Y5155080D01*
X15327032Y5155912D01*
X15326663Y5156837D01*
X15326292Y5157946D01*
X15325923Y5159056D01*
X15325554Y5160350D01*
X15325369Y5161737D01*
X15325092Y5163309D01*
X15324998Y5164880D01*
Y5166637D01*
X15332674Y5167747D01*
Y5167654D01*
Y5167469D01*
Y5167099D01*
X15332765Y5166545D01*
X15332858Y5165990D01*
Y5165343D01*
X15333134Y5163771D01*
X15333412Y5162107D01*
X15333968Y5160443D01*
X15334521Y5158963D01*
X15334892Y5158316D01*
X15335355Y5157761D01*
X15335446Y5157669D01*
X15335815Y5157392D01*
X15336371Y5156929D01*
X15337111Y5156467D01*
X15338129Y5155912D01*
X15339236Y5155542D01*
X15340623Y5155173D01*
X15342104Y5155080D01*
X15342657D01*
X15343213Y5155173D01*
X15344044Y5155265D01*
X15344878Y5155450D01*
X15345801Y5155635D01*
X15346725Y5156005D01*
X15347652Y5156467D01*
X15347743Y5156559D01*
X15348019Y5156744D01*
X15348390Y5157114D01*
X15348946Y5157484D01*
X15349406Y5158131D01*
X15349962Y5158778D01*
X15350424Y5159518D01*
X15350793Y5160443D01*
Y5160535D01*
X15350980Y5160905D01*
X15351071Y5161552D01*
X15351256Y5162384D01*
X15351440Y5163494D01*
X15351534Y5164880D01*
X15351720Y5166545D01*
Y5168486D01*
Y5212588D01*
X15360225D01*
Y5168949D01*
D02*
G37*
G36*
X15393600Y5212773D02*
X15394341Y5212680D01*
X15395265Y5212588D01*
X15396281Y5212403D01*
X15397299Y5212218D01*
X15399702Y5211571D01*
X15402107Y5210646D01*
X15403310Y5210091D01*
X15404510Y5209444D01*
X15405620Y5208612D01*
X15406638Y5207688D01*
X15406731Y5207595D01*
X15406915Y5207503D01*
X15407100Y5207133D01*
X15407471Y5206763D01*
X15407932Y5206301D01*
X15408394Y5205654D01*
X15408856Y5205006D01*
X15409412Y5204174D01*
X15410336Y5202418D01*
X15411259Y5200199D01*
X15411630Y5199089D01*
X15411815Y5197795D01*
X15412000Y5196500D01*
X15412093Y5195114D01*
Y5194929D01*
Y5194466D01*
X15412000Y5193727D01*
X15411906Y5192710D01*
X15411723Y5191600D01*
X15411353Y5190306D01*
X15410983Y5188919D01*
X15410428Y5187532D01*
X15410336Y5187347D01*
X15410152Y5186885D01*
X15409781Y5186145D01*
X15409225Y5185128D01*
X15408487Y5184019D01*
X15407562Y5182632D01*
X15406453Y5181245D01*
X15405157Y5179673D01*
X15404973Y5179488D01*
X15404510Y5178934D01*
X15404050Y5178471D01*
X15403586Y5178009D01*
X15403032Y5177454D01*
X15402292Y5176715D01*
X15401552Y5175975D01*
X15400629Y5175143D01*
X15399702Y5174219D01*
X15398595Y5173201D01*
X15397392Y5172184D01*
X15396097Y5170983D01*
X15394618Y5169781D01*
X15393140Y5168486D01*
X15393047Y5168394D01*
X15392862Y5168209D01*
X15392493Y5167931D01*
X15392029Y5167562D01*
X15391475Y5167007D01*
X15390826Y5166452D01*
X15389348Y5165250D01*
X15387776Y5163863D01*
X15386298Y5162477D01*
X15385004Y5161275D01*
X15384448Y5160812D01*
X15383986Y5160350D01*
X15383893Y5160258D01*
X15383617Y5159980D01*
X15383246Y5159610D01*
X15382784Y5159056D01*
X15382323Y5158409D01*
X15381767Y5157761D01*
X15380656Y5156190D01*
X15412186D01*
Y5148608D01*
X15369748D01*
Y5148701D01*
Y5149070D01*
Y5149625D01*
X15369839Y5150365D01*
X15369933Y5151197D01*
X15370117Y5152122D01*
X15370302Y5153046D01*
X15370673Y5154063D01*
Y5154156D01*
X15370766Y5154248D01*
X15370949Y5154803D01*
X15371320Y5155635D01*
X15371873Y5156744D01*
X15372614Y5158039D01*
X15373538Y5159518D01*
X15374554Y5160997D01*
X15375850Y5162569D01*
Y5162662D01*
X15376035Y5162754D01*
X15376497Y5163309D01*
X15377328Y5164141D01*
X15378531Y5165343D01*
X15379918Y5166730D01*
X15381674Y5168394D01*
X15383801Y5170243D01*
X15386111Y5172184D01*
X15386205Y5172277D01*
X15386575Y5172554D01*
X15387129Y5173017D01*
X15387776Y5173571D01*
X15388609Y5174311D01*
X15389626Y5175143D01*
X15390643Y5176068D01*
X15391846Y5177085D01*
X15394156Y5179304D01*
X15396468Y5181523D01*
X15397577Y5182632D01*
X15398595Y5183741D01*
X15399518Y5184758D01*
X15400258Y5185776D01*
Y5185868D01*
X15400443Y5185960D01*
X15400629Y5186238D01*
X15400813Y5186608D01*
X15401460Y5187625D01*
X15402200Y5188827D01*
X15402847Y5190306D01*
X15403494Y5191878D01*
X15403864Y5193634D01*
X15404050Y5195298D01*
Y5195391D01*
Y5195483D01*
X15403957Y5196038D01*
X15403864Y5196963D01*
X15403586Y5197980D01*
X15403217Y5199274D01*
X15402570Y5200568D01*
X15401736Y5201863D01*
X15400629Y5203157D01*
X15400443Y5203342D01*
X15399982Y5203712D01*
X15399333Y5204174D01*
X15398315Y5204821D01*
X15397021Y5205376D01*
X15395543Y5205931D01*
X15393787Y5206301D01*
X15391846Y5206393D01*
X15391290D01*
X15390919Y5206301D01*
X15389810Y5206208D01*
X15388516Y5205931D01*
X15387129Y5205561D01*
X15385558Y5204914D01*
X15384077Y5204082D01*
X15382690Y5202972D01*
X15382506Y5202787D01*
X15382137Y5202325D01*
X15381583Y5201585D01*
X15381027Y5200476D01*
X15380380Y5199182D01*
X15379825Y5197517D01*
X15379456Y5195668D01*
X15379269Y5193542D01*
X15371227Y5194374D01*
Y5194466D01*
X15371320Y5194744D01*
Y5195206D01*
X15371413Y5195853D01*
X15371597Y5196593D01*
X15371782Y5197425D01*
X15372060Y5198442D01*
X15372336Y5199459D01*
X15373076Y5201678D01*
X15374185Y5203897D01*
X15374834Y5205006D01*
X15375665Y5206116D01*
X15376497Y5207133D01*
X15377422Y5208057D01*
X15377515Y5208150D01*
X15377699Y5208242D01*
X15377975Y5208520D01*
X15378438Y5208797D01*
X15378993Y5209167D01*
X15379640Y5209537D01*
X15380380Y5209999D01*
X15381305Y5210461D01*
X15382323Y5210924D01*
X15383430Y5211386D01*
X15384633Y5211756D01*
X15385927Y5212125D01*
X15387314Y5212403D01*
X15388792Y5212680D01*
X15390366Y5212773D01*
X15392029Y5212865D01*
X15392953D01*
X15393600Y5212773D01*
D02*
G37*
D26*
X4060000Y5170000D02*
X4340000D01*
X4060000Y4530000D02*
Y5170000D01*
Y4530000D02*
X4340000D01*
Y5170000D01*
X4805000Y4145000D02*
X5400000D01*
Y5155000D01*
X4805000D02*
X5400000D01*
X4805000Y4145000D02*
Y5155000D01*
X14945000Y4850000D02*
Y5445000D01*
Y4850000D02*
X15705000D01*
Y5445000D01*
X14945000D02*
X15705000D01*
%TF.MD5,44d45c5645b0491ea8ade97ebc24860d*%
M02*
